<?xml version="1.0" standalone="no"?>
<!DOCTYPE svg PUBLIC "-//W3C//DTD SVG 1.1//EN" "http://www.w3.org/Graphics/SVG/1.1/DTD/svg11.dtd" >
<svg xmlns="http://www.w3.org/2000/svg">
<metadata>Generated by IcoMoon</metadata>
<defs>
<font id="edit_text" horiz-adv-x="1024">
<font-face units-per-em="1024" ascent="960" descent="-64" />
<missing-glyph horiz-adv-x="1024" />
<glyph unicode="&#x20;" horiz-adv-x="512" d="" />
<glyph unicode="&#xe900;" glyph-name="bold" d="M850.364 255.386c0-49.596-9.387-93.355-28.126-131.311-18.773-37.956-43.998-69.257-75.708-93.798-37.513-29.491-77.722-50.381-120.593-62.635-42.871-12.288-98.27-18.432-166.161-18.432h-286.14v997.615h264.67c71.031 0 124.279-2.355 159.812-7.031 35.499-4.676 69.564-15.735 102.161-33.178 35.738-19.217 61.85-44.339 78.404-75.366 16.521-31.061 24.781-67.584 24.781-109.534 0-46.899-12.39-88.883-37.171-125.952s-59.085-66.116-102.844-87.108v-5.359c59.392-16.077 105.404-45.466 138.035-88.098 32.563-42.701 48.879-95.949 48.879-159.812zM665.429 702.942c0 24.132-4.028 44.988-12.049 62.635-8.055 17.647-20.992 31.607-38.878 41.882-21.436 12.049-45.329 19.422-71.68 22.118s-62.771 4.028-109.227 4.028h-127.317v-292.113h150.767c41.54 0 72.124 2.116 91.785 6.349s39.97 13.073 60.962 26.453c20.105 12.937 34.406 29.935 42.871 50.927 8.533 20.992 12.766 46.899 12.766 77.722zM712.329 250.027c0 37.513-5.359 68.437-16.077 92.809-10.718 24.337-32.393 44.988-64.99 61.986-20.992 11.162-43.895 18.295-68.676 21.436-24.781 3.106-59.972 4.676-105.54 4.676h-150.733v-368.503h107.861c58.061 0 103.868 2.697 137.353 8.055s62.976 16.759 88.439 34.167c25.020 17.408 43.315 37.171 54.955 59.29 11.605 22.084 17.408 50.79 17.408 86.084z" />
<glyph unicode="&#xe901;" glyph-name="color" d="M53.214 6.724l-5.53 4.915v31.983l5.53 4.915c29.935 0.41 49.186 1.946 57.822 4.608 8.602 2.662 16.282 7.987 23.074 15.974 6.758 7.987 20.378 34.133 40.892 78.404l64.58 140.22 167.287 378.846c31.573 74.206 62.942 148.412 94.106 222.652h39.97l297.677-699.87c10.24-23.381 22.050-48.811 35.362-76.254 13.312-27.477 22.528-43.657 27.682-48.572 5.12-4.915 11.469-8.704 19.081-11.366 7.578-2.662 24.508-4.198 50.722-4.608l4.915-4.915v-31.983l-4.915-4.915c-43.452 3.686-82.637 5.53-117.453 5.53-68.062-2.048-136.124-3.891-204.186-5.53l-4.915 4.915v31.983l4.915 4.915c45.909 0.819 74.615 2.765 86.118 5.837 11.469 3.072 17.237 10.138 17.237 21.231 0 9.011-2.867 20.924-8.602 35.669l-75.639 187.563h-356.215l-67.038-157.457c-11.913-28.297-17.852-49.015-17.852-62.123 0-10.24 5.53-17.852 16.589-22.767s38.946-7.578 83.627-7.987l5.53-4.915v-31.983l-4.915-4.915c-52.907 3.277-99.226 4.915-138.991 4.915-45.056 0-90.556-1.638-136.465-4.915zM333.653 351.744h311.194l-154.385 370.859-156.809-370.859z" />
<glyph unicode="&#xe902;" glyph-name="color_back" d="M982.596 960l-303.718-303.718 27.307-64.205 317.815 317.815v50.108zM652.356 718.677l241.323 241.323h-91.511l-177.118-177.118zM206.882 302.524l49.152 111.343-256.034-256.034v-91.511l181.862 181.862zM373.931 680.789c7.646 18.022 15.394 36.181 23.142 54.511l-397.073-397.039v-91.511l326.349 326.349 47.582 107.691zM598.528 845.278l114.722 114.722h-91.511l-50.517-50.551 2.628-6.212zM467.866 903.1l9.216 21.948h20.787l34.953 34.953h-91.511l-441.31-441.31v-91.511l462.029 462.029c1.946 4.642 3.891 9.25 5.837 13.892zM40.653-30.071l-25.463 22.63-15.189-15.155v-41.404h50.108l37.001 37.001c-10.445-0.58-20.924-1.229-31.369-1.98l-15.087-1.092zM80.486 960l-80.486-80.486v-91.477l171.964 171.964zM260.915 960l-260.915-260.915v-91.477l352.393 352.393zM1012.156 58.47v-62.532l11.844 11.844v91.477l-26.317-26.317zM813.875 338.91l210.125 210.125v91.511l-237.431-237.431zM645.188 261.734l-325.734-325.734h91.511l260.506 260.54zM867.703 212.343l156.297 156.297v91.477l-183.603-183.603zM178.825-24.201l-39.799-39.799h91.511l38.025 38.025c-28.74 1.195-55.125 1.809-78.848 1.809-3.618 0-7.236 0-10.889-0.034zM760.047 465.51l263.953 263.953v91.511l-291.26-291.26zM609.007 45.124l-109.124-109.124h91.477l39.219 39.219-21.572 21.572zM680.311-64h91.511l39.117 39.117c-31.3-0.887-62.737-1.775-94.071-2.594l-36.557-36.523zM906.172 128.717c12.117-25.020 18.057-34.714 20.309-38.025l97.519 97.519v91.511l-128.58-128.58c3.482-7.305 7.031-14.78 10.752-22.426zM900.13-24.61l-39.39-39.39h91.511l33.109 33.109-16.964 1.877c-24.064 2.048-46.865 3.516-68.267 4.403zM501.692 387.584l63.147 63.147-26.897 64.614-127.761-127.761zM436.429 502.75l75.366 75.366-21.572 51.849zM328.431 84.412l13.449-0.137 19.558-17.374 196.164 196.164h-91.511l-177.391-177.391c9.865-0.614 22.835-1.126 39.731-1.263zM306.278 192.171l70.895 70.895h-40.721zM976.316 11.639v31.983l-4.915 4.915c-26.249 0.41-43.145 1.946-50.722 4.608s-13.961 6.451-19.081 11.366c-5.12 4.915-14.37 21.129-27.682 48.572-13.312 27.477-25.122 52.907-35.362 76.254l-297.677 699.87h-39.97c-31.164-74.206-62.532-148.446-94.106-222.652l-167.253-378.778-64.58-140.22c-20.514-44.271-34.133-70.417-40.892-78.404s-14.438-13.312-23.074-15.974c-8.602-2.662-27.887-4.198-57.822-4.608l-5.53-4.915v-31.983l5.53-4.915c45.909 3.277 91.409 4.915 136.533 4.915 39.765 0 86.118-1.638 138.991-4.915l4.915 4.915v31.983l-5.53 4.915c-44.681 0.41-72.567 3.072-83.627 7.987s-16.589 12.493-16.589 22.767c0 13.107 5.939 33.826 17.852 62.123l67.038 157.457h356.079l75.639-187.563c5.734-14.746 8.602-26.658 8.602-35.669 0-11.059-5.734-18.159-17.237-21.231-11.469-3.072-40.175-5.018-86.118-5.837l-4.881-4.983v-31.983l4.915-4.915c68.062 1.638 136.124 3.482 204.186 5.53 34.85 0 74.001-1.843 117.453-5.53l4.915 4.915zM333.653 351.744l156.843 370.859 154.351-370.859h-311.194z" />
<glyph unicode="&#xe903;" glyph-name="color_text" d="M11.196 28.74h1001.574v-73.079h-1001.574v73.079zM189.747 82.364c39.765 0 86.118-1.638 138.991-4.915l4.915 4.915v31.983l-5.53 4.915c-44.681 0.41-72.567 3.072-83.627 7.987s-16.589 12.493-16.589 22.767c0 13.107 5.939 33.826 17.852 62.123l67.038 157.457h356.079l75.639-187.563c5.734-14.746 8.602-26.658 8.602-35.669 0-11.059-5.734-18.159-17.237-21.231-11.469-3.072-40.175-5.018-86.118-5.837l-4.915-4.915v-31.983l4.915-4.915c68.062 1.638 136.124 3.482 204.186 5.53 34.85 0 74.001-1.843 117.453-5.53l4.915 4.915v31.983l-4.915 4.915c-26.249 0.41-43.145 1.946-50.722 4.608s-13.961 6.451-19.081 11.366c-5.12 4.915-14.37 21.129-27.682 48.572-13.312 27.477-25.122 52.907-35.362 76.254l-35.021 82.432-262.622 617.472h-39.97c-31.164-74.206-62.532-148.446-94.106-222.652l-167.287-378.846-64.58-140.22c-20.514-44.271-34.133-70.417-40.892-78.404s-14.438-13.312-23.074-15.974c-8.602-2.662-27.887-4.198-57.822-4.608l-5.53-4.915v-31.983l5.53-4.915c45.943 3.243 91.443 4.881 136.567 4.881zM490.462 793.327l154.385-370.859h-311.194l156.809 370.859z" />
<glyph unicode="&#xe904;" glyph-name="indent" d="M20.924 879.718h985.634v-127.454h-985.634v127.454zM20.924 129.092h985.634v-127.454h-985.634v127.454zM127.386 189.303h879.172v127.454h-634.675zM524.254 469.436c13.687-7.1 22.221-21.129 22.221-36.557 0.034-15.462-8.465-29.525-22.187-36.659l-36.966-19.285h519.236v127.454h-549.376l67.072-34.953zM341.675 564.599h664.883v127.454h-909.346zM24.132 174.353l484.215 252.416c4.881 2.56 4.881 9.523 0 12.049l-484.215 252.45c-4.506 2.355-9.933-0.922-9.933-6.042v-504.866c-0.034-5.086 5.393-8.397 9.933-6.007z" />
<glyph unicode="&#xe905;" glyph-name="italic" d="M560.196-46.49c-136.021 0-271.155 0-407.552 0 2.423 11.981-7.134 42.291 8.602 43.554 46.592 7.748 109.773 12.356 128.273 71.475 20.036 64 304.947 768.649 304.401 791.484-1.161 49.459-92.194 40.892-128.853 40.073 0 0 0 27.887 0 42.394 135.68 0 270.95 0 406.972 0 0-13.961 0-28.058 0-41.677-112.469-2.082-118.135-13.005-141.141-48.401-8.294-12.766-296.789-753.425-296.789-799.095 0-60.996 80.35-46.524 126.089-57.207 0-14.302 0-28.092 0-42.598z" />
<glyph unicode="&#xe906;" glyph-name="list" d="M20.924 504.388h127.42v-127.454h-127.42v127.454zM20.924 316.757h127.42v-127.454h-127.42v127.454zM20.924 879.718h127.42v-127.454h-127.42v127.454zM20.924 129.092h127.42v-127.454h-127.42v127.454zM20.924 692.053h127.42v-127.454h-127.42v127.454zM228.113 879.718h778.445v-127.454h-778.445v127.454zM228.113 692.053h778.445v-127.454h-778.445v127.454zM228.113 504.388h778.445v-127.454h-778.445v127.454zM228.113 316.757h778.445v-127.454h-778.445v127.454zM228.113 129.092h778.445v-127.454h-778.445v127.454z" />
<glyph unicode="&#xe907;" glyph-name="list_bullet" d="M148.378 815.991c0-35.195-28.532-63.727-63.727-63.727s-63.727 28.532-63.727 63.727c0 35.195 28.532 63.727 63.727 63.727s63.727-28.532 63.727-63.727zM148.378 628.326c0-35.195-28.532-63.727-63.727-63.727s-63.727 28.532-63.727 63.727c0 35.195 28.532 63.727 63.727 63.727s63.727-28.532 63.727-63.727zM148.378 440.661c0-35.195-28.532-63.727-63.727-63.727s-63.727 28.532-63.727 63.727c0 35.195 28.532 63.727 63.727 63.727s63.727-28.532 63.727-63.727zM148.378 253.030c0-35.195-28.532-63.727-63.727-63.727s-63.727 28.532-63.727 63.727c0 35.195 28.532 63.727 63.727 63.727s63.727-28.532 63.727-63.727zM148.378 65.365c0-35.195-28.532-63.727-63.727-63.727s-63.727 28.532-63.727 63.727c0 35.195 28.532 63.727 63.727 63.727s63.727-28.532 63.727-63.727zM235.52 879.718h-7.407v-127.454h778.445v127.454zM228.113 692.053v-127.454h778.445v127.454h-771.038zM228.113 504.388v-127.454h778.445v127.454h-771.038zM228.113 316.757v-127.454h778.445v127.454h-771.038zM228.113 129.092v-127.454h778.445v127.454h-771.038z" />
<glyph unicode="&#xe908;" glyph-name="list_ordered" d="M235.52 879.718v0h-7.407v-127.454h778.445v127.454zM131.14 781.926h-28.706v98.372h-19.251l-1.502-0.819c-6.793-3.652-14.575-5.837-26.010-7.373l-5.939-0.785v-22.153h24.713v-67.243h-31.812v-25.566h88.508v25.566zM60.826 654.848c7.168 7.339 14.438 11.093 21.572 11.093 11.469 0 17.033-4.779 17.033-14.609 0-15.462-20.958-35.089-55.433-65.604l-2.321-2.048v-18.364h91.273v25.941h-42.974c-0.717 0-1.434 0-2.185 0 23.484 22.221 39.083 40.789 39.083 60.791 0 23.518-17.203 39.322-42.769 39.322-19.968 0-32.563-10.035-41.301-18.773l-4.881-4.881 18.125-17.749 4.779 4.881zM84.548 376.627c12.425 0 23.893 3.482 32.29 9.762 9.318 6.997 14.473 17.135 14.473 28.535 0 9.011-3.55 17.169-10.274 23.518-2.219 2.116-4.779 3.994-7.578 5.598 9.148 6.417 14.063 15.292 14.063 25.873 0 10.65-4.71 19.934-13.244 26.18-7.714 5.666-18.125 8.636-30.037 8.636-14.302 0-28.058-5.359-39.731-15.497l-5.086-4.403 16.452-19.456 5.222 4.608c6.861 6.042 14.882 9.353 22.63 9.353 7.578 0 15.633-2.765 15.633-10.445 0-11.947-18.364-13.756-29.321-13.756h-6.827v-24.542h6.827c15.599 0 23.45-2.765 27.273-5.086 4.028-2.423 5.837-5.53 5.837-10.069 0-9.148-9.762-13.244-19.456-13.244-10.274 0-19.115 3.618-26.931 11.093l-5.461 5.188-15.599-20.036 4.267-4.267c11.503-11.503 26.897-17.545 44.578-17.545zM86.869 191.044h27.136v30.413h17.101v25.225h-17.101v68.301h-25.532l-58.47-74.82v-18.671h56.866v-30.447zM66.901 246.716l19.968 25.088v-25.088h-19.968zM120.491 77.995c-7.817 6.485-18.603 9.899-31.198 9.899-4.813 0-8.875-0.512-12.663-1.434l1.434 15.77h50.381v26.112h-75.605l-4.335-63.488 14.473-9.216 3.55 1.98c7.1 3.959 11.571 5.7 19.149 5.7 7.509 0 20.139-2.219 20.139-17.203 0-12.527-10.889-18.227-20.992-18.227-11.844 0-19.183 4.369-26.59 10.923l-5.564 4.915-15.258-20.446 4.642-4.164c8.704-7.817 21.606-16.794 44.339-16.794 12.39 0 23.996 4.028 32.7 11.332 9.626 8.090 14.916 19.763 14.916 32.836-0.034 13.312-4.676 24.201-13.517 31.505zM235.52 692.053h-7.407v-127.454h778.445v127.454zM235.52 504.388h-7.407v-127.454h778.445v127.454zM235.52 316.757h-7.407v-127.454h778.445v127.454zM235.52 129.092h-7.407v-127.454h778.445v127.454z" />
<glyph unicode="&#xe909;" glyph-name="paragraph" d="M20.924 879.718h985.634v-127.454h-985.634v127.454zM20.924 504.388h985.634v-127.454h-985.634v127.454zM20.924 692.053h985.634v-127.454h-985.634v127.454zM20.924 316.757h985.634v-127.454h-985.634v127.454zM20.924 129.092h985.634v-127.454h-985.634v127.454z" />
<glyph unicode="&#xe90a;" glyph-name="paragraph_center" d="M216.337 692.053h591.292v-127.454h-591.292v127.454zM216.337 316.757h591.292v-127.454h-591.292v127.454zM807.663 879.718h-786.739v-127.454h985.634v127.454zM216.337 504.388h-195.413v-127.42h985.634v127.42h-198.895zM216.337 129.092h-195.413v-127.454h985.634v127.454h-198.895z" />
<glyph unicode="&#xe90b;" glyph-name="paragraph_left" d="M20.924 692.053h786.705v-127.454h-786.705v127.454zM20.924 316.757h786.705v-127.454h-786.705v127.454zM807.663 879.718h-786.739v-127.454h985.634v127.454zM20.924 504.388v-127.42h985.634v127.42h-198.895zM20.924 129.092v-127.454h985.634v127.454h-198.895z" />
<glyph unicode="&#xe90c;" glyph-name="paragraph_right" d="M219.853 692.053h786.705v-127.454h-786.705v127.454zM219.853 316.757h786.705v-127.454h-786.705v127.454zM219.853 879.718h786.705v-127.454h-985.634v127.454zM1006.558 504.388v-127.42h-985.634v127.42h198.929zM1006.558 129.092v-127.454h-985.634v127.454h198.929z" />
<glyph unicode="&#xe90d;" glyph-name="quote" d="M93.286 384.273h150.938c-2.97-89.771-17.749-158.583-44.407-206.438-26.624-47.855-68.062-84.105-124.314-108.783l74.035-113.937c85.845 37.513 148.48 90.522 187.938 159.095s59.187 158.618 59.187 270.063v303.377h-303.377v-303.377zM645.086 940.885v-303.377h150.938c-2.97-89.771-17.749-158.583-44.407-206.438-26.624-47.855-68.062-84.105-124.314-108.783l74.001-113.937c85.845 37.513 148.48 90.522 187.938 159.095s59.187 158.618 59.187 270.063v303.377h-303.343z" />
<glyph unicode="&#xe90e;" glyph-name="size" d="M189.030 385.673c-85.299 0-146.295 0.853-182.921 2.526l-2.833-2.833c1.468-15.36 2.423-48.435 2.833-99.191l2.526-2.526h14.541l2.833 2.833 3.174 29.082c1.877 19.149 3.925 30.481 6.144 33.963s10.377 5.632 24.474 6.485c14.097 0.853 30.857 1.263 50.244 1.263h47.070c1.673-51.61 2.526-79.087 2.526-82.466v-184.183l-0.649-66.662c0-22.528-0.751-37.069-2.219-43.588s-3.311-10.786-5.53-12.8c-2.219-2.014-6.519-3.652-12.971-4.915-6.417-1.263-19.524-2.321-39.322-3.174l-2.526-1.911v-15.804l2.526-2.526c53.282 1.673 83.319 2.526 90.044 2.526 6.315 0 36.454-0.853 90.351-2.526l2.219 2.526v15.804l-2.219 1.911c-22.528 0.853-36.659 2.048-42.359 3.652-5.7 1.57-9.523 3.482-11.537 5.7s-3.482 6.827-4.437 13.892c-0.956 7.066-1.536 22.494-1.741 46.285l-0.649 61.611v184.183c0 7.373 0.853 34.85 2.526 82.466h59.699c14.336 0 27.273-0.546 38.844-1.57 11.571-1.058 18.432-2.355 20.548-3.959 2.116-1.57 3.618-4.096 4.574-7.578s2.287-13.005 3.959-28.604l3.482-29.082 2.526-2.833h14.848l2.526 2.526c0 47.172 0.956 80.247 2.833 99.191l-2.833 2.833c-35.055-1.673-96.154-2.526-183.125-2.526zM1014.306 956.757c-79.735-3.823-218.146-5.734-415.3-5.734-193.365 0-331.537 1.911-414.583 5.734l-6.451-6.451c3.311-34.85 5.495-109.807 6.451-224.836l5.734-5.734h32.939l6.451 6.451 7.168 65.877c4.267 43.418 8.943 69.086 13.961 76.971s23.518 12.766 55.501 14.677c31.983 1.911 69.939 2.867 113.869 2.867h106.633c3.823-116.975 5.734-179.268 5.734-186.88v-417.451l-1.434-151.108c0-51.063-1.673-84.002-5.018-98.816s-7.509-24.474-12.527-28.979c-5.018-4.54-14.814-8.226-29.355-11.093s-44.271-5.257-89.156-7.168l-5.734-4.301v-35.806l5.734-5.734c120.764 3.823 188.791 5.734 204.083 5.734 14.336 0 82.569-1.911 204.8-5.734l5.018 5.734v35.806l-5.018 4.301c-51.098 1.911-83.081 4.642-95.983 8.226s-21.606 7.851-26.146 12.902c-4.54 5.018-7.851 15.497-10.035 31.505-2.15 15.974-3.482 50.961-3.925 104.892l-1.434 139.639v417.451c0 16.691 1.911 79.019 5.734 186.88h135.339c32.461 0 61.815-1.195 88.064-3.584s41.779-5.359 46.558-8.943c4.779-3.584 8.226-9.318 10.377-17.169 2.15-7.885 5.154-29.457 8.977-64.785l7.851-65.877 5.734-6.451h33.655l5.734 5.734c0 106.94 2.15 181.862 6.451 224.836l-6.451 6.417z" />
<glyph unicode="&#xe90f;" glyph-name="spoiler_off" d="M10.752 55.842l460.732 392.158-460.732 392.158zM552.516 448l460.732-392.158v784.316zM500.224 895.932h23.552v-895.898h-23.552v895.898z" />
<glyph unicode="&#xe910;" glyph-name="spoiler_on" d="M471.484 55.842l-460.732 392.158 460.732 392.158zM1013.248 448l-460.732-392.158v784.316zM500.224 895.932h23.552v-895.898h-23.552v895.898z" />
<glyph unicode="&#xe911;" glyph-name="strike" d="M7.511 430.86l1001.743 112.806 9.029-80.183-1001.743-112.806-9.029 80.183zM775.748 412.126l-199.953-22.528c27.75-8.055 47.582-14.575 59.494-19.593 33.826-13.892 58.197-31.027 73.148-51.371 14.95-20.378 22.46-44.203 22.46-71.475 0-26.897-7.646-51.78-22.869-74.684-15.258-22.903-38.502-40.926-69.769-54.067s-67.277-19.695-108.066-19.695c-45.943 0-87.313 8.67-124.075 25.975s-63.863 40.004-81.34 68.096c-17.476 28.058-28.57 64-33.348 107.793l-101.342-9.387c1.468-58.266 16.282-110.49 44.407-156.638 28.126-46.182 66.935-80.759 116.429-103.731s110.797-34.475 184.013-34.475c57.754 0 109.705 11.401 155.887 34.133 46.182 22.767 81.579 54.613 106.223 95.573s36.966 84.582 36.966 130.867c0 46.694-11.264 87.927-33.758 123.767-7.031 11.093-15.189 21.572-24.508 31.437zM303.138 488.175l248.491 27.989c-11.196 2.901-22.938 5.837-35.191 8.841-86.938 21.231-140.698 41.95-161.28 62.191-20.958 20.207-31.437 46.012-31.437 77.346 0 36.079 14.78 66.901 44.373 92.501s76.732 38.366 141.449 38.366c62.123 0 109.090-13.995 140.868-41.984s50.449-69.393 55.979-124.211l103.083 8.465c-1.843 51.063-15.087 96.802-39.731 137.148-24.644 40.38-59.87 70.963-105.677 91.75s-98.714 31.164-158.652 31.164c-54.477 0-103.97-9.933-148.48-29.798s-78.37-48.913-101.547-87.245-34.782-79.531-34.782-123.597c0-40.141 9.455-76.39 28.399-108.749 13.244-22.63 31.3-42.701 54.135-60.177z" />
<glyph unicode="&#xe912;" glyph-name="sub" d="M496.742 460.527l253.406 402.876c5.769 9.626 8.977 17.681 9.626 24.098s-1.911 11.401-7.714 14.95c-5.769 3.516-14.609 5.939-26.487 7.236s-27.136 1.911-45.739 1.911c-17.374 0-31.027-0.512-40.96-1.468-9.933-0.99-17.647-2.594-23.108-4.813-5.461-2.253-9.796-4.983-13.005-8.192s-6.076-6.724-8.67-10.581l-200.397-322.901-197.495 322.901c-2.56 4.471-5.461 8.329-8.67 11.537s-8.021 5.769-14.438 7.714-15.258 3.379-26.487 4.369c-11.264 0.956-26.18 1.468-44.783 1.468-20.548 0-37.103-0.649-49.63-1.911-12.527-1.297-21.879-4.028-27.955-8.192-6.076-4.198-8.977-9.318-8.67-15.428s3.038-13.653 8.192-22.665l255.351-407.723-269.926-423.151c-5.803-8.977-8.841-16.555-9.148-22.665-0.341-6.11 2.253-11.093 7.714-14.95s14.097-6.554 26.010-8.192c11.878-1.604 27.136-2.389 45.773-2.389 17.988 0 32.427 0.512 43.349 1.468 10.923 0.99 19.729 2.594 26.487 4.813 6.758 2.253 11.878 5.154 15.428 8.67 3.516 3.516 6.588 7.543 9.148 12.049l207.155 344.132 208.111-344.132c2.56-4.506 5.598-8.533 9.148-12.049 3.516-3.55 8.67-6.451 15.428-8.67s15.735-3.823 26.965-4.813c11.23-0.956 26.487-1.468 45.773-1.468 19.9 0 36.147 0.819 48.64 2.389 12.527 1.638 21.845 4.369 27.955 8.192 6.076 3.857 9.148 8.841 9.148 14.95 0 6.076-2.56 13.653-7.714 22.665l-267.81 427.964zM886.784-21.231l51.268 49.869c12.117 11.674 22.596 22.391 31.471 32.154 8.875 9.796 16.213 19.251 22.050 28.399s10.206 18.33 13.073 27.511c2.867 9.216 4.335 19.217 4.335 30.003 0 12.8-2.048 24.337-6.178 34.543s-9.899 18.842-17.408 25.907-16.384 12.459-26.726 16.179-21.743 5.632-34.27 5.632c-18.466 0-34.645-3.379-48.538-10.103-13.926-6.758-26.214-15.701-36.864-26.897l20.753-24.747c8.226 8.465 17.237 15.36 27.034 20.685s20.685 7.987 32.666 7.987c8.636 0 16.077-1.365 22.289-4.096s11.264-6.485 15.155-11.264c3.891-4.779 6.758-10.274 8.636-16.555s2.833-12.868 2.833-19.797c0-7.339-0.717-14.165-2.15-20.514s-4.267-13.073-8.431-20.173-10.001-15.019-17.51-23.654-17.237-18.842-29.184-30.652l-73.114-72.567v-33.69h186.027v35.84h-137.216z" />
<glyph unicode="&#xe913;" glyph-name="sup" d="M496.742 460.527l253.406 402.876c5.769 9.626 8.977 17.681 9.626 24.098s-1.911 11.401-7.714 14.95c-5.769 3.516-14.609 5.939-26.487 7.236s-27.136 1.911-45.739 1.911c-17.374 0-31.027-0.512-40.96-1.468-9.933-0.99-17.647-2.594-23.108-4.813-5.461-2.253-9.796-4.983-13.005-8.192s-6.076-6.724-8.67-10.581l-200.397-322.901-197.495 322.901c-2.56 4.471-5.461 8.329-8.67 11.537s-8.021 5.769-14.438 7.714-15.258 3.379-26.487 4.369c-11.264 0.956-26.18 1.468-44.783 1.468-20.548 0-37.103-0.649-49.63-1.911-12.527-1.297-21.879-4.028-27.955-8.192-6.076-4.198-8.977-9.318-8.67-15.428s3.038-13.653 8.192-22.665l255.351-407.723-269.926-423.151c-5.803-8.977-8.841-16.555-9.148-22.665-0.341-6.11 2.253-11.093 7.714-14.95s14.097-6.554 26.010-8.192c11.878-1.604 27.136-2.389 45.773-2.389 17.988 0 32.427 0.512 43.349 1.468 10.923 0.99 19.729 2.594 26.487 4.813 6.758 2.253 11.878 5.154 15.428 8.67 3.516 3.516 6.588 7.543 9.148 12.049l207.155 344.132 208.111-344.132c2.56-4.506 5.598-8.533 9.148-12.049 3.516-3.55 8.67-6.451 15.428-8.67s15.735-3.823 26.965-4.813c11.23-0.956 26.487-1.468 45.773-1.468 19.9 0 36.147 0.819 48.64 2.389 12.527 1.638 21.845 4.369 27.955 8.192 6.076 3.857 9.148 8.841 9.148 14.95 0 6.076-2.56 13.653-7.714 22.665l-267.81 427.964zM886.784 708.642l51.268 49.869c12.117 11.674 22.596 22.391 31.471 32.154 8.875 9.796 16.213 19.251 22.050 28.399s10.206 18.33 13.073 27.511c2.867 9.216 4.335 19.217 4.335 30.003 0 12.8-2.048 24.337-6.178 34.543s-9.899 18.842-17.408 25.907-16.384 12.459-26.726 16.179-21.709 5.632-34.236 5.632c-18.466 0-34.645-3.379-48.538-10.103-13.926-6.758-26.214-15.701-36.864-26.897l20.753-24.747c8.226 8.465 17.237 15.36 27.034 20.685s20.685 7.987 32.666 7.987c8.636 0 16.077-1.365 22.289-4.096s11.264-6.485 15.155-11.264c3.891-4.779 6.758-10.274 8.636-16.555s2.833-12.868 2.833-19.797c0-7.339-0.717-14.165-2.15-20.514s-4.267-13.073-8.431-20.173-10.001-15.019-17.51-23.654-17.237-18.842-29.184-30.652l-73.148-72.567v-33.69h186.027v35.84h-137.216z" />
<glyph unicode="&#xe914;" glyph-name="sup_sub" d="M924.262-4.54c5.598-9.796 8.397-18.022 8.397-24.678s-3.345-12.083-9.967-16.282c-6.656-4.198-16.828-7.168-30.447-8.943-13.619-1.741-31.3-2.628-53.009-2.628-20.992 0-37.615 0.546-49.869 1.57-12.22 1.058-22.016 2.833-29.389 5.222-7.373 2.423-12.971 5.598-16.794 9.455-3.823 3.823-7.168 8.226-9.967 13.107l-226.714 374.886-225.69-374.852c-2.799-4.915-6.144-9.284-9.967-13.107-3.823-3.857-9.421-7.031-16.794-9.455s-16.964-4.164-28.877-5.222c-11.913-1.024-27.614-1.57-47.206-1.57-20.309 0-36.898 0.887-49.869 2.628-12.971 1.775-22.391 4.745-28.331 8.943-5.973 4.198-8.772 9.626-8.397 16.282 0.341 6.622 3.652 14.882 9.967 24.678l293.888 460.937-278.153 444.109c-5.598 9.796-8.567 18.022-8.909 24.678-0.375 6.622 2.799 12.22 9.421 16.794s16.794 7.543 30.447 8.943c13.619 1.399 31.676 2.116 54.067 2.116 20.275 0 36.557-0.546 48.811-1.57 12.22-1.058 21.879-2.628 28.877-4.745s12.22-4.915 15.735-8.397 6.656-7.714 9.455-12.561l215.142-351.778 218.317 351.778c2.799 4.198 5.939 8.021 9.421 11.537 3.516 3.516 8.226 6.485 14.165 8.909s14.37 4.198 25.19 5.257c10.82 1.024 25.702 1.57 44.612 1.57 20.275 0 36.864-0.717 49.835-2.116s22.562-4.028 28.877-7.885c6.315-3.857 9.114-9.284 8.397-16.282s-4.198-15.77-10.513-26.249l-275.968-438.886 291.806-466.193z" />
<glyph unicode="&#xe915;" glyph-name="terminal" d="M28.945 812.646v-729.293h966.11v729.293h-966.11zM227.806 334.746l-33.587 34.236 169.54 139.674-169.54 140.629 33.587 34.543 209.067-174.524-209.067-174.558zM829.781 212.173h-350.276v44.783h350.276v-44.783z" />
<glyph unicode="&#xe916;" glyph-name="underline" d="M518.349 70.076c52.873 1.399 133.769 10.82 167.799 21.402 36.898 11.503 67.379 30.379 91.477 56.627 24.098 26.214 41.472 57.139 52.156 92.74 10.65 35.601 15.974 80.93 15.974 135.953v420.966c0 33.28 1.058 55.774 3.209 67.482 2.116 11.708 5.222 20.992 9.284 27.819 4.028 6.827 9.899 12.698 17.579 17.613 7.68 4.881 21.982 10.138 42.871 15.667v31.334h-268.663v-31.369c23.893-5.973 40.516-12.698 49.903-20.139s15.77-18.671 19.183-33.587c3.413-14.916 5.12-39.868 5.12-74.854v-452.915c0-41.37-4.369-76.117-13.107-104.277s-20.992-50.005-36.796-65.57c-15.77-15.565-34.543-26.863-56.286-33.929-20.89-6.758-73.182-11.264-106.018-11.332-32.836 0.068-85.129 4.54-106.018 11.332-21.743 7.031-40.516 18.33-56.286 33.929-15.77 15.565-28.023 37.41-36.796 65.57-8.738 28.16-13.107 62.908-13.107 104.277v452.949c0 34.987 1.707 59.904 5.12 74.854 3.413 14.916 9.796 26.112 19.183 33.587s26.010 14.199 49.903 20.139v31.334h-268.732v-31.369c20.89-5.53 35.191-10.786 42.871-15.667 7.68-4.915 13.551-10.786 17.579-17.613s7.134-16.111 9.284-27.819c2.116-11.708 3.209-34.202 3.209-67.482v-420.932c0-55.023 5.325-100.352 15.974-135.953s28.023-66.526 52.156-92.74c24.098-26.249 54.579-45.124 91.477-56.627 34.031-10.615 114.927-20.002 167.799-21.402h12.698zM36.25 24.269h951.501v-69.734h-951.501v69.734z" />
</font>
</defs>
</svg>
