<?xml version="1.0" standalone="no"?>
<!DOCTYPE svg PUBLIC "-//W3C//DTD SVG 1.1//EN" "http://www.w3.org/Graphics/SVG/1.1/DTD/svg11.dtd" >
<svg xmlns="http://www.w3.org/2000/svg">
<metadata>Generated by IcoMoon</metadata>
<defs>
<font id="info" horiz-adv-x="1024">
<font-face units-per-em="1024" ascent="960" descent="-64" />
<missing-glyph horiz-adv-x="1024" />
<glyph unicode="&#x20;" horiz-adv-x="512" d="" />
<glyph unicode="&#xe900;" glyph-name="black_horse" d="M742.339 955.904q2.063-0.344 4.134-0.689c4.308-21.323-5.683-43.323-3.789-62.023h1.031c5.55 6.903 30.512 35.525 39.977 33.079 9.137-30.674 2.413-77.379 2.41-112.674q0.348-16.022 0.689-32.045c2.826-9.483 14.387-13.483 19.644-21.019q16.886-30.319 33.772-60.645c17.824-31.836 32.457-65.654 45.834-101.649q12.232-37.207 24.467-74.428c9.37-21.613 28.3-35.7 38.25-57.887 17.872-39.854 8.629-100.54-22.743-119.224-39.243-23.368-96.461-18.452-117.166 17.575q-7.24 18.432-14.476 36.867c-6.895 4.888-30.816 7.335-39.284 11.028-30.372 13.237-57.235 33.079-81.326 53.064-11.486 9.527-33.963 49.033-45.145 51.685-20.644 4.902-40.994-23.634-48.934-34.802-16.34-22.975-23.777-50.217-23.777-90.276-0.007-97.673 39.455-149.146 74.435-211.569 8.465-15.111 17.872-29.007 23.433-47.206 17.473-57.184 2.403-131.345 0-193.307-258.284 14.162-474.061 138.056-521.39 362.145-17.476 82.749-6.551 148.337 19.643 210.534-0.115 0.116-0.23 0.229-0.345 0.345-30.508 10.424-60.361-26.539-85.118-30.669-0.115 0.116-0.23 0.232-0.345 0.345-0.265 72.602 125.474 179.443 173.337 213.982 11.692 8.438 79.678 47.285 81.327 56.51l-0.689 0.689c-25.933 13.916-57.832-9.724-81.327-6.202l-0.345 0.689c4.335 12.823 21.041 21.93 31.015 29.633 63.558 49.092 132.435 79.628 235.367 90.968 30.877 3.402 65.208 0.867 93.389-2.757l34.461-3.101 25.501 22.742c26.641 22.784 52.043 53.97 84.084 70.292z" />
<glyph unicode="&#xe901;" glyph-name="bookmarks-off" d="M840.288 956.245q-0.174-508.191-0.348-1016.484-169.697 168.407-339.425 336.852-169.175-168.586-338.381-337.2v1015.436c350.966 0.877 803.096 1.396 678.154 1.396z" />
<glyph unicode="&#xe902;" glyph-name="bookmarks-on" d="M840.288 956.245q0.179-337.689 0.352-675.444-0.348-170.501-0.7-341.040c-0.232 0.232-0.464 0.468-0.696 0.7q-168.479 168.059-336.985 336.152-1.044-0.174-2.096-0.352-168.996-168.407-338.029-336.848v1015.436zM500.862 813.128c-5.673-8.663-7.857-21.982-11.175-32.463q-10.998-32.984-21.999-65.974c-2.174-6.163-8.073-31.998-11.875-34.558l-89.743-0.349c-7.417 0-27.548 1.673-30.731-2.094 3.048-6.312 17.733-14.112 23.747-18.5q36.485-27.050 72.984-54.104-15.189-46.771-30.382-93.553c-1.864-5.915-12.087-30.986-11.175-35.253 0.461-1.338 0-0.727 1.048-1.396 3.181-0.915 23.805 16.084 27.587 18.848l82.763 60.389q54.298-39.793 108.602-79.589c0.816 0.116 1.632 0.236 2.444 0.352 0.116 0.348 0.232 0.696 0.352 1.044 1.464 4.198-8.598 28.846-10.479 34.208q-15.534 47.473-31.078 94.949 48.358 35.774 96.73 71.558l-0.348 2.443c-0.352 0.116-0.7 0.233-1.048 0.349l-119.777 0.698-31.082 93.901c-3.488 10.053-7.69 31.859-13.268 39.096h-2.096z" />
<glyph unicode="&#xe903;" glyph-name="critic_rating_1" horiz-adv-x="1022" d="M284.481 401.364l-21.333 41.069 1.611 1.229-18.415 56.245 25.498-50.842 48.080 36.693-0.007 1.051-0.287 42.732-69.065 5.226 4.437-4.724-23.832-16.2 1.065-2.912 1.847-5.041-0.15-0.963-8.636-54.415-31.020-10.469 67.707-65.993 22.501 27.313zM554.278 795.259l44.52-19.316-33.15 67.171-13.609-22.856 2.239-24.999zM925.798 611.031l-32.188-40.567c-0.901-1.28-1.792-2.567-2.686-3.847-0.109-0.16-0.232-0.317-0.341-0.478l1.901-1.072-54.272-81.92 2.792-32.113 153.846 149.961zM338.825 562.442l17.589-3.284-2.72-15.189-8.772-48.927 118.245-23.108 1.143 43.339-77.076 29.819 0.119 2.639 1.41 31.44 6.919-27.464 70.496-24.757 14.701 53.774-49.408 51.538 1.652 7.322 22.193 98.14-39.031 20.132-53.49-108.377-151.385-21.999 14.664-43.994 112.753-21.043zM464.302 453.908l-1.621-0.372 0.017 0.614-134.816 20.46-48.831-35.202 29.798-40.393-38.922-37.151-18.855-109.913 51.903 6.977 82.166 132.314 65.587 1.884 25.211 59.013-11.636 1.768zM816.855 487.171l36.359 76.602-24.416 11.035-44.937-17.599c-2.57-3.925-4.956-7.95-7.315-11.991-2.697-4.861-5.39-9.721-7.912-14.677q-7.294-14.285-13.687-29.071l-5.489-22.443c-1.655-7.547-3.482-15.019-4.973-22.637-1.601-7.561-3.024-15.193-4.407-22.835q-0.843-5.028-1.652-10.069l20.623-31.201 13.445-8.018 54.023 52.657-9.127 47.479zM336.722 227.082l-4.417-9.875-68.318-10.929-21.583-4.884-28.819-168.015 176.664 92.873 0.556 1.318 4.195 10.138 8.721 20.371c5.646 13.24 11.605 26.402 17.531 39.547l9.725 52.357 5.236 28.133 5.461 28.105-0.089-1.492c1.089 13.745 2.048 27.488 3.243 41.233 0.966 11.192 1.901 22.385 2.915 33.58l-47.425-10.342zM584.724 226.157l76.684 50.193 16.217 47.462 43.732 37.54-0.27 0.505-14.121 26.545-2.905-1.106-148.306-18.224-68.205 76.117-26.921-58.583c1.29-13.551 2.389-27.098 3.546-40.646 1.208-13.745 2.15-27.488 3.243-41.233l-0.089-1.492-1.12-28.611-4.096-85.75-0.058-1.321-1.167-3.703q-3.881-12.336-7.851-24.603l58.962 31.014 93.679-49.251-17.428 70.816zM729.511 353.423l-4.301 2.567-42.929-34.949-0.311-53.999-0.017-2.826-51.337-52.514 30.065-99.604 149.736-78.718-51.927 302.763-28.979 17.282zM510.188 765.559l35.912 27.993-8.984 29.768 1.881 2.526 21.132 28.447-48.125 97.516-83.258-168.701 39.564-21.924 41.878 4.376zM217.030 502.081l-28.501 19.842 24.040 11.817-6.574 4.403-16.346 1.239-27.003 81.015-35.465-5.154 4.359-27.317 26.972-50.924-43.172-20.016 75.162-73.267 24.009 14.476 2.519 43.885zM518.939 749.984l-1.28-0.898-2.27-0.683-42.803-12.629-0.447-2.751-6.393-90.388 46.534-55.685-30.249-68.564 22.63-43.762 110.783 49.186 36.082 86.016-24.518-96.625-3.171-1.396-122.88-53.931 65.792-52.224 119.125 25.668 6.24 1.734 11.677 5.693c1.266 2.164 2.54 4.325 3.799 6.485 3.813 6.769 7.588 13.548 11.179 20.395 3.707 6.806 7.079 13.732 10.615 20.599l10.1 20.784 0.532 1.178q9.431 13.844 17.94 28.194c2.843 4.779 5.509 9.656 8.172 14.537 2.557 4.936 5.12 9.858 7.339 14.995l0.727 1.707 53.494 26.525 34.475-7.229 4.588-0.683 14.773 31.218-220.361 32.020-54.924 111.394-52.343 13.79zM97.055 576.082l-0.577 2.751-6.523 31-60.802-8.837 65.157-63.512 15.759 12.786-13.015 25.812z" />
<glyph unicode="&#xe904;" glyph-name="critic_rating_2" horiz-adv-x="1022" d="M744.41 346.935l-5.987 2.884-2.048 3.949-22.395 43.349-155.529-19.941-2.758 3.123-69.376 78.657 77.957-61.396 148.241 41.175 0.28-1.365 34.427 66.901-17.452-82.323 35.84-39.076 3.666-1.761 225.584 219.884-72.946 10.602c-0.683-1.024-1.365-2.028-2.048-3.034-9.458-14.097-19.2-28.023-28.959-41.946-2.389-3.516-4.96-6.915-7.581-10.288l-7.793-10.168c-5.216-6.765-10.332-13.588-15.633-20.306l-15.937-20.139c-5.441-6.639-10.776-13.339-16.343-19.903 2.932 8.093 6.103 16.043 9.168 24.067l9.557 23.839c3.198 7.943 6.588 15.773 9.878 23.668l1.621 3.854-27.382 15.923-51.081-14.476 50.47 29.167 38.991-5.926q7.509 15.636 15.183 31.171l-222.816 32.379-149.21 302.329-84.852-171.93 42.575-24.736 40.537 6.089 41.643 24.235-37.393-34.396-1.546-0.341-39.284-8.311-17.067-104.24 39.595-53.528-54.593 49.084 0.553 3.772 15.36 105.131-41.025 15.701-53.712-108.858-158.273-22.999 17.213-51.589 114.869-29.457-100.499-3.389 8.841-11.865-24.040-11.725 4.71-12.629-19.722 16.377 19.555 9.503-23.579 9.178-7.639-0.256-29.283 80.087-37.765-5.461 4.362-27.307 26.969-50.927-43.172-20.012 155.238-151.32-21.084-122.938 57.556 10.981 84.852 125.826-60.713-158.068-9.687-2.181-79.097-17.9-28.819-168.018 186.982 98.304 8.192 19.456c6.274 14.851 12.82 29.604 19.367 44.373l-0.765-3.359 6.485 28.18c2.191 9.39 4.253 18.794 6.584 28.17l6.827 28.14c2.41 9.366 4.697 18.746 7.226 28.102 0.464-9.68 0.683-19.33 1.024-29.013l0.655-28.952c0.273-9.656 0.273-19.285 0.403-28.925l0.311-28.918v-0.492l-0.768-2.864q-3.871-14.418-7.851-28.802l63.744 33.471 96.464-50.715-20.702 80.729 8.206 4.833 74.752 43.841-44.964-59.412 28.921-94.276 155.754-81.886-52.681 307.149zM110.070 550.27l-13.015 25.812-0.58 2.751-6.519 31-60.805-8.837 65.157-63.512 15.763 12.786z" />
<glyph unicode="&#xe905;" glyph-name="critic_rating_3" horiz-adv-x="1022" d="M512 951.808l149.207-302.329 333.64-48.483-241.422-235.329 56.992-332.291-298.417 156.887-298.417-156.887 56.992 332.291-241.422 235.329 333.64 48.483 149.207 302.329z" />
<glyph unicode="&#xe906;" glyph-name="critic_rating_4" horiz-adv-x="1022" d="M994.85 600.996l-333.64 48.483-149.207 302.329-149.214-302.329-333.636-48.483 241.422-235.329-56.992-332.291 298.421 156.887 298.414-156.887-56.992 332.291 241.425 235.329zM27.563 372.197l88.238-84.671-22.122-126.983 72.257-10.404 30.259 176.425-107.452 104.738-61.181-59.105zM361.728 18.115l36.328-72.96 113.947 58.976 113.94-58.976 36.328 72.96-150.269 79.002-150.275-79.002zM996.434 372.197l-61.177 59.105-107.452-104.738 30.259-176.425 72.26 10.404-22.122 126.983 88.231 84.671zM316.822 697.815l63.645 128.959-57.781 30.109-55.555-110.814-124.723-17.845 9.417-54.388 164.997 23.979zM872.178 673.836l9.414 54.388-124.723 17.845-55.555 110.814-57.777-30.109 63.642-128.959 165.001-23.979z" />
<glyph unicode="&#xe907;" glyph-name="critic_rating_5" horiz-adv-x="1022" d="M994.85 600.996l-333.64 48.483-149.207 302.329-149.214-302.329-333.636-48.483 241.422-235.329-56.992-332.291 298.421 156.887 298.414-156.887-56.992 332.291 241.425 235.329zM998.622 492.513l-33.58-32.73q0.451-10.138 0.461-20.391c0-109.681-38.735-210.313-103.267-288.973l7.008-40.844c81.753 87.412 131.802 204.848 131.802 333.974q0 24.791-2.423 48.964zM509.577-16.534c-0.15 0-0.327 0-0.504 0-56.822 0-111.21 10.418-161.36 29.448l3.127-1.042-32.949-17.323c59.505-25.76 125.14-40.045 194.109-40.045 67.103 0 131.045 13.52 189.263 37.973l-35.256 18.538c-46.372-17.449-99.969-27.549-155.926-27.549-0.177 0-0.354 0-0.531 0h0.028zM53.958 456.093l-29.293 28.549q-1.707-20.32-1.707-41.093c0-125.184 47.043-239.377 124.402-325.881l6.308 36.758c-62.577 78.056-100.011 177.152-100.011 284.966q-0.010 8.393 0.3 16.701zM391.018 879.746l21.033 42.622c-142.251-29.542-261.864-120.873-329.496-244.668l42.090 6.117c60.406 94.935 154.962 166.007 266.373 195.929zM894.904 683.179l47.302-6.874c-69.031 127.317-192.939 220.542-339.988 247.968l21.391-43.349c113.623-29.239 210.094-101.205 271.295-197.745zM847.561 414.655l-65.632-63.976 19.142-111.599 67.553 10.039-10.554 61.532 47.445 46.247-57.955 57.757zM569.757 28.853l36.714 76.046-94.467 49.667-94.471-49.667 36.71-76.046 57.76 30.362 57.754-30.362zM222.932 239.080l19.139 111.599-65.632 63.976-57.952-57.757 47.442-46.247-10.554-61.532 67.557-10.039zM237.001 708.601l9.223-54.979 98.949 14.38 42.701 86.521-56.491 30.362-33.27-67.403-61.112-8.881zM636.126 754.524l42.697-86.521 98.953-14.377 9.223 54.975-61.116 8.881-33.266 67.407-56.491-30.365z" />
<glyph unicode="&#xe908;" glyph-name="date_creation" d="M588.373 800.254h141.995c-0.375 51.675-9.824 122.224 22.501 142.361 14.356 8.943 40.175 6.982 63.625 6.982 89.429 0 70.386-65.065 69.833-149.343 110.162 0.965 90.010-85.245 90.006-189.687v-467.811c0.003-97.901 20.832-193.034-74.486-199.772h-635.867c-80.682 0-188.597-16.787-211.826 42.284-13.708 34.857-5.82 129.447-5.819 177.271v527.549c0 22.458-2.219 49.575 4.267 65.944 13.373 33.739 41.624 44.546 90.008 44.221-0.367 52.116-10.449 125.38 22.89 145.076 14.515 8.576 40.438 6.594 63.625 6.595 89.127 0 69.985-67.565 69.445-151.67h133.847c-0.362 52.592-10.79 128.281 22.89 148.179 14.513 8.576 40.468 6.594 63.625 6.594 89.801 0.001 69.977-70.078 69.444-154.774zM477.42 910.029v-242.438l65.563-0.388 0.389 0.388q-0.195 121.014-0.389 242.052l-0.389 0.388h-65.174zM188.388 907.315q-0.388-121.402-0.776-242.828l65.565-0.389 0.388 0.388q-0.194 121.207-0.388 242.44zM776.148 904.988q-0.195-121.402-0.389-242.828l0.389-0.388 65.178 0.388c0.126 0.129 0.256 0.258 0.386 0.388q-0.195 120.82-0.386 241.664zM180.241 598.931c-14.083-3.092-65.732 4.403-72.16-3.103-7.695-8.984-2.329-118.893-2.328-140.421v-406.135c0.428-7.834-2.744-45.52 4.655-50.039q83.209-0.778 166.434-1.553l568.361 0.389c13.817 0 69.455-2.789 74.1 3.492 6.772 9.151 1.942 219.696 1.942 250.586v259.12c0 15.52 3.034 80.292-3.881 85.337-8.417 6.141-169.093 1.942-195.144 1.939zM571.692 369.292h169.926c0.13-0.259 0.259-0.519 0.389-0.775q-0.195-58.184-0.389-116.371l-169.926-0.389q-0.389-85.135-0.775-170.291h-116.777c-0.13 0.259-0.259 0.519-0.389 0.775v169.516h-169.925q-0.194 58.568-0.388 117.146l170.313 0.778q0.389 85.135 0.778 170.288 58.184-0.195 116.388-0.386c0.126-0.259 0.256-0.519 0.386-0.778q0.195-84.746 0.389-169.513z" />
<glyph unicode="&#xe909;" glyph-name="hot" horiz-adv-x="1022" d="M208.585 651.141c28.419-48.954 34.669-103.301 37.748-159.792 107.452 125.921 203.39 284.426 193.478 456.25 149.975-63.232 229.489-218.037 272.633-366.886 49.265 44.906 41.69 120.402 23.030 178.319 270.947-256.181 293.987-622.694-63.324-809.083 94.737 201.315 27.372 453.782-151.119 586.035 7.509-102.431-15.899-193.72-77.715-274.278 4.779 49.995 0.341 97.789-29.532 143.213-42.704-193.42-193.765-234.042-93.184-456.513-216.405 115.674-305.029 285.099-182.337 513.318 31.153 60.18 60.051 121.658 70.321 189.416z" />
<glyph unicode="&#xe90a;" glyph-name="id" d="M382.293 16.555v864.597l181.589 0.341c66.144-0.614 61.14-2.048 78.165-2.731 46.534-5.675 109.076-27.459 141.653-46.080 172.018-98.324 306.719-301.135 195.243-554.325-48.865-110.985-142.032-190.976-257.707-235.179q-54.779-13.65-109.568-27.307-114.678 0.341-229.376 0.683zM135.168 879.104v-867.669h-129.707v867.328l0.341 0.341h129.365zM515.072 826.539q-7.68-17.579-15.36-35.157v-425.301c0-51.606 2.891-108.687-2.731-155.989-4.181-35.164-2.843-120.31 15.701-134.485 8.223-6.287 28.675-7.141 43.008-5.461 163.052 19.094 289.731 84.398 346.112 209.237 32.331 71.588 47.848 169.107 21.163 259.755-49.258 167.313-190.744 288.072-407.893 287.403z" />
<glyph unicode="&#xe90b;" glyph-name="link" d="M710.055 951.785c139.848 5.828 179.64-64.566 212.893-97.355 37.963-37.432 127.901-102.549 80.35-238.675-76.721-101.021-175.452-253.792-334.725-235.336-30.089 4.639-49.186 24.317-85.35 51.739 0.106 0.546-32.608-28.897-53.548-54.118 71.639-81.821 50.473-135.308 46.589-161.536 7.636-51.248-208.094-289.283-287.998-272.070-101.41-6.745-108.138 32.734-187.176 105.745-51.139 40.957-96.461 96.287-93.755 170.697-5.046 69.308 89.755 154.938 133.457 195.734s68.766 89.405 168.796 99.12c68.952 10.687 140.817-53.654 134.772-52.804 0 0 54.501 54.258 54.869 55.934 0 0-61.887 56.928-53.19 153.358-18.435 57.19 172.698 254.364 264.018 279.566zM741.396 834.575c-36.526-13.538-145.725-116.469-181.040-179.473-1-23.494 13.981-53.907 19.835-54.638 44.080 48.248 78.957 60.88 110.442 28.887s27.112-71.95-23.846-112.33c8.783-16.101 42.8-26.501 65.485-19.18 33.676 26.313 168.335 139.53 168.499 191.518 2.662 27.167-51.978 74.576-64.836 86.656-12.889 12.11-56.538 64.443-94.539 58.559zM282.976 388.939c-24.533-18.405-163.505-146.353-157.23-180.46 10.206-43.899 115.121-145.63 152.877-147.162 59.913 15.37 138.797 117.968 174.353 150.979 19.316 35.069 13.848 63.648-9.032 82.623-19.531-12.278-46.432-77.268-112.742-24.992-37.634 53.388 0.656 78.066 29.131 110.227-12.545 4.099-38.885 29.42-77.357 8.786z" />
<glyph unicode="&#xe90c;" glyph-name="money" d="M538.109 917.481c37.687 0.772 78.64-11.677 102.731-25.775 11.302-6.614 23.064-11.414 33.758-18.514 40.605-26.954 72.308-64.79 92.928-111.811 6.458-14.724 12.411-30.341 16.336-47.919q1.27-13.431 2.543-26.863c1.591-9.698 2.635-27.661-0.365-36.665l-62.799 0.363c-7.922 0-21.623-2.118-27.952 0.726 0.232 14.024 1.881 30.879-0.727 43.926-12.018 60.173-59.078 102.652-111.442 123.065-9.865 3.846-21.156 5.177-32.669 7.26l-12.343 1.089q0.179-170.604 0.362-341.239c22.695-3.014 50.19-15.049 69.697-22.873 72.393-29.020 132.386-71.277 162.263-143.029 7.997-19.203 11.090-40.134 15.247-63.529q0.727-13.978 1.451-27.952c1.731-10.633 1.106-25.62-0.724-35.577-3.731-20.292-8.639-37.612-15.247-54.091-34.413-85.804-117.791-160.171-233.049-164.813q-0.184-17.603-0.362-35.212-24.141 0.179-48.282 0.362v34.85c-46.66-0.099-86.944 14.554-116.886 32.311-8.998 5.335-18.050 9.544-26.501 15.247-43.969 29.682-75.656 73.131-96.557 125.969-9.349 23.634-14.772 56.784-11.616 90.754h91.114c-0.214-15.169-1.472-32.256 1.815-45.377 15.849-63.263 80.436-127.194 158.632-127.42q-0.179 170.056-0.362 340.149-12.16 3.451-24.323 6.898c-20.306 6.308-38.919 12.442-56.989 20.33-72.264 31.546-133.469 74.81-158.27 153.921-10.387 33.133-18.956 88.324-8.712 128.873 5.405 21.395 12.052 42.598 22.143 59.899 7.007 12.013 13.499 24.413 21.417 35.576 31.284 44.103 80.261 79.208 137.577 96.926 14.585 4.508 30.484 6.151 46.828 9.075l20.692 1.452q0.184 19.057 0.365 38.117h35.209c3.389 0 10.732 1.008 12.708-0.726q0.179-18.875 0.362-37.754zM489.465 826.363c-26.74 0.047-50.927-8.016-68.243-18.151-8.513-4.982-17.234-8.616-25.047-14.158-27.972-19.836-47.811-47.692-61.349-82.043-11.639-29.532-6.986-81.067 4.356-107.455 6.732-15.664 17.863-34.536 30.492-44.65 32.584-26.098 73.861-48.705 119.791-60.628v327.084zM538.109 64.744c23.75-0.324 44.431 7.786 60.621 15.609 52.593 25.416 112.712 85.811 95.471 172.797-2.27 11.452-4.506 22.859-8.711 32.672-25.562 59.628-85.439 81.483-147.381 104.916v-325.994z" />
<glyph unicode="&#xe90d;" glyph-name="name" d="M513.935 940.203l5.199-0.347c4.304-2.587 6.588-13.214 8.67-18.029q10.399-23.574 20.804-47.153c-88.723 200.819 272.118-615.072 346.726-783.923 13.063-29.843 26.627-61.798 50.278-80.783 12.032-9.66 26.641-14.756 44.728-18.722 8.137-1.785 21.692-0.485 28.43-4.509 0.096-8.288 2.099-21.965-0.693-28.778-0.232-0.345-0.461-0.693-0.693-1.038l-341.183-0.696c-7.014-0.952-22.934-1.505-27.389 1.389-0.106 6.932-1.113 23.153 1.386 27.737 37.594 1.055 76.032 3.215 90.842 27.389 13.097 21.381 1.249 55.948-6.936 75.24q-37.094 90.655-74.199 181.33h-383.135l-70.040-173.012q-2.253-10.747-4.506-21.494c-6.566-28.269-4.009-47.404 10.402-65.184 11.122-13.722 34.332-18.33 55.13-22.19q13.868-0.517 27.738-1.038c0.116-0.348 0.231-0.696 0.347-1.041 1.59-3.932 0.911-24.777 0-28.085-0.231-0.116-0.462-0.232-0.694-0.345q-108.688 0.343-217.399 0.693h-51.665c-6.236 0-16.024-1.212-20.457 1.038-0.106 7.455-2.843 21.903 0.347 27.392 57.932-0.433 80.244 39.011 101.591 75.585 15.791 9.51 264.483 604.339 359.213 825.181q7.972 18.547 15.947 37.098c1.864 4.338 3.451 13.25 7.284 15.602zM464.698 732.867q-80.43-196.568-160.882-393.176h322.458v0.348q-80.782 196.393-161.576 392.828z" />
<glyph unicode="&#xe90e;" glyph-name="rating_average" d="M356.693 742.571l24.917-29.696q-162.288-132.083-324.608-264.192v-1.365q163.312-134.129 326.656-268.288v-0.341l-26.283-26.283q-175.769 146.929-351.573 293.888 175.428 148.122 350.891 296.277zM670.72 739.84q173.722-144.882 347.477-289.792v-0.683q-175.939-148.977-351.915-297.984-12.457 14.336-24.917 28.672c0.229 0.341 0.454 0.683 0.683 1.024q162.97 132.767 325.973 265.557-162.12 132.767-324.267 265.557zM675.84 627.541l49.493-0.683q-153.416-196.588-306.859-393.216c-0.341 0.113-0.683 0.229-1.024 0.341q-87.204 112.799-174.421 225.621 26.45 0.169 52.907 0.341 61.093-80.548 122.197-161.109h1.024q128.328 164.337 256.683 328.704z" />
<glyph unicode="&#xe90f;" glyph-name="rating_sum" d="M502.665 956.543c346.73 5.075 622.667-342.682 480.372-699.095-60.788-152.252-186.72-263.038-358.632-304.179-29.628-7.089-61.911-8.339-95.416-12.223-76.479-8.871-169.148 20.548-218.565 42.312-200.928 88.487-385.559 346.819-274.027 642.209 58.952 156.133 179.081 266.454 346.412 314.052 25.719 7.316 54.265 10.692 83.664 14.575zM502.665 918.931l-33.84-2.35c-28.692-3.881-56.054-7.119-80.845-14.575-153.502-46.157-265.553-147.851-318.211-294.778-98.485-274.787 71.038-508.279 257.106-590.022 47.657-20.937 128.215-46.978 201.172-38.55 32.355 3.734 63.696 5.349 92.126 12.223 157.822 38.164 269.756 141.274 327.612 279.733 25.173 60.245 42.824 146.292 31.020 230.366-33.092 235.756-208.172 418.946-476.14 417.953zM771.994 678.691l68.154-0.94q-211.256-270.77-422.557-541.6c-0.471 0.157-0.942 0.314-1.41 0.471q-120.081 155.366-240.186 310.76l72.855 0.471q84.127-110.94 168.27-221.904h1.41q176.717 226.345 353.464 452.742z" />
<glyph unicode="&#xe910;" glyph-name="rating_total" d="M909.35 50.664c0.177-25.382 5.536-96.529-8.431-105.619-13.636-8.871-155.689-3.106-185.528-3.106h-500.211c-30.709 0-189.85-5.048-201.505 3.994-12.009 9.318-7.546 42.745-7.545 63.461v179.282q-0.222 239.165-0.444 478.382c0 28.626-4.819 159.556 4.437 171.295 10.094 12.8 78.98 7.27 104.303 7.1-0.182 25.626-5.467 95.009 7.99 105.173 11.13 8.406 143.552 3.55 171.767 3.55l656.443-0.887c20.033 0 53.999 4.574 63.027-7.1 9.813-12.691 4.437-171.527 4.437-203.69v-634.59c0.003-14.404 3.021-37.612-2.662-47.483-9.137-15.875-79.101-9.943-106.080-9.762zM154.373 914.68v-69.228l562.348-0.887c31.512 0 177.391 6.098 187.747-6.656 10.080-12.414 4.884-163.953 4.881-195.702v-551.604h68.796v822.746zM46.075-18.121h823.328v822.746l-823.772 1.331q0.222-411.997 0.444-824.078zM706.959 622.681l64.355-0.887q-199.485-255.586-399.015-511.222c-0.444 0.15-0.887 0.297-1.331 0.444q-113.391 146.652-226.803 293.332 34.394 0.22 68.796 0.444 79.44-104.719 158.895-209.459h1.331q166.871 213.652 333.773 427.35z" />
<glyph unicode="&#xe911;" glyph-name="trash_off" d="M485.85 954.464c78.008 0.741 139.049 1.694 178.046-24.489 24.61-16.523 35.932-44.415 38.301-87.766h169.489q15.616-17.936 31.239-35.874l39.912-0.579 2.314-2.893q-0.287-42.236-0.577-84.48-1.449-1.157-2.895-2.315l-860.177 0.58-2.314 2.888q0.289 42.237 0.579 84.48l2.892 2.315h39.336l28.924 35.874h171.226c3.222 82.73 40.829 102.093 111.642 109.944zM482.737 943.393c-19.050 0.853-32.754-1.468-48.951-2.238-74.131-7.636-96.827-26.692-100.651-98.947h47.434c0.532 14.537 2.707 34.444 11.571 41.083 24.047 14.889 148.381 15.698 209.084 8.192 14.848-2.428 25.962-5.555 30.976-9.348 8.919-6.741 10.837-25.354 11.571-39.926h47.435v0.577c-0.024 25.907-5.898 64.927-35.929 81.104-36.386 27.124-153.487 18.65-172.541 19.503zM482.959 885.606c-39.014-2.919-78.391-3.026-85.569-12.165-3.325-4.233-4.256-12.9-5.83-30.654v-0.579h241.22c-1.734 9.836-0.628 17.683-5.205 29.511-21.996 12.871-60.163 15.31-144.616 13.887zM156.126 830.635l-19.090-23.723 749.69-0.58v1.157q-9.83 11.571-19.668 23.145h-710.932zM90.761 794.761v-67.123h842.824v67.123h-842.826zM164.802 680.189l694.737-0.58 2.314-2.893v-477.954c-2.529-93.976 8.503-152.446-21.466-202.25-14.486-19.306-28.781-37.489-72.823-50.616-44.401-6.38-105.445-4.052-154.45-4.048-116.797 0.010-231.864 0.597-348.913 0.526-35.226 8.011-66.846 29.751-84.196 57.037-10.294 13.37-14.473 30.334-19.23 55.951 0 0-0.020 198.833-0.021 301.37v238.978c-0.001 18.425-4.166 75.719 4.049 84.481zM172.322 668.618v-486.059c4.664-86.371-18.261-153.733 38.179-201.366 14.192-11.53 34.937-23.603 55.533-27.774h296.755c50.903 0 119.091-1.621 170.069-0.591 35.997 2.673 51.299 9.861 69.414 20.842 66.157 43.933 42.8 117.115 48.015 204.261v490.685h-677.965zM475.44 578.35l78.671-1.157c4.85-12.076 2.546-105.284 2.314-127.881q-0.292-179.644-0.58-359.335-1.444-1.157-2.891-2.314l-78.671 1.157q-0.87 187.464-1.737 374.958c0 23.646-2.741 98.47 2.895 114.57zM631.047 578.35l78.671-1.157c4.386-12.308 2.314-105.984 2.314-127.881q-0.292-179.644-0.58-359.335-1.444-1.157-2.891-2.314l-78.671 1.157q-0.87 187.464-1.737 374.958c0 23.646-2.509 99.862 2.895 114.57zM314.625 577.193l78.67-1.157c6.711-10.916 2.314-105.984 2.314-127.881q-0.287-179.645-0.577-359.335-1.449-1.157-2.891-2.314l-78.673 1.157q-0.868 187.464-1.736 374.958c0 23.646-6.224 100.559 2.892 114.57zM484.116 566.779v-467.543h60.737v467.541h-60.737zM639.724 566.779v-467.543h60.737v467.541h-60.737zM323.302 565.622v-467.543h60.739v467.541h-60.739z" />
<glyph unicode="&#xe912;" glyph-name="trash_on" d="M485.85 954.464c122.45 1.594 211.831 4.381 216.347-112.256h169.489q15.616-17.936 31.239-35.874l39.912-0.579 2.314-2.893q-0.287-42.236-0.577-84.48-1.449-1.157-2.895-2.315l-860.177 0.58-2.314 2.888q0.289 42.237 0.579 84.48l2.892 2.315h39.336l28.924 35.874 171.226 0.581c5.12 78.541 33.777 100.495 111.639 109.363q26.035 1.156 52.067 2.315zM482.959 885.606c-40.311-2.547-77.582-4.238-86.388-12.241-3.663-11.387-2.963-10.158-5.011-30.579 18.483-2.054 0-0.386 0-0.579h240.64s-0.345 23.941-4.625 29.511c-19.166 17.67-120.794 14.298-144.616 13.887zM164.803 680.189l694.737-0.58 2.314-2.893v-466.383c0.003-62.723 8.953-146.295-9.834-193.843-14.24-36.041-44.592-60.092-84.456-70.595-31.16-8.209-78.039-4.052-115.692-4.048h-389.309c-35.119 6.98-66.229 30.928-83.299 56.706-33.923 51.227-18.511 268.179-18.511 358.178 0 39.465-4.364 314.486 4.049 323.458zM484.116 566.777v-467.541h60.737v467.541h-60.737zM639.724 566.777v-467.541h60.737v467.541h-60.737zM323.302 565.62v-467.541h60.739v467.541h-60.739z" />
<glyph unicode="&#xe913;" glyph-name="user_rating" d="M844.356 356.925q57.984-0.174 115.982-0.345c17.534 0 43.558 2.451 59.201-0.693q0.691-1.039 1.386-2.079 0.171-0.865 0.345-1.731-110.085-128.287-220.187-256.594-26.312-30.643-52.623-61.29c-3.611-4.54-14.244-20.091-20.081-20.777-10.462 8.107-19.108 21.139-27.351 31.512q-24.924 29.256-49.855 58.522-68.884 80.845-137.789 161.71-27.003 31.683-54.009 63.369c-4.584 5.769-18.65 17.575-19.732 24.934 0.884 1.082 1.044 1.744 2.423 2.423l172.756-0.348q0.174 266.435 0.348 532.924c1.789 2.712 9.445 1.732 13.848 1.732l40.161-0.346 152.675-0.346c6.687 0 14.848 0.552 20.429-0.693 3.697-5.915 1.345-31.651 1.382-41.207q0.174-51.764 0.348-103.537 0.174-193.551 0.345-387.14zM409.173 540.109v-490.677c0-7.011-1.526-30.317 1.731-33.246-2.471-0.952-0.997-6.711-2.423-8.656-2.195-3.089-9.366-2.089-14.541-2.075q-19.9 0.169-39.813 0.345-57.118 0.174-114.248 0.345h-37.737c-6.686 0-14.848-0.55-20.426 0.693-3.667 5.868-1.385 31.703-1.385 41.209q-0.173 51.763-0.346 103.537-0.173 193.725-0.346 387.485h-126.020c-10.258 0-44.356-1.608-50.2 1.731q-0.172 1.736-0.345 3.465l290.469 337.968h2.077c6.871-3.829 20.487-22.855 25.966-29.78q27.867-32.721 55.74-65.447 71.828-84.309 143.674-168.637 21.985-25.795 43.971-51.596c5.96-7.499 15.172-14.333 19.388-23.2-1.198-6.973-32.031-3.809-41.199-3.809z" />
<glyph unicode="&#xe914;" glyph-name="user_rating_down" d="M644.321 338.551q67.277-0.2 134.564-0.403c20.343 0 50.534 2.847 68.687-0.802q0.799-1.208 1.604-2.41 0.205-1.004 0.403-2.010-127.718-148.787-255.468-297.609-30.52-35.543-61.054-71.089c-4.188-5.267-16.524-23.306-23.296-24.098-12.138 9.404-22.17 24.515-31.734 36.547q-28.918 33.935-57.839 67.878-79.928 93.773-159.869 187.563-31.328 36.746-62.661 73.499c-5.318 6.69-21.638 20.384-22.896 28.918 1.026 1.256 1.214 2.024 2.812 2.813q100.208-0.2 200.435-0.403 0.205 309.028 0.403 618.116c2.075 3.146 10.96 2.008 16.067 2.008l46.595-0.402 177.138-0.402c7.759 0 17.227 0.64 23.699-0.803 4.291-6.861 1.56-36.711 1.608-47.795q0.2-60.038 0.403-120.089 0.2-224.491 0.399-449.027z" />
<glyph unicode="&#xe915;" glyph-name="user_rating_up" d="M645.929 559.852v-578.755c0-7.226 1.86-36.949-0.802-39.762-2.656-2.806-12.046-1.625-17.275-1.608q-23.291 0.2-46.592 0.403l-132.154 0.399c-19.326 0-50.125-2.976-67.079 0.806-4.253 6.803-1.608 36.768-1.608 47.793q-0.2 60.037-0.399 120.088-0.2 224.691-0.403 449.43h-146.21c-11.902 0-51.463-1.864-58.243 2.007l-0.402 4.017q168.487 195.978 337.005 391.996h2.41c7.974-4.441 23.77-26.508 30.126-34.541l231.366-271.505q25.503-29.919 51.012-59.845c6.915-8.697 17.606-16.623 22.494-26.907-1.386-8.090-37.161-4.42-47.797-4.42q-77.716 0.205-155.45 0.403z" />
<glyph unicode="&#xe916;" glyph-name="viewed" horiz-adv-x="1022" d="M885.371 922.825c-1.072 0.314-26.624 7.782-61.563 15.36-47.309 10.24-87.296 15.425-118.849 15.425-57.788 0-114.2-18.323-168.752-36.045-56.119-18.227-109.121-35.447-162.441-33.877-34.676 1.024-122.416 29.856-153.296 40.881l-22.804 8.124v-571.58l12.827-3.287c4.547-1.167 111.845-28.556 156.256-28.583h0.177c65.273 0 133.158 23.279 193.051 43.82 48.886 16.763 95.058 32.597 130.348 32.597 45.288 0 92.266-13.080 123.699-24.057 34.56-12.066 58.47-24.323 58.709-24.446l24.893-12.861v574.932zM863.495 729.999c-28.672 9.796-65.14 21.886-76.155 23.893-18.166 3.287-73.711 4.335-73.711 4.335v-168.015s64.826-0.218 85.634-5.42c26.406-6.601 47.531-12.742 64.232-18.142v-167.646c-10.131 4.345-22.938 9.486-37.656 14.64-21.565 7.554-42.807 13.578-63.147 17.91-13.832 3.164-30.591 5.747-47.672 7.201l-1.405 0.096v151.351s-63.795-2.188-84.548-6.506c-21.9-4.553-84.552-29.266-84.552-29.266v-150.583c-56.661-19.425-115.063-38.997-171.264-40.39v162.789s-59.392 6.95-79.131 9.755c-8.762 1.249-37.12 6.178-62.334 10.626v166.683c24.576-6.093 53.859-13.175 63.416-14.711 19.296-3.106 78.049-4.338 78.049-4.338v155.283q3.574-0.096 7.144-0.102c55.832 0 110.828 17.616 164.12 34.925v-157.583s54.613 20.733 73.728 23.846c46.606 7.588 95.386 7.588 95.386 7.588v161.109c54.17-1.707 122.412-18.524 149.866-25.859zM468.651 704.020c-55.296-6.526-95.389-9.759-95.389-9.759v-168.015s60.372 1.236 80.213 4.338c23.252 3.632 91.054 23.846 91.054 23.846v172.353s-56.207-20.442-75.878-22.764zM124.634 936.26h34.133v-980.449h-34.133v980.449z" />
<glyph unicode="&#xe917;" glyph-name="views_off" horiz-adv-x="1022" d="M1014.903 424.52l-504.484-239.080-503.064 239.080 41.356 23.48 462.418-215.6 462.421 215.6 41.353-23.48z" />
<glyph unicode="&#xe918;" glyph-name="views_on" horiz-adv-x="1022" d="M511.13 710.56l-503.774-286.037 503.064-239.080 504.491 239.080zM511.13 249.245c-109.769 0-198.755 88.986-198.755 198.755s88.986 198.755 198.755 198.755 198.755-88.986 198.755-198.755-88.999-198.755-198.755-198.755zM578.068 448c0-36.969-29.97-66.939-66.939-66.939s-66.939 29.97-66.939 66.939c0 36.969 29.97 66.939 66.939 66.939s66.939-29.97 66.939-66.939z" />
</font>
</defs>
</svg>
