<?xml version="1.0" standalone="no"?>
<!DOCTYPE svg PUBLIC "-//W3C//DTD SVG 1.1//EN" "http://www.w3.org/Graphics/SVG/1.1/DTD/svg11.dtd" >
<svg xmlns="http://www.w3.org/2000/svg">
<metadata>Generated by IcoMoon</metadata>
<defs>
<font id="lang" horiz-adv-x="1024">
<font-face units-per-em="1024" ascent="960" descent="-64" />
<missing-glyph horiz-adv-x="1024" />
<glyph unicode="&#x20;" horiz-adv-x="512" d="" />
<glyph unicode="&#xe900;" horiz-adv-x="1365" d="M1365.333-63.985v1023.985l-1365.333-0.015v-1023.985h1365.333z" />
<glyph unicode="&#xe901;" horiz-adv-x="1365" d="M726.236 385.765c0.795 0.267 7.174 2.089 14.174 4.048 41.529 11.622 69.58 23.788 89.478 38.806 10.406 7.854 20.359 19.538 25.731 30.204 2.718 5.398 5.71 14.571 6.929 21.244 1.515 8.297 1.377 23.552-0.3 33.169-2.774 15.906-8.118 31.516-16.868 49.272-5.524 11.21-15.646 28.749-15.993 27.71-0.116-0.349 0.429-3.863 1.213-7.809 5.309-26.739 7.816-51.873 8.274-82.962 0.423-28.725-0.857-47.335-3.58-52.068-2.899-5.037-12.047-12.199-19.767-15.476-7.901-3.353-16.567-3.627-22.571-0.713-7.309 3.547-13.537 12.378-16.478 23.363-0.694 2.594-1.452 4.645-1.683 4.556s-2.050-2.373-4.043-5.078c-26.691-36.233-58.474-51.334-73.733-35.032l-2.893 3.090-5.785-1.932c-3.182-1.063-8.22-2.422-11.196-3.020l-5.411-1.088-3.359-4.070c-8.68-10.518-20.512-17.969-34.813-21.923-6.722-1.858-19.391-2.539-26.359-1.415-10.92 1.761-19.771 6.194-27.057 13.555-6.865 6.935-10.699 15.14-11.713 25.065l-0.427 4.182-3.656-2.548c-4.969-3.462-11.621-6.857-17.179-8.767-3.722-1.279-5.689-1.594-10.116-1.62-6.582-0.039-10.273 0.79-16.64 3.736-7.939 3.673-13.518 9.97-15.529 17.525-1.878 7.052-0.449 16.812 3.739 25.542 2.128 4.436 5.868 10.781 5.868 9.956 0-0.217-0.661-2.937-1.469-6.043-4.403-16.922-1.155-28.586 9.446-33.925 11.108-5.594 31.088-1.703 44.234 8.614 2.857 2.243 3.124 2.671 4.045 6.508 1.204 5.018 4.381 13.197 7.723 19.883 1.924 3.848 2.283 4.976 1.568 4.918-1.488-0.121-9.379 11.626-9.406 14.002-0.019 1.65 2.438 8.806 3.952 11.511 0.36 0.644 1.646-0.789 5.121-5.711 2.552-3.614 5.185-7.058 5.85-7.654 1.117-0.999 1.145-1.209 0.364-2.719-1.768-3.419-0.712-2.27 3.006 3.269 4.194 6.25 7.576 10.808 11.93 16.085 1.545 1.872 2.596 3.602 2.336 3.846s-2.146 1.514-4.192 2.824c-6.456 4.135-13.649 5.582-20.222 4.066-1.394-0.321-2.68-0.44-2.857-0.262-0.577 0.577 2.015 5.149 4.531 7.992 7.999 9.039 24.26 14.86 41.528 14.866 13.581 0.005 23.359-3.798 26.723-10.392 1.039-2.037 1.041-2.2 0.053-4.407-2.016-4.502-6.866-8.174-17.371-13.152-5.67-2.687-5.98-2.918-4.367-3.262 3.757-0.802 13.686 0.346 19.313 2.233 5.194 1.742 11.388 4.805 14.010 6.928l1.232 0.998-0.949 19.929c-1.71 35.915-3.074 50.659-5.072 54.828-1.849 3.858-1.278 9.517 1.888 18.727l2.525 7.343 1.914-3.872c1.053-2.129 3.499-5.917 5.437-8.418 6.193-7.991 6.43-10.562 1.559-16.917l-2.927-3.819 1.211-11.079c1.401-12.825 2.165-24.98 2.696-42.925l0.377-12.755-4.29-5.758c-8.641-11.597-15.056-16.261-27.133-19.725-4.745-1.361-5.59-1.447-8.281-0.845-3.776 0.845-9.127 3.362-13.588 6.392-1.9 1.29-3.743 2.346-4.096 2.346-1.731 0-14.894-10.141-18.513-14.262-2.214-2.521-2.136-2.592 4.339-3.981 3.551-0.762 8.264-1.038 20.249-1.188 8.591-0.108 19.642-0.341 24.558-0.519 23.394-0.846 34.075-6.813 37.394-20.892 1.291-5.478 0.836-17.765-0.895-24.168-0.677-2.505-1.096-4.689-0.93-4.855s2.873 0.514 6.016 1.51l5.714 1.811 0.335 5.357c0.408 6.519 2.457 13.823 5.952 21.213 1.416 2.993 2.669 5.336 2.786 5.207s-0.307-2.578-0.942-5.442c-1.296-5.845-1.755-20.074-0.705-21.841 0.551-0.928 1.041-0.788 5.785 1.647 7.093 3.642 16.14 9.137 23.407 14.215l6.075 4.246 0.322 15.876-1.607 0.327c-0.884 0.18-3.168 0.726-5.076 1.214-10.648 2.723-18.649 10.998-21.472 22.209-0.719 2.853-0.879 5.435-0.666 10.703 0.299 7.366 1.614 12.513 4.851 18.98 1.902 3.801 7.77 12.711 8.133 12.349 0.15-0.15-0.501-2.704-1.447-5.677-3.13-9.837-3.863-14.068-3.843-22.181 0.016-6.517 0.201-7.98 1.383-10.958 2.604-6.561 8.53-10.739 16.573-11.685l3.202-0.376-0.309 4.278c-0.17 2.353-0.457 9.094-0.638 14.981-0.566 18.419-2.273 44.272-4.641 70.292-0.712 7.825-1.151 10.308-2.149 12.149-2.363 4.362-1.349 11.838 3.412 25.166 0.2 0.561 0.904-0.297 1.989-2.425 0.923-1.811 3.633-5.716 6.023-8.678s4.6-6.288 4.913-7.391c0.808-2.85-0.095-5.618-3.22-9.862l-2.639-3.585 0.905-10.207c1.749-19.733 2.771-39.72 3.563-69.651 0.337-12.725 0.484-14.318 1.326-14.315 3.119 0.013 20.717 5.493 22.254 6.929 0.529 0.495-4.44 13.79-8.872 23.737l-2.838 6.369 3.299 5.49c1.814 3.019 3.477 5.49 3.696 5.49 1.136 0 10.221-18.822 14.334-29.696l2.151-5.687 7.182 4.794c9.172 6.123 17.943 14.676 20.69 20.175l1.878 3.76-12.032 0.364c-15.248 0.461-19.633 1.52-23.603 5.698-3.647 3.838-1.778 10.797 5.16 19.208 11.502 13.945 23.885 11.051 31.556-7.375 2.649-6.363 4.855-16.53 4.414-20.342-1.184-10.229-11.025-22.404-27.434-33.939-4-2.812-4.765-3.596-4.508-4.622 1.115-4.442 2.254-13.337 2.598-20.289 0.371-7.492 0.546-8.435 2.247-12.062 7.817-16.675 29.618-19.855 44.058-6.425l3.168 2.946-0.696 15.567c-1.181 26.434-2.999 45.621-8.547 90.197-1.742 14-3.802 30.748-4.578 37.218l-1.41 11.762 4.177 5.723c2.297 3.147 4.363 5.73 4.591 5.738s3.159-3.657 6.514-8.145c21.573-28.863 35.223-61.124 38.455-90.89 0.879-8.091 0.75-24.211-0.253-31.812-5.283-40.022-29.602-72.238-67.454-89.359-17.286-7.819-36.987-12.471-59.538-14.059-10.207-0.719-18.881-0.732-16.777-0.025zM629.91 400.77c9.699 2.048 18.299 5.805 26.28 11.482 4.089 2.908 3.95 3.474-0.877 3.557-3.65 0.063-11.080 2.139-15.621 4.365-7.129 3.495-12.695 9.998-15.117 17.66-1.419 4.488-1.285 16.024 0.255 22.060l1.127 4.414-8.148 0.395c-11.192 0.542-22.217 2.212-27.095 4.103-0.856 0.332-1.014 0.048-1.021-1.839-0.032-8.376-5.41-19.273-13.948-28.261-4.437-4.671-4.635-5.368-3.055-10.746 1.625-5.534 4.323-9.852 9.193-14.713 12.030-12.009 29.163-16.46 48.026-12.476zM722.198 426.883c8.021 2.221 17.15 7.12 26.89 14.433 6.247 4.69 18.253 15.54 21.231 19.186l2.14 2.62-0.837 6.014c-0.79 5.675-2.46 14.226-2.946 15.082-0.122 0.215-2.894-0.87-6.161-2.411-5.479-2.585-15.872-6.396-19.646-7.206l-1.591-0.341v-20.071l-6.53-6.326c-6.934-6.718-13.171-11.447-21.93-16.63-2.961-1.752-5.775-3.427-6.252-3.722-0.679-0.419-0.427-0.665 1.157-1.129 3.449-1.009 9.817-0.788 14.475 0.501zM672.074 431.615c2.21 5.3 3.252 9.983 3.245 14.585-0.018 12.81-10.218 18.23-34.706 18.443l-10.703 0.093-0.168-4.41c-0.429-11.287 4.405-21.837 12.285-26.81 6.208-3.917 12.134-5.404 21.806-5.47l6.733-0.046zM578.651 454.756c2.979 3.947 3.541 5.54 3.48 9.873l-0.050 3.578-1.949-4.050c-2.442-5.072-4.985-12.438-4.294-12.438 0.286 0 1.552 1.367 2.813 3.037zM589.301 478.162c1.211 1.684 1.992 3.057 1.736 3.052-0.561-0.011-6.548-8.295-6.522-9.024 0.019-0.526 0.95 0.636 4.786 5.971zM792.901 544.873c4.647 2.186 0.647 7.061-6.489 7.906-3.902 0.462-5.506-0.083-6.903-2.344-1.876-3.036-1.597-4.289 1.254-5.625 1.937-0.908 3.319-1.102 6.508-0.916 2.227 0.13 4.761 0.571 5.63 0.979z" />
<glyph unicode="&#xe902;" horiz-adv-x="1365" d="M467.299 445.721c-33.664-46.006-9.358-75.927 25.345-78.056 22.876-1.537 70.447 29.448 70.317 65.874l-12.998 6.623c7.279-18.686-0.26-24.599-15.727-37.372-30.544-25.191-92.933-26.965-66.937 42.931z" />
<glyph unicode="&#xe903;" horiz-adv-x="1365" d="M734.139 325.090c189.504-4.849 249.813 162.025 132.835 304.89l-11.568-15.729c7.539-66.584 18.457-132.221 19.496-200.461-22.876-24.481-56.15-15.375-62.778 11.827 0.39 36.899-12.868 68.121-29.634 97.924l-9.358-15.729c10.918-24.481 22.746-52.037 25.215-82.195-54.070-59.015-113.859-70.96-91.633 6.623-42.762-68.003 21.966-115.901 95.272-11.235 15.727-71.433 76.556-27.083 80.195-11.708 6.629 46.833 3.249 122.287-10.138 181.893 52.77-83.141 54.59-143.102 26.515-183.194-31.194-44.586-99.042-65.401-164.419-82.905z" />
<glyph unicode="&#xe904;" horiz-adv-x="1365" d="M841.629 513.724c-40.552-2.72-61.349 4.849-39.383 32.168 21.706 26.728 41.982 5.44 47.441-30.276 5.069-33.469-71.227-76.163-97.612-76.163-39.903 0-58.359 46.715-21.576 88.699-47.311-122.524 102.161-51.446 111.129-14.428zM813.554 542.108c-4.939 0.236-8.578-7.687-6.109-9.225 7.149-4.494 18.456-1.774 19.626 0.473 2.469 4.967-6.629 8.515-13.517 8.752z" />
<glyph unicode="&#xe905;" horiz-adv-x="1365" d="M621.45 455.892c-38.993-69.777-0.13-98.634 49.911-90.592 29.115 4.849 66.028 23.653 87.344 49.317 0.39 56.531-0.52 112.589-5.979 167.346 19.496 21.17-1.69 21.051-9.098 43.758-3.379-13.246-11.568-27.556-3.639-37.845 5.589-55.23 8.708-111.17 8.578-168.174-39.253-28.739-68.757-39.383-89.813-39.146-43.542 0.355-52.9 33.706-37.303 75.335z" />
<glyph unicode="&#xe906;" horiz-adv-x="1365" d="M701.125 437.443c-0.65 52.628-1.56 112.353-6.759 149.134 20.276 20.46-1.040 20.933-7.669 43.877-3.899-13.009-12.478-27.201-4.939-37.727 3.379-56.295 6.629-112.589 7.279-168.884 4.679 2.72 10.008 3.784 12.088 13.601z" />
<glyph unicode="&#xe907;" horiz-adv-x="1365" d="M549.834 439.926c-4.939 5.677-8.448 12.063-12.478 17.622-0.65 7.924 5.199 15.256 5.979 19.277 6.629-9.343 10.528-16.439 15.857-21.051zM566.211 452.108c9.748-3.548 21.706-3.548 32.754-3.785 42.632-0.71 87.474 5.677 82.665-46.833-4.159-46.597-46.661-73.562-84.744-73.207-54.2 0.473-100.471 54.875-16.897 155.047 8.059 1.183 18.587-0.828 27.295-1.537 14.947-1.064 30.284 0.237 47.831 13.009-2.080 32.996-2.080 64.218-6.499 94.022-7.539 10.526 1.040 24.599 4.939 37.727 6.629-22.944 27.815-23.417 7.669-43.995 4.809-33.115 5.329-66.82 5.329-86.926-10.138-14.074-18.067-28.975-47.701-34.652-30.284 4.021-43.932 42.576-75.516 29.803 8.708 34.77 88.903 42.694 96.962 15.256-5.329-28.62-80.195-17.149-100.081-109.633-6.109-28.502 26.905-54.757 60.829-52.628 33.144 2.011 68.497 22.944 72.007 58.187 2.729 29.448-42.892 26.019-61.998 25.664-27.815-0.591-45.362 3.312-55.89 8.87z" />
<glyph unicode="&#xe908;" horiz-adv-x="1365" d="M625.999 598.048c4.679-9.461 6.629-15.729 6.889-24.836-2.86-12.3-14.427-23.771-26.385-24.126-7.409-0.237-15.727 1.656-21.576 12.181-0.65 1.301-3.769 4.376-6.759 2.957-13.128-19.632-22.876-27.911-34.704-27.793-23.656 0.355-16.637 19.514-38.473 25.427-9.098 0.237-24.045-8.16-31.714-24.599-29.115-75.099-55.63 0.237-44.322 35.243 1.69-33.469 10.528-53.338 19.626-52.747 6.629 0.591 12.478 14.547 20.926 29.212 6.499 11.235 22.096 31.459 38.603 31.459 15.077-0.355 5.589-25.545 35.743-25.191 14.557 0.236 27.945 10.407 41.462 30.749 2.989 0.473 3.769-4.376 4.419-6.032 2.080-6.978 15.337-26.137 33.274-8.633-0.91 3.784-0.52 10.053-5.069 11.354z" />
<glyph unicode="&#xe909;" horiz-adv-x="1365" d="M720.752 660.256c-15.987-7.214-27.685-0.591-34.314 5.795 11.568 2.129 20.536 5.913 23.136 14.192-5.199 10.644-17.547 15.256-34.963 15.375-23.266-0.591-35.223-9.107-36.653-20.815 10.788-0.355 20.536 2.365 24.695-7.096-19.106-8.515-41.592-11.59-66.028-11.472-40.033-1.892-45.881 14.547-56.409 28.975-0.78 0.946-4.289 2.484-6.109 2.247-12.348 0-21.446-39.264-35.353-39.146-13.907 1.656-10.788 25.309-14.817 38.791-3.379-21.17 4.289-99.935 47.311-14.428 1.3 2.838 3.119 2.011 4.289-0.355 11.568-23.89 35.093-32.168 60.439-33.351 21.186-1.064 48.221 7.332 77.205 22.234 7.669-7.687 13.777-16.439 29.894-18.095 18.846-0.828 38.993 11.59 43.542 26.965 2.34 7.924 2.73 23.535-6.499 23.771-12.868 0.355-22.226-28.029-19.236-53.575 0.26 0.355 1.69 6.386 1.69 6.386zM665.642 680.716c8.448 3.548 16.637 5.204 23.136-2.602-5.069-1.656-8.188-2.72-10.918-4.731-3.639 2.602-8.578 3.903-12.218 7.332zM727.77 663.094c2.080 8.397 3.249 15.138 10.788 19.514 1.56-8.87 1.82-13.837-10.788-19.514z" />
<glyph unicode="&#xe90a;" horiz-adv-x="1365" d="M778.461 650.085c-2.47 7.214-4.939 13.482-5.719 21.288-1.82 15.848 13.128 24.836 26.645 23.535 13.907-1.301 23.136-6.032 36.393-10.171 10.398-3.193 24.435-5.677 37.823-9.106 7.539-3.075 0-11.117-1.95-12.181-33.534-11.945-57.319-30.867-78.635-31.695-12.738-0.591-24.045 6.978-34.314 22.471-0.65 30.040-1.82 65.283-5.069 87.399 4.939 4.494 5.979 7.806 8.318 11.472 2.6-29.212 3.639-59.961 4.289-90.947 2.729-5.322 6.109-9.816 12.218-12.063z" />
<glyph unicode="&#xe90b;" horiz-adv-x="1365" d="M782.36 633.055l2.47-10.999h1.95l-0.78 10.289z" />
<glyph unicode="&#xe90c;" horiz-adv-x="1365" d="M496.284 518.1l9.098 8.515 10.528-8.16-9.748-7.924z" />
<glyph unicode="&#xe90d;" horiz-adv-x="1365" d="M519.419 520.939l9.228 8.515 10.528-8.16-9.748-7.924z" />
<glyph unicode="&#xe90e;" horiz-adv-x="1365" d="M455.082 609.165l9.228 8.515 10.528-8.16-9.748-7.924z" />
<glyph unicode="&#xe90f;" horiz-adv-x="1365" d="M459.241 584.093l9.228 8.515 10.398-8.16-9.748-7.924z" />
<glyph unicode="&#xe910;" horiz-adv-x="1365" d="M626.259 542.108l8.448 6.268 7.799-7.687-8.838-5.677z" />
<glyph unicode="&#xe911;" horiz-adv-x="1365" d="M514.74 702.595l5.979 5.559 6.889-5.322-6.369-5.204z" />
<glyph unicode="&#xe912;" horiz-adv-x="1365" d="M529.947 704.369l5.979 5.677 6.889-5.44-6.369-5.085z" />
<glyph unicode="&#xe913;" horiz-adv-x="1365" d="M849.168 640.86l-5.719-4.376-5.459 5.086 5.979 4.021z" />
<glyph unicode="&#xe914;" horiz-adv-x="1365" d="M580.118 483.921l-0.65-9.343 16.377-1.419 13.128 8.988z" />
<glyph unicode="&#xe915;" horiz-adv-x="1365" d="M718.542 658.482l4.809 0.946-0.52-12.181-2.989-1.064z" />
<glyph unicode="&#xe916;" horiz-adv-x="1365" d="M682.667 168.107c184.513 0 334.637 136.597 334.637 304.461 0 92.366-45.29 174.782-116.578 230.493 42.771-45.791 68.769-106.077 68.769-171.708 0-145.785-128.321-264.051-286.828-264.051-158.514 0-286.836 118.266-286.836 264.051 0 65.63 25.998 125.916 68.769 171.708-71.288-55.711-116.578-138.127-116.578-230.493 0-167.864 150.132-304.461 334.644-304.461z" />
<glyph unicode="&#xe917;" horiz-adv-x="1365" d="M793.005 646.976c22.068 0 51.765 17.794 53.303 20.495-16.63 3.9-37.855 19.227-57.716 17.021-8.711-2.607-4.414-33.102 4.414-37.515z" />
<glyph unicode="&#xe918;" horiz-adv-x="1365" d="M583.627 500.242c6.62-4.414 8.847-7.018 15.467-9.225 3.294 4.485 8.542 7.419 12.998 9.58-6.662 7.352-24.993 4.059-28.465-0.355z" />
<glyph unicode="&#xe919;" horiz-adv-x="1365" d="M0 960h1365.333v-1024h-1365.333v1024z" />
<glyph unicode="&#xe91a;" horiz-adv-x="1365" d="M341.333 960h682.667v-1024h-682.667v1024z" />
<glyph unicode="&#xe91b;" horiz-adv-x="1365" d="M678.188 688.46l-39.24-73.188c-4.453-7.954-12.431-7.217-20.408-2.774l-28.409 14.711 21.174-112.416c4.453-20.538-9.833-20.538-16.884-11.658l-49.579 55.503-8.049-28.186c-0.928-3.701-5.009-7.589-11.132-6.663l-62.694 13.182 16.467-59.867c3.525-13.321 6.275-18.837-3.559-22.35l-22.346-10.502 107.923-87.663c4.272-3.315 6.43-9.28 4.909-14.68l-9.446-30.997c37.159 4.283 70.455 10.728 107.633 14.697 3.282 0.35 8.777-5.066 8.754-8.87l-4.924-113.562h18.067l-2.844 113.319c-0.023 3.803 4.962 9.463 8.244 9.113 37.178-3.969 70.474-10.413 107.633-14.697l-9.445 30.997c-1.521 5.401 0.637 11.366 4.909 14.68l107.923 87.663-22.346 10.502c-9.834 3.513-7.084 9.029-3.559 22.35l16.467 59.867-62.694-13.182c-6.123-0.926-10.204 2.962-11.132 6.663l-8.049 28.186-49.579-55.503c-7.050-8.88-21.336-8.88-16.884 11.658l21.174 112.416-28.409-14.711c-7.978-4.443-15.956-5.181-20.408 2.774z" />
<glyph unicode="&#xe91c;" horiz-adv-x="1365" d="M0 959.998h1365.335v-1024.001h-1365.335v1024.001z" />
<glyph unicode="&#xe91d;" horiz-adv-x="1365" d="M0 959.998h1365.335v-512.001h-1365.335v512.001z" />
<glyph unicode="&#xe91e;" horiz-adv-x="1365" d="M682.667 447.997l-682.667 512.001v-1024.001z" />
<glyph unicode="&#xe91f;" horiz-adv-x="1365" d="M0 960h1365.333v-1024h-1365.333v1024z" />
<glyph unicode="&#xe920;" horiz-adv-x="1365" d="M0 618.667h1365.333v-682.667h-1365.333v682.667z" />
<glyph unicode="&#xe921;" horiz-adv-x="1365" d="M0 277.333h1365.333v-341.333h-1365.333v341.333z" />
<glyph unicode="&#xe922;" horiz-adv-x="1365" d="M0 960v-1024h1365.333v1024h-1365.333z" />
<glyph unicode="&#xe923;" horiz-adv-x="1365" d="M0 960l1365.333-1024zM1365.333 960l-1365.333-1024z" />
<glyph unicode="&#xe924;" horiz-adv-x="1365" d="M1315.157-130.901l-632.491 474.385-632.491-474.385-100.352 133.803 593.51 445.099-593.51 445.099 100.352 133.803 632.491-474.385 632.491 474.385 100.352-133.803-593.51-445.099 593.51-445.099z" />
<glyph unicode="&#xe925;" horiz-adv-x="1365" d="M1365.333 960l-1365.333-1024zM0 960l1365.333-1024z" />
<glyph unicode="&#xe926;" horiz-adv-x="1365" d="M1334.613 1000.96l-651.947-488.96-651.947 488.96-61.44-81.92 628.053-471.040-628.053-471.040 61.44-81.92 651.947 488.96 651.947-488.96 61.44 81.92-628.053 471.040 628.053 471.040z" />
<glyph unicode="&#xe927;" horiz-adv-x="1365" d="M1396.053 919.040l-61.44 81.92-651.947-488.96-651.947 488.96-61.44-81.92 628.053-471.040-628.053-471.040 61.44-81.92 651.947 488.96 651.947-488.96 61.44 81.92-628.053 471.040z" />
<glyph unicode="&#xe928;" horiz-adv-x="1365" d="M821.999-64h-278.665v372.668h-543.334v278.665h543.334v372.668h278.665v-372.668h543.334v-278.665h-543.334z" />
<glyph unicode="&#xe929;" horiz-adv-x="1365" d="M682.667 960v-1024zM0 448h1365.333z" />
<glyph unicode="&#xe92a;" horiz-adv-x="1365" d="M766.259-64h-167.185v428.407h-599.074v167.185h599.074v428.407h167.185v-428.407h599.074v-167.185h-599.074z" />
<glyph unicode="&#xe92b;" horiz-adv-x="1365" d="M0 960h1365.333v-1024h-1365.333v1024z" />
<glyph unicode="&#xe92c;" horiz-adv-x="1365" d="M0 704h1365.333v-512h-1365.333v512z" />
<glyph unicode="&#xe92d;" horiz-adv-x="1365" d="M173.193 524.698c0 0-1.126 0-1.775 0.341-0.58 0.341-2.458 2.116-2.458 2.116l-1.502 1.092-1.365 1.877c0 0-1.604 2.594-0.887 4.608 0.751 1.98 1.98 2.697 3.14 3.311 1.092 0.58 3.482 1.297 3.482 1.297s1.877 0.819 2.492 0.922c0.614 0.137 2.867 0.717 2.867 0.717s0.614 0.341 1.229 0.58c0.649 0.205 1.502 0.205 1.98 0.341 0.512 0.137 1.775 0.512 2.526 0.58 1.161 0.034 2.97-0.205 3.618-0.205 0.614 0 2.731-0.102 3.618-0.102 0.853 0 3.959 0.205 4.847 0.205s1.502 0.137 2.492 0c0.99-0.102 2.731-0.683 3.243-0.922 0.512-0.205 3.482-1.331 4.608-1.638 1.092-0.341 3.823-0.819 5.086-1.399 1.229-0.58 1.98-1.57 2.628-2.423 0.614-0.819 0.751-1.707 0.99-2.321 0.205-0.58 0.239-1.843 0-2.423s-1.126-1.809-1.126-1.809l-1.365-2.253-1.775-1.399c0 0-1.229-1.195-2.219-1.058-1.024 0.102-11.093 1.877-17.579 1.877s-16.794-1.911-16.794-1.911z" />
<glyph unicode="&#xe92e;" horiz-adv-x="1365" d="M207.701 524.425c-0.068 0-0.137 0-0.205 0-0.171 0.034-0.649 0.102-1.331 0.205-3.277 0.512-10.889 1.707-16.179 1.707-6.383 0-16.657-1.877-16.759-1.877 0 0-0.034 0-0.068 0s-1.195 0-1.911 0.375c-0.614 0.341-2.321 1.98-2.526 2.15l-1.468 1.058c-0.034 0.034-0.034 0.034-0.068 0.068l-1.365 1.877c-0.068 0.137-1.673 2.765-0.922 4.881 0.751 2.014 2.048 2.833 3.277 3.447 1.126 0.58 3.413 1.297 3.516 1.331 0.034 0.034 1.877 0.819 2.526 0.922 0.546 0.102 2.526 0.649 2.799 0.717 0.137 0.068 0.683 0.341 1.229 0.58 0.41 0.137 0.887 0.205 1.297 0.239 0.273 0.034 0.546 0.068 0.717 0.102 0.102 0.034 0.239 0.068 0.375 0.102 0.614 0.171 1.57 0.444 2.185 0.478 0.717 0.034 1.707-0.068 2.492-0.137 0.478-0.034 0.887-0.068 1.126-0.068 0.273 0 0.887-0.034 1.536-0.034 0.751-0.034 1.604-0.068 2.082-0.068 0.41 0 1.399 0.068 2.389 0.102 0.99 0.068 2.014 0.102 2.458 0.102 0.307 0 0.546 0 0.819 0.034 0.512 0.034 1.024 0.068 1.707-0.034 0.99-0.102 2.765-0.683 3.311-0.956 0.512-0.205 3.482-1.297 4.574-1.638 0.41-0.137 1.024-0.273 1.673-0.41 1.229-0.273 2.628-0.614 3.447-0.99 1.297-0.614 2.082-1.638 2.697-2.492 0.478-0.649 0.683-1.297 0.853-1.843 0.068-0.205 0.137-0.41 0.171-0.546 0.239-0.614 0.273-1.98 0-2.628-0.239-0.614-1.126-1.809-1.161-1.877l-1.365-2.219c-0.034-0.034-0.034-0.068-0.068-0.068l-1.775-1.399c0.102-0.102-1.024-1.195-2.082-1.195zM189.986 526.882c5.359 0 13.005-1.195 16.282-1.707 0.649-0.102 1.161-0.171 1.331-0.205 0.683-0.102 1.673 0.683 1.98 0.99l1.741 1.399 1.331 2.219c0.034 0.034 0.887 1.195 1.092 1.775 0.205 0.478 0.205 1.673 0 2.219-0.068 0.171-0.137 0.375-0.205 0.58-0.171 0.512-0.341 1.092-0.751 1.638-0.649 0.853-1.365 1.775-2.526 2.321-0.785 0.375-2.185 0.683-3.345 0.956-0.683 0.171-1.297 0.307-1.707 0.444-1.161 0.341-4.13 1.434-4.642 1.673s-2.219 0.785-3.14 0.887c-0.649 0.068-1.092 0.068-1.604 0.034-0.273 0-0.546-0.034-0.853-0.034-0.444 0-1.468-0.068-2.423-0.102-1.024-0.068-1.98-0.102-2.423-0.102-0.478 0-1.331 0.034-2.116 0.068-0.649 0.034-1.229 0.034-1.502 0.034s-0.683 0.034-1.195 0.102c-0.785 0.068-1.741 0.171-2.423 0.137-0.546-0.034-1.468-0.273-2.048-0.444-0.171-0.034-0.273-0.068-0.41-0.102-0.205-0.068-0.512-0.102-0.785-0.137-0.375-0.034-0.819-0.102-1.161-0.205-0.58-0.239-1.195-0.546-1.195-0.546-0.034 0-0.034-0.034-0.068-0.034-0.102-0.034-2.253-0.614-2.867-0.717-0.478-0.102-1.911-0.683-2.423-0.922-0.068-0.034-2.389-0.751-3.447-1.297-1.195-0.614-2.287-1.331-3.004-3.14-0.683-1.843 0.853-4.335 0.853-4.335l1.331-1.809 1.468-1.058c0 0 0.034 0 0.034-0.034 0.512-0.478 1.946-1.809 2.423-2.082 0.512-0.273 1.434-0.307 1.604-0.307 0.546 0.068 10.513 1.843 16.794 1.843z" />
<glyph unicode="&#xe92f;" horiz-adv-x="1365" d="M191.863 544.017h-3.789v1.946h1.024v2.219h-1.365v1.946h1.365v1.263h1.98v-1.263h1.365v-1.946h-1.365v-2.219h0.478v-0.341h0.341v-1.604zM188.723 544.666h2.492v0.649h-0.785v3.516h1.365v0.614h-1.365v1.263h-0.649v-1.263h-1.365v-0.614h1.365v-3.55h-1.024v-0.614z" />
<glyph unicode="&#xe930;" horiz-adv-x="1365" d="M193.263 544.017h-6.246v1.946h2.082v2.219h-1.365v1.946h1.365v1.263h1.98v-1.263h1.365v-1.946h-1.365v-2.219h1.877v-0.341h0.341v-1.604zM187.699 544.666h4.915v0.649h-2.219v3.516h1.365v0.614h-1.365v1.263h-0.649v-1.263h-1.365v-0.614h1.365v-3.55h-2.082v-0.614z" />
<glyph unicode="&#xe931;" horiz-adv-x="1365" d="M190.123 525.073h-10.581l-0.273 2.594-0.512 2.697-0.512 3.379c-2.901 3.857-5.598 6.383-6.485 5.837 0.205 0.717 0.478 1.229 1.024 1.57 2.594 1.536 7.919-2.15 11.981-8.226 0.341-0.546 0.717-1.092 1.024-1.638h8.738c0.307 0.546 0.649 1.092 1.024 1.638 4.028 6.076 9.387 9.762 11.947 8.226 0.58-0.341 0.819-0.853 1.024-1.57-0.887 0.512-3.55-1.98-6.485-5.837l-0.512-3.379-0.512-2.697-0.205-2.594h-10.684z" />
<glyph unicode="&#xe932;" horiz-adv-x="1365" d="M201.011 524.766h-21.743l-0.307 2.867-0.512 2.697-0.512 3.311c-3.55 4.676-5.598 5.973-6.076 5.7l-0.649-0.41 0.239 0.717c0.205 0.649 0.478 1.331 1.161 1.707 2.731 1.638 8.158-2.014 12.356-8.329 0.307-0.512 0.649-1.024 0.956-1.536h8.397c0.307 0.512 0.614 1.024 0.922 1.536 4.198 6.315 9.591 9.967 12.356 8.329 0.649-0.375 0.922-0.922 1.161-1.707l0.239-0.717-0.649 0.375c-0.478 0.307-2.697-1.263-6.076-5.7l-0.512-3.311-0.512-2.731-0.239-2.799zM179.814 525.346h20.719l0.205 2.321 0.512 2.731 0.546 3.447 0.034 0.068c1.092 1.434 4.506 5.734 6.315 6.007-0.171 0.444-0.375 0.751-0.751 0.99-2.389 1.434-7.68-2.287-11.571-8.158-0.341-0.546-0.683-1.092-0.99-1.638l-0.068-0.137h-9.079l-0.068 0.137c-0.307 0.546-0.649 1.092-0.99 1.638-3.959 5.939-9.148 9.591-11.605 8.158-0.375-0.205-0.58-0.546-0.751-0.956 1.809-0.239 5.222-4.574 6.315-6.007l0.034-0.068 0.546-3.447 0.512-2.697 0.137-2.389z" />
<glyph unicode="&#xe933;" horiz-adv-x="1365" d="M205.756 518.383l-0.785 0.205c-4.847 1.331-9.865 1.911-14.882 1.809-6.007 0-11.878-0.751-15.019-1.877v0.034l-0.102-0.034-0.034 0.273h-0.239c-0.034 0.102-0.205 0.614-0.375 1.058l-0.137 0.375h0.034c-0.41 1.195-1.229 2.287-1.229 2.287l-0.239 0.341 0.41 0.102c5.53 1.468 11.23 2.15 16.964 2.082 6.315 0 12.493-0.751 16.998-2.082l0.341-0.102-1.331-2.321c-0.273-0.512-0.649-1.297-0.751-1.604l0.375-0.546zM174.729 520.363l0.137-0.375c0.137-0.41 0.239-0.649 0.307-0.853 3.243 1.092 9.045 1.809 14.916 1.809 4.983 0.137 9.967-0.478 14.814-1.741 0.205 0.614 0.751 1.57 0.751 1.57l0.956 1.673c-4.437 1.229-10.411 1.946-16.486 1.946-5.53 0.068-11.059-0.58-16.418-1.946 0.239-0.41 0.751-1.195 1.024-2.082v0z" />
<glyph unicode="&#xe934;" horiz-adv-x="1365" d="M190.089 514.526v0c-5.291 0.034-11.264 0.819-13.517 1.399-1.707 0.478-2.56 1.297-2.355 2.185 0.068 0.41 0.444 0.819 0.956 1.024 3.345 1.092 9.216 1.775 14.916 1.775 5.666 0 11.503-0.683 14.848-1.775 0.546-0.205 0.887-0.614 0.99-1.024 0.171-0.887-0.649-1.673-2.355-2.185-2.287-0.58-8.294-1.399-13.483-1.399zM190.123 520.363c-5.666 0-11.469-0.683-14.746-1.741-0.307-0.137-0.546-0.375-0.614-0.614-0.137-0.58 0.58-1.126 1.946-1.536 2.219-0.546 8.124-1.365 13.38-1.365 5.154 0 11.059 0.785 13.346 1.365 1.331 0.41 2.048 0.956 1.946 1.502-0.068 0.239-0.307 0.478-0.649 0.614-3.243 1.092-9.011 1.775-14.609 1.775z" />
<glyph unicode="&#xe935;" horiz-adv-x="1365" d="M207.292 525.073l-1.331 1.161c0 0-1.229-0.751-2.799-0.512-1.536 0.239-2.048 2.15-2.048 2.15s-1.775-1.468-3.174-1.365c-0.922 0.137-1.775 0.614-2.355 1.365 0 0-1.536-1.092-2.935-1.024-1.365 0.137-2.662 1.843-2.662 1.843s-1.399-1.775-2.765-1.877c-1.365-0.102-2.492 1.195-2.492 1.195s-0.614-1.297-2.355-1.57c-1.775-0.273-3.243 1.365-3.243 1.365s-0.99-1.604-2.185-2.014c-1.161-0.41-2.731 0.58-2.731 0.58l-0.444-0.956c-0.205-0.341-0.683-0.41-0.683-0.41l0.41-1.024c4.233 1.229 10.035 1.98 16.589 1.98s12.493-0.751 16.759-1.98l0.444 1.092z" />
<glyph unicode="&#xe936;" horiz-adv-x="1365" d="M207.053 523.537l-0.239 0.068c-4.403 1.263-10.308 1.98-16.691 1.98-6.246 0-12.117-0.683-16.486-1.98l-0.239-0.068-0.614 1.604 0.341 0.034c0.102 0 0.375 0.102 0.478 0.273l0.58 1.229 0.273-0.171c0 0 1.468-0.922 2.492-0.58 1.058 0.375 2.014 1.877 2.014 1.911l0.205 0.341 0.239-0.273c0 0 1.399-1.536 2.97-1.263s2.116 1.365 2.15 1.434l0.205 0.375 0.273-0.341c0 0 1.058-1.195 2.253-1.092 1.229 0.102 2.526 1.775 2.56 1.775l0.239 0.273 0.239-0.307c0 0 1.229-1.604 2.458-1.707 1.263-0.068 2.731 0.956 2.731 0.956l0.205 0.171 0.171-0.205c0.546-0.683 1.331-1.126 2.185-1.263 1.263-0.102 2.935 1.297 2.935 1.297l0.341 0.273 0.102-0.444c0-0.034 0.478-1.707 1.809-1.911 1.434-0.205 2.594 0.478 2.594 0.478l0.171 0.102 1.399-1.229h0.341l-0.683-1.741zM173.5 524.732l0.205-0.512c4.403 1.229 10.206 1.911 16.418 1.911 6.281 0 12.151-0.683 16.589-1.911l0.273 0.717-1.024 0.922c-0.41-0.205-1.502-0.649-2.799-0.478-1.263 0.205-1.877 1.331-2.15 1.946-0.58-0.444-1.911-1.263-3.038-1.195-0.922 0.137-1.775 0.58-2.389 1.263-0.478-0.307-1.707-0.99-2.901-0.922-1.126 0.102-2.185 1.161-2.662 1.673-0.478-0.512-1.57-1.638-2.731-1.741-1.092-0.102-2.014 0.614-2.458 1.024-0.307-0.444-1.058-1.195-2.355-1.399-1.468-0.239-2.731 0.717-3.243 1.195-0.375-0.512-1.161-1.502-2.116-1.843-0.99-0.341-2.15 0.171-2.697 0.478l-0.307-0.649c-0.171-0.239-0.41-0.375-0.614-0.478z" />
<glyph unicode="&#xe937;" horiz-adv-x="1365" d="M190.123 530.739l0.614-0.102c-0.41-1.263 0.273-2.628 1.536-3.038 0.273-0.068 0.546-0.137 0.819-0.102 1.092 0 2.014 0.649 2.321 1.604 0.034-0.034 0.205 0.853 0.341 0.853 0.068 0 0.068-0.887 0.102-0.887 0.171-1.161 1.195-1.98 2.423-1.98 1.365 0 2.423 1.024 2.423 2.321v0.273l0.785 0.785 0.444-0.956c-0.171-0.307-0.239-0.649-0.239-1.024 0-1.229 1.024-2.219 2.321-2.219 0.819 0 1.536 0.375 1.946 0.956l0.512 0.649v-0.785c0-0.785 0.341-1.468 1.092-1.57 0 0 0.853-0.068 1.98 0.853s1.775 1.638 1.775 1.638l0.068-0.922c0 0-1.092-1.843-2.15-2.423-0.546-0.341-1.399-0.649-2.082-0.546-0.717 0.102-1.195 0.649-1.468 1.331-0.512-0.273-1.092-0.478-1.775-0.478-1.399 0-2.628 0.785-3.14 1.877-1.365-1.434-3.618-1.502-5.052-0.137-0.102 0.102-0.205 0.205-0.273 0.307-1.468-1.331-3.721-1.229-5.086 0.239-0.102 0.102-0.205 0.239-0.273 0.341-1.126-1.604-3.345-1.98-4.983-0.853-0.137 0.102-0.239 0.171-0.341 0.273-1.263-1.502-3.55-1.707-5.052-0.444-0.102 0.068-0.171 0.171-0.273 0.239-0.478-1.092-1.741-1.877-3.14-1.877-0.649 0-1.229 0.171-1.775 0.478-0.239-0.649-0.751-1.229-1.468-1.331-0.649-0.137-1.536 0.205-2.082 0.546-1.024 0.58-2.253 2.423-2.253 2.423l0.171 0.922c0 0 0.649-0.751 1.775-1.638 1.161-0.887 2.014-0.853 2.014-0.853 0.751 0.137 1.092 0.819 1.092 1.57v0.785l0.478-0.649c0.41-0.58 1.126-0.99 1.946-0.99 1.297 0 2.321 0.99 2.321 2.219 0 0.341-0.068 0.683-0.205 1.024l0.444 0.956 0.751-0.785-0.034-0.273c0-1.297 1.092-2.321 2.458-2.321 1.195 0 2.253 0.819 2.423 1.98 0.034-0.034 0.034 0.887 0.102 0.887 0.102 0 0.307-0.887 0.341-0.853 0.307-0.922 1.229-1.604 2.321-1.604 1.331-0.034 2.423 1.024 2.458 2.355 0 0.273-0.034 0.546-0.102 0.819l0.649 0.137z" />
<glyph unicode="&#xe938;" horiz-adv-x="1365" d="M172.749 523.81c-0.785 0-1.638 0.478-1.911 0.614-1.092 0.58-2.287 2.423-2.321 2.526l-0.068 0.102 0.273 1.638 0.41-0.444c0 0 0.649-0.751 1.741-1.604 1.058-0.819 1.809-0.785 1.809-0.785 0.717 0.137 0.819 0.956 0.819 1.297v1.638l0.99-1.331c0.375-0.546 1.024-0.887 1.707-0.887 1.126 0 2.048 0.853 2.048 1.946 0 0.307-0.068 0.614-0.205 0.887l-0.068 0.137 0.683 1.468 1.126-1.161-0.034-0.41c0-1.092 0.956-2.014 2.15-2.014 1.092 0 2.014 0.717 2.15 1.741l0.034 0.273c0 0.034 0 0.034 0 0.068 0.034 0.512 0.034 0.785 0.341 0.785 0.239 0 0.341-0.239 0.478-0.614v0l0.137-0.444c0.273-0.819 1.126-1.399 2.048-1.399 1.195-0.034 2.15 0.887 2.15 2.082 0 0.239-0.034 0.478-0.102 0.717l-0.102 0.307 1.126 0.205 0.068-0.068 0.853-0.137-0.102-0.341c-0.375-1.092 0.239-2.321 1.331-2.662 0.239-0.068 0.478-0.102 0.717-0.102 0.956 0 1.775 0.546 2.082 1.399l0.068 0.171c0 0 0 0 0 0.034 0.137 0.512 0.239 0.819 0.546 0.819s0.307-0.273 0.341-0.785c0-0.034 0-0.034 0-0.068l0.034-0.273c0.137-0.99 1.024-1.741 2.15-1.741 1.195 0 2.15 0.887 2.15 2.048v0.375l1.161 1.161 0.683-1.468-0.068-0.137c-0.137-0.273-0.205-0.58-0.205-0.853 0-1.092 0.887-1.911 2.048-1.911 0.717 0 1.331 0.307 1.707 0.853l1.024 1.297v-1.604c0-0.341 0.068-1.161 0.853-1.297 0 0 0.751-0.034 1.741 0.785 1.092 0.887 1.741 1.604 1.741 1.604l0.444 0.546 0.137-1.707-0.034-0.068c-0.034-0.068-1.161-1.911-2.253-2.526-0.614-0.375-1.502-0.717-2.287-0.58-0.649 0.068-1.195 0.512-1.57 1.229-0.512-0.239-1.058-0.341-1.638-0.341-1.331 0-2.594 0.683-3.209 1.707-0.683-0.58-1.502-0.887-2.423-0.922-1.024-0.034-2.014 0.341-2.765 1.058-0.034 0.034-0.068 0.068-0.102 0.102-1.57-1.229-3.891-1.058-5.257 0.444-0.034 0.034-0.034 0.034-0.068 0.068-0.58-0.683-1.365-1.126-2.253-1.263-1.024-0.171-2.048 0.068-2.867 0.649-0.068 0.034-0.102 0.068-0.171 0.137-0.649-0.649-1.502-1.058-2.458-1.161-1.024-0.102-2.048 0.239-2.833 0.887 0 0 0 0 0 0-0.614-1.024-1.877-1.707-3.209-1.707-0.58 0-1.092 0.137-1.638 0.375-0.341-0.683-0.922-1.126-1.57-1.229-0.068-0.137-0.171-0.137-0.307-0.137zM169.062 527.155c0.239-0.375 1.263-1.775 2.082-2.253 0.512-0.307 1.331-0.649 1.877-0.512 0.546 0.068 1.024 0.512 1.263 1.161l0.102 0.307 0.307-0.171c0.512-0.307 1.058-0.444 1.604-0.444 1.229 0 2.423 0.717 2.867 1.707l0.171 0.375 0.307-0.307c0.068-0.068 0.171-0.171 0.239-0.239 0.683-0.58 1.536-0.853 2.423-0.751 0.887 0.068 1.673 0.478 2.253 1.161l0.205 0.239 0.205-0.205c0.102-0.102 0.205-0.171 0.341-0.273 0.717-0.512 1.57-0.717 2.458-0.546 0.853 0.137 1.604 0.614 2.116 1.331l0.239 0.341 0.239-0.341c0.068-0.102 0.171-0.205 0.273-0.307 1.229-1.331 3.311-1.434 4.676-0.205l0.205 0.205 0.205-0.239c0.068-0.102 0.171-0.205 0.273-0.273 1.297-1.229 3.379-1.195 4.642 0.102l0.307 0.307 0.171-0.41c0.444-1.024 1.604-1.707 2.867-1.707 0.58 0 1.126 0.137 1.604 0.41l0.273 0.171 0.137-0.307c0.137-0.307 0.512-1.058 1.229-1.126 0.614-0.102 1.399 0.205 1.911 0.512 0.853 0.478 1.775 1.911 1.98 2.253v0.171c-0.307-0.307-0.785-0.751-1.365-1.195-1.229-0.956-2.15-0.887-2.185-0.887-0.819 0.137-1.331 0.853-1.331 1.809-0.444-0.649-1.263-1.058-2.15-1.058-1.468 0-2.628 1.092-2.628 2.492 0 0.341 0.068 0.683 0.205 1.024l-0.205 0.478-0.41-0.41v-0.137c0-1.468-1.195-2.628-2.697-2.628-1.297 0-2.423 0.853-2.662 2.014-0.444-0.99-1.399-1.604-2.526-1.604-0.307 0-0.614 0.034-0.887 0.137-1.297 0.444-2.048 1.741-1.809 3.072l-0.341 0.034-0.239-0.034c0.034-0.205 0.068-0.375 0.034-0.58-0.034-1.468-1.263-2.662-2.731-2.628-1.126 0-2.116 0.649-2.526 1.638-0.239-1.195-1.365-2.048-2.662-2.048-1.502 0-2.731 1.161-2.731 2.628v0.171l-0.375 0.375-0.205-0.478c0.137-0.307 0.205-0.683 0.205-1.024 0-1.365-1.161-2.492-2.628-2.492-0.853 0-1.638 0.41-2.15 1.058-0.034-0.956-0.512-1.638-1.331-1.775-0.068 0-1.024-0.068-2.253 0.887-0.614 0.512-1.092 0.956-1.399 1.263l-0.068-0.239z" />
<glyph unicode="&#xe939;" horiz-adv-x="1365" d="M173.056 522.342c-0.375 0-0.751 0.273-0.853 0.58-0.068 0.239-0.034 0.478 0.068 0.683s0.307 0.341 0.512 0.41c4.471 1.365 10.615 2.15 17.306 2.185 6.519 0 12.834-0.785 17.34-2.185 0.205-0.068 0.41-0.239 0.512-0.444s0.137-0.444 0.068-0.614c-0.137-0.375-0.649-0.683-1.092-0.546-5.495 1.434-11.127 2.15-16.828 2.048 0 0 0 0 0 0-6.315 0-12.254-0.717-16.794-2.048-0.102-0.034-0.171-0.068-0.239-0.068zM190.089 525.619c-6.622-0.034-12.698-0.785-17.135-2.15-0.068-0.034-0.137-0.068-0.171-0.137s-0.034-0.137-0.034-0.205c0.034-0.102 0.239-0.239 0.375-0.171 4.608 1.331 10.615 2.082 16.964 2.082 5.734 0.102 11.435-0.614 16.998-2.082 0.137-0.034 0.341 0.068 0.375 0.205 0 0.034 0 0.102-0.034 0.171s-0.102 0.137-0.171 0.171c-4.437 1.331-10.684 2.116-17.169 2.116z" />
<glyph unicode="&#xe93a;" horiz-adv-x="1365" d="M177.801 520.738c-0.478 0-0.887 0.341-0.956 0.785-0.102 0.512 0.273 0.99 0.785 1.092 0.034 0 0.068 0 0.068 0l1.536 0.205 1.57 0.239c0.546 0.068 1.058-0.273 1.126-0.785 0.034-0.273-0.034-0.546-0.205-0.751s-0.375-0.341-0.649-0.375l-1.57-0.239-1.536-0.205c-0.068 0.034-0.102 0.034-0.171 0.034zM180.907 522.513c-0.034 0-0.034 0-0.068 0l-1.536-0.239-1.604-0.239c-0.205-0.034-0.341-0.239-0.307-0.444s0.273-0.341 0.478-0.307l1.536 0.205 1.57 0.239c0.239 0.034 0.375 0.239 0.341 0.444 0 0.239-0.205 0.341-0.41 0.341z" />
<glyph unicode="&#xe93b;" horiz-adv-x="1365" d="M202.377 520.738c-0.068 0-0.102 0-0.171 0l-1.536 0.205 0.068 0.58 1.536-0.205c0.239-0.034 0.444 0.102 0.478 0.307 0 0.102 0 0.205-0.068 0.273s-0.137 0.137-0.239 0.137h-0.034l-1.536 0.205-1.57 0.239c-0.239 0.034-0.444-0.102-0.478-0.307 0-0.102 0-0.205 0.068-0.273 0.068-0.102 0.171-0.137 0.273-0.171l1.536-0.239-0.102-0.58-1.536 0.239c-0.239 0.034-0.512 0.171-0.649 0.375-0.171 0.205-0.205 0.478-0.171 0.717 0.102 0.512 0.58 0.853 1.126 0.785l1.57-0.239 1.536-0.205c0 0 0.034 0 0.068 0 0.239-0.034 0.478-0.171 0.614-0.375s0.205-0.444 0.171-0.717c-0.068-0.444-0.478-0.751-0.956-0.751z" />
<glyph unicode="&#xe93c;" horiz-adv-x="1365" d="M206.268 526.814c-0.068 0-0.137 0-0.205 0.034-0.171 0.068-0.341 0.171-0.444 0.375-0.137 0.239-0.137 0.614-0.068 0.922 0.205 0.58 0.717 0.887 1.161 0.751 0.171-0.068 0.341-0.205 0.444-0.375 0.137-0.239 0.137-0.58 0.034-0.887v0c-0.137-0.512-0.512-0.819-0.922-0.819zM206.575 528.35c-0.137 0-0.341-0.137-0.41-0.41-0.068-0.205-0.034-0.375 0.034-0.478 0-0.034 0.034-0.068 0.068-0.068 0.137-0.034 0.341 0.137 0.444 0.41 0.068 0.205 0.034 0.341 0 0.444 0 0.034-0.034 0.068-0.102 0.102-0.034-0.034-0.034 0-0.034 0z" />
<glyph unicode="&#xe93d;" horiz-adv-x="1365" d="M195.686 528.759c-0.034 0-0.068 0-0.102 0-0.171 0-0.341 0.102-0.478 0.273-0.171 0.205-0.273 0.546-0.239 0.887s0.205 0.649 0.41 0.819c0.171 0.137 0.375 0.205 0.58 0.171 0.478-0.068 0.785-0.58 0.717-1.161l-0.034-0.273h-0.034c-0.068-0.205-0.205-0.41-0.375-0.546-0.102-0.137-0.273-0.171-0.444-0.171zM195.789 530.33c-0.034 0-0.102-0.034-0.102-0.034-0.068-0.068-0.171-0.205-0.205-0.41-0.034-0.239 0.034-0.375 0.102-0.478 0.034-0.068 0.068-0.068 0.102-0.068 0.068 0 0.137 0.034 0.171 0.034 0.102 0.068 0.171 0.239 0.205 0.41l0.034 0.171c-0.102 0.205-0.205 0.341-0.307 0.375 0 0 0 0 0 0z" />
<glyph unicode="&#xe93e;" horiz-adv-x="1365" d="M184.525 528.759c-0.137 0-0.307 0.068-0.478 0.171-0.239 0.171-0.375 0.478-0.41 0.785s0.034 0.649 0.205 0.853c0.137 0.171 0.307 0.273 0.512 0.307s0.41-0.034 0.58-0.171c0.239-0.171 0.375-0.478 0.41-0.819 0.034-0.307-0.034-0.649-0.205-0.853-0.137-0.171-0.307-0.273-0.512-0.273-0.068 0-0.068 0-0.102 0zM184.422 530.33c0 0 0 0 0 0-0.068 0-0.137-0.068-0.137-0.102-0.068-0.102-0.102-0.273-0.102-0.444v0c0.034-0.171 0.102-0.307 0.205-0.41 0.034-0.034 0.068-0.068 0.137-0.034 0.068 0 0.102 0.034 0.137 0.068 0.068 0.068 0.102 0.239 0.102 0.444-0.034 0.239-0.137 0.375-0.205 0.444-0.034 0-0.068 0.034-0.137 0.034z" />
<glyph unicode="&#xe93f;" horiz-adv-x="1365" d="M173.909 526.814c-0.375 0-0.785 0.341-0.956 0.819-0.102 0.307-0.068 0.649 0.034 0.887 0.102 0.171 0.239 0.307 0.444 0.375 0.444 0.137 0.956-0.205 1.161-0.751 0.102-0.341 0.102-0.683-0.034-0.922-0.102-0.171-0.273-0.307-0.444-0.375-0.068-0.034-0.137-0.034-0.205-0.034zM173.636 528.316c0 0-0.034 0-0.034 0-0.034 0-0.068-0.068-0.068-0.102-0.034-0.102-0.068-0.273 0-0.444v0c0.102-0.273 0.307-0.444 0.444-0.41 0.034 0 0.068 0.034 0.102 0.102 0.068 0.102 0.068 0.307 0 0.478-0.102 0.239-0.307 0.375-0.444 0.375z" />
<glyph unicode="&#xe940;" horiz-adv-x="1365" d="M167.663 527.155h-0.137c-0.137 0-0.171 0.034-0.375 0.273-0.273 0.341-0.819 1.024-1.263 1.399-0.341 0.307-1.092 0.58-1.365 0.683l-0.205 0.068v0.205c0 0.444 0.819 0.887 1.57 0.887 0.307 0 0.58-0.068 0.819-0.205l0.034 0.239 0.273-0.068c0.034 0 0.683-0.137 0.99-0.853 0.239-0.717 0.102-1.707 0.102-1.741-0.034-0.068-0.137-0.546-0.375-0.819l-0.068-0.068zM165.103 529.886c0.375-0.137 0.853-0.375 1.161-0.649 0.41-0.341 0.922-0.956 1.229-1.331 0.034 0.102 0.068 0.171 0.068 0.239v0c0 0 0.102 0.853-0.068 1.434-0.068 0.171-0.205 0.307-0.307 0.375l-0.137-0.717-0.375 0.512c-0.171 0.205-0.444 0.341-0.751 0.341-0.341 0-0.614-0.102-0.819-0.205zM164.898 529.715v0 0z" />
<glyph unicode="&#xe941;" horiz-adv-x="1365" d="M168.585 526.302c-0.307 0-0.649 0.137-0.922 0.375s-0.478 0.58-0.478 0.922c0 0.239 0.068 0.444 0.205 0.614 0.375 0.375 1.092 0.341 1.57-0.137 0.273-0.239 0.478-0.58 0.478-0.922 0-0.239-0.068-0.444-0.205-0.614s-0.375-0.239-0.614-0.273c-0.034 0.034-0.034 0.034-0.034 0.034zM168.038 527.872c-0.102 0-0.205-0.034-0.239-0.068s-0.068-0.102-0.068-0.171c0-0.171 0.137-0.375 0.307-0.512 0.171-0.171 0.375-0.239 0.546-0.239 0.068 0 0.171 0.034 0.205 0.102 0.034 0.034 0.068 0.102 0.068 0.171 0 0.171-0.137 0.375-0.307 0.512s-0.341 0.205-0.512 0.205z" />
<glyph unicode="&#xe942;" horiz-adv-x="1365" d="M212.241 527.155h-0.137l-0.068 0.102c-0.239 0.273-0.341 0.751-0.341 0.785 0 0.068-0.171 1.024 0.068 1.741 0.341 0.751 0.99 0.887 0.99 0.887l0.273 0.068 0.068-0.273c0.239 0.137 0.512 0.205 0.819 0.205 0.751 0 1.57-0.478 1.57-0.887v-0.205l-0.205-0.068c-0.273-0.102-1.058-0.375-1.365-0.649-0.444-0.375-0.99-1.058-1.263-1.399-0.239-0.273-0.273-0.307-0.41-0.307zM212.582 529.954c-0.102-0.068-0.239-0.205-0.307-0.41-0.171-0.546-0.034-1.399-0.034-1.434s0.034-0.137 0.068-0.205c0.307 0.375 0.785 0.956 1.229 1.331 0.273 0.273 0.785 0.478 1.161 0.649-0.205 0.102-0.478 0.205-0.785 0.205s-0.58-0.137-0.751-0.341l-0.375-0.444-0.205 0.649z" />
<glyph unicode="&#xe943;" horiz-adv-x="1365" d="M211.285 526.302c-0.239 0-0.478 0.102-0.649 0.273-0.137 0.137-0.239 0.341-0.205 0.58 0 0.341 0.205 0.683 0.512 0.922 0.512 0.444 1.195 0.512 1.57 0.102v0c0.137-0.171 0.239-0.375 0.205-0.649-0.034-0.341-0.205-0.649-0.478-0.887-0.307-0.239-0.649-0.341-0.956-0.341zM211.831 527.872c-0.171 0-0.375-0.068-0.546-0.239-0.171-0.137-0.307-0.341-0.307-0.512 0-0.068 0-0.137 0.068-0.171 0.171-0.171 0.512-0.102 0.785 0.137 0.171 0.137 0.273 0.307 0.273 0.478 0 0.102 0 0.171-0.068 0.205v0c-0.034 0.068-0.102 0.102-0.205 0.102z" />
<glyph unicode="&#xe944;" horiz-adv-x="1365" d="M209.476 493.397c-0.034 0-0.102 0-0.137 0.034-0.068 0.034-0.102 0.034-0.171 0.068-0.205 0.068-0.444 0.102-0.683 0.102h-36.762c-0.205 0-0.375 0-0.58-0.068-0.068-0.034-0.137-0.034-0.205-0.068-0.205-0.068-0.444 0.034-0.546 0.273-0.068 0.205 0.034 0.444 0.239 0.546 0.068 0.034 0.137 0.068 0.239 0.068 0.956 0.375 1.638 1.365 1.638 2.389 0 1.126-0.614 2.048-1.604 2.389-0.137 0.034-0.273 0.068-0.375 0.102-0.205 0.068-0.341 0.307-0.273 0.512s0.273 0.341 0.512 0.307l0.205-0.034c0 0 0.034 0 0.034 0 0.034 0 0.068-0.034 0.102-0.034 0.205-0.034 0.375-0.034 0.58-0.034h36.762c0.273 0 0.614 0.068 0.956 0.171 0.239 0.068 0.444-0.068 0.512-0.273 0.068-0.239-0.068-0.478-0.273-0.546-1.126-0.375-1.98-1.434-1.98-2.526s0.683-2.048 1.707-2.458c0.068-0.034 0.102-0.034 0.171-0.068 0.205-0.068 0.341-0.307 0.239-0.546 0.034-0.205-0.137-0.307-0.307-0.307zM172.51 499.029c0.546-0.614 0.887-1.434 0.887-2.355 0-0.853-0.341-1.673-0.887-2.287h35.26c-0.546 0.614-0.887 1.434-0.887 2.287s0.375 1.707 0.956 2.321h-35.328z" />
<glyph unicode="&#xe945;" horiz-adv-x="1365" d="M224.461 285.935c-3.004-0.068-5.973 0.58-8.636 1.911-2.662 1.229-5.564 1.877-8.499 1.809-3.311 0-6.383-0.717-8.602-1.843-2.253-1.161-5.291-1.877-8.636-1.877-3.004-0.034-5.973 0.649-8.636 1.98-2.219 1.092-5.12 1.775-8.363 1.775-2.935 0.068-5.837-0.546-8.465-1.809-2.697-1.331-5.7-1.98-8.704-1.946v-5.291c3.379 0 6.485 0.785 8.704 1.946s5.154 1.809 8.499 1.809c3.209 0 6.144-0.649 8.329-1.775 2.219-1.195 5.257-1.98 8.636-1.98 3.345 0 6.417 0.717 8.636 1.877s5.291 1.843 8.602 1.843 6.315-0.717 8.533-1.843c2.662-1.331 5.632-1.98 8.602-1.877v5.291z" />
<glyph unicode="&#xe946;" horiz-adv-x="1365" d="M223.983 280.201c-2.901 0-5.769 0.683-8.363 1.946-2.253 1.161-5.188 1.809-8.329 1.809s-6.178-0.649-8.397-1.809c-2.389-1.263-5.53-1.946-8.841-1.946-3.277 0-6.417 0.717-8.841 2.048-2.185 1.092-5.086 1.707-8.124 1.707-3.209 0-6.076-0.614-8.294-1.741-2.389-1.263-5.632-1.98-8.909-1.98h-0.444v6.178h0.444c2.935-0.068 5.871 0.614 8.499 1.877 2.697 1.297 5.7 1.911 8.67 1.843 3.174 0 6.212-0.649 8.533-1.809 2.628-1.297 5.53-1.98 8.465-1.946 3.174 0 6.178 0.649 8.465 1.843 2.321 1.195 5.53 1.877 8.772 1.877 2.97 0.068 5.973-0.58 8.67-1.843 2.628-1.297 5.564-1.946 8.465-1.877h0.444l-0.034-6.178h-0.41c-0.171 0-0.307 0-0.444 0zM207.292 284.809c3.277 0 6.349-0.683 8.704-1.911 2.458-1.229 5.222-1.843 7.953-1.843 0 0 0 0 0 0l0.034 4.437c-2.901 0-5.803 0.683-8.397 1.98-2.56 1.195-5.461 1.809-8.294 1.775-3.106 0-6.178-0.649-8.397-1.775-2.423-1.263-5.564-1.946-8.841-1.946-3.038-0.034-6.11 0.649-8.841 2.014-2.219 1.092-5.12 1.707-8.158 1.707-2.867 0.068-5.734-0.546-8.294-1.775-2.628-1.297-5.53-1.98-8.465-1.98v-4.437c2.97 0.068 5.871 0.751 8.055 1.877 2.321 1.229 5.325 1.843 8.704 1.843 3.174 0 6.212-0.649 8.533-1.809 2.321-1.263 5.325-1.946 8.465-1.946 3.174 0 6.178 0.649 8.431 1.843 2.321 1.263 5.53 1.946 8.806 1.946z" />
<glyph unicode="&#xe947;" horiz-adv-x="1365" d="M224.461 280.644c-3.004-0.068-5.973 0.58-8.636 1.877-2.219 1.161-5.188 1.843-8.499 1.843s-6.383-0.717-8.602-1.843c-2.253-1.161-5.291-1.877-8.636-1.877-3.004-0.034-5.973 0.649-8.636 1.98-2.219 1.092-5.12 1.775-8.363 1.775-3.311 0-6.281-0.649-8.465-1.809-2.697-1.331-5.7-1.98-8.704-1.946v-5.291c3.004-0.068 5.973 0.614 8.704 1.911 2.219 1.161 5.154 1.809 8.499 1.809 3.209 0 6.144-0.649 8.329-1.775 2.219-1.195 5.257-1.98 8.636-1.98 2.97-0.034 5.939 0.614 8.636 1.877 2.219 1.161 5.291 1.843 8.602 1.843s6.315-0.717 8.533-1.843c2.253-1.195 5.222-1.911 8.602-1.911v5.359z" />
<glyph unicode="&#xe948;" horiz-adv-x="1365" d="M190.396 274.91c-0.102 0-0.205 0-0.307 0-3.277 0-6.417 0.717-8.841 2.048-2.185 1.092-5.086 1.707-8.124 1.707-3.209 0-6.076-0.614-8.294-1.741-2.765-1.331-5.837-2.014-8.909-1.98h-0.41v6.144h0.444c2.935-0.068 5.871 0.614 8.499 1.877 2.287 1.195 5.359 1.843 8.67 1.843 3.174 0 6.212-0.649 8.567-1.809 2.628-1.297 5.53-1.98 8.465-1.946 3.174 0 6.178 0.649 8.465 1.843 2.321 1.195 5.53 1.911 8.772 1.911s6.349-0.683 8.704-1.911c2.594-1.263 5.53-1.911 8.431-1.843h0.444l-0.034-6.178h-0.41c-3.345 0-6.383 0.683-8.806 1.98-2.253 1.161-5.188 1.775-8.329 1.775s-6.178-0.649-8.397-1.809c-2.765-1.263-5.7-1.911-8.602-1.911zM173.056 279.518c3.174 0 6.212-0.649 8.533-1.809 2.321-1.263 5.325-1.946 8.465-1.946 2.901-0.034 5.837 0.58 8.431 1.843 2.321 1.195 5.495 1.877 8.772 1.877 3.243 0 6.349-0.683 8.704-1.877 2.219-1.161 4.949-1.809 7.987-1.877l0.034 4.437c-2.901 0-5.803 0.683-8.397 1.946-2.253 1.161-5.188 1.809-8.294 1.809-3.14 0-6.178-0.649-8.397-1.809-2.423-1.263-5.564-1.946-8.841-1.946-3.038-0.034-6.11 0.649-8.841 2.014-2.219 1.092-5.12 1.707-8.158 1.707-3.174 0-6.11-0.614-8.294-1.741-2.628-1.297-5.564-1.98-8.465-1.98v-4.437c2.799 0 5.564 0.649 8.090 1.877 2.321 1.263 5.325 1.911 8.67 1.911z" />
<glyph unicode="&#xe949;" horiz-adv-x="1365" d="M224.461 275.319c-3.004-0.068-5.973 0.58-8.636 1.911-2.219 1.092-5.188 1.843-8.499 1.843s-6.383-0.717-8.602-1.843c-2.253-1.161-5.291-1.877-8.636-1.877-3.004-0.034-5.973 0.649-8.636 1.98-2.219 1.092-5.12 1.775-8.363 1.775-3.311 0-6.281-0.649-8.465-1.809-2.697-1.331-5.7-1.98-8.704-1.946v-5.291c3.379 0 6.485 0.751 8.704 1.946 2.219 1.126 5.154 1.775 8.499 1.775 3.209 0 6.144-0.649 8.329-1.741 2.219-1.195 5.257-1.98 8.636-1.98 3.345 0 6.417 0.717 8.636 1.877s5.291 1.843 8.602 1.843 6.315-0.649 8.533-1.809c2.253-1.195 5.222-1.877 8.602-1.877v5.222z" />
<glyph unicode="&#xe94a;" horiz-adv-x="1365" d="M190.054 269.585c-3.277 0-6.417 0.717-8.841 2.048-2.219 1.092-5.12 1.673-8.124 1.673-3.243 0-6.11-0.58-8.294-1.707-2.355-1.263-5.598-1.98-8.909-1.98h-0.444v6.144h0.444c2.935-0.034 5.871 0.614 8.499 1.877 2.287 1.195 5.359 1.843 8.67 1.843 3.174 0 6.212-0.649 8.567-1.809 2.594-1.297 5.53-1.98 8.465-1.946 3.174 0 6.178 0.649 8.465 1.843 2.321 1.195 5.53 1.911 8.772 1.911 3.174 0 6.281-0.649 8.704-1.877 2.628-1.297 5.53-1.946 8.465-1.877v-0.444h0.444l-0.034-5.7h-0.41c-3.413 0-6.451 0.683-8.806 1.946-2.185 1.126-5.12 1.741-8.329 1.741-3.14 0-6.212-0.649-8.397-1.775-2.458-1.195-5.598-1.911-8.909-1.911zM173.056 274.193c3.14 0 6.178-0.649 8.533-1.775 2.321-1.263 5.325-1.946 8.465-1.946 3.174 0 6.178 0.649 8.431 1.843 2.287 1.195 5.495 1.877 8.772 1.877 3.311 0 6.417-0.649 8.704-1.843 2.15-1.161 4.881-1.775 7.987-1.843l0.034 4.403c-2.901 0-5.803 0.683-8.397 1.98-2.287 1.161-5.257 1.775-8.294 1.775-3.14 0-6.178-0.649-8.397-1.809-2.423-1.263-5.564-1.946-8.841-1.946-3.038-0.034-6.11 0.649-8.841 2.014-2.219 1.092-5.12 1.707-8.158 1.707-3.174 0-6.11-0.614-8.294-1.741-2.628-1.297-5.564-1.98-8.465-1.98v-4.403c3.004 0.068 5.939 0.751 8.055 1.877 2.355 1.161 5.359 1.809 8.704 1.809z" />
<glyph unicode="&#xe94b;" horiz-adv-x="1365" d="M224.427 264.738c-3.379 0-6.383 0.717-8.602 1.911-2.662 1.263-5.564 1.877-8.533 1.809-3.311 0-6.383-0.683-8.602-1.843-2.253-1.161-5.291-1.877-8.636-1.877-3.004-0.034-5.973 0.649-8.636 1.98-2.219 1.092-5.12 1.775-8.363 1.775-3.311 0-6.281-0.649-8.465-1.809-2.697-1.331-5.7-1.98-8.704-1.946v5.291c3.379 0 6.485 0.785 8.704 1.98 2.219 1.126 5.154 1.775 8.499 1.775 3.209 0 6.144-0.649 8.329-1.741 2.219-1.195 5.257-1.98 8.636-1.98 3.345 0 6.417 0.717 8.636 1.877s5.291 1.843 8.602 1.843 6.315-0.649 8.533-1.809c2.253-1.195 5.257-1.877 8.636-1.877l-0.034-5.359z" />
<glyph unicode="&#xe94c;" horiz-adv-x="1365" d="M156.194 264.294c-0.102 0-0.205 0-0.341 0h-0.41v6.144h0.444c3.106 0 6.212 0.717 8.499 1.946 2.321 1.195 5.325 1.809 8.704 1.809 3.14 0 6.178-0.649 8.533-1.775 2.321-1.263 5.325-1.946 8.465-1.946 3.174 0 6.178 0.649 8.431 1.843 2.287 1.195 5.495 1.877 8.772 1.877 3.311 0 6.417-0.649 8.704-1.843 2.219-1.195 5.222-1.843 8.465-1.843h0.444l-0.034-6.178h-0.41c-3.311 0-6.451 0.683-8.806 1.98-2.56 1.195-5.461 1.809-8.294 1.741-3.174 0-6.212-0.649-8.397-1.775-2.458-1.263-5.598-1.946-8.841-1.946-3.038-0.034-6.11 0.649-8.841 2.014-2.219 1.092-5.12 1.707-8.158 1.707-3.174 0-6.11-0.614-8.294-1.741-2.731-1.331-5.666-2.014-8.636-2.014zM156.297 269.585v-4.437c2.799 0 5.564 0.683 8.090 1.911 2.287 1.195 5.359 1.843 8.67 1.843 3.174 0 6.212-0.649 8.567-1.809 2.628-1.297 5.53-1.98 8.465-1.946 3.14 0 6.144 0.649 8.465 1.843 2.287 1.195 5.495 1.877 8.772 1.877 2.97 0.068 6.007-0.58 8.704-1.843 2.15-1.161 4.949-1.809 7.987-1.877l0.034 4.471c-3.243 0.068-6.178 0.717-8.431 1.946-2.185 1.126-5.12 1.741-8.329 1.741-3.14 0-6.212-0.649-8.397-1.775-2.389-1.263-5.53-1.946-8.841-1.946-3.277 0-6.417 0.717-8.841 2.048-2.219 1.092-5.12 1.673-8.124 1.673-3.243 0-6.11-0.58-8.294-1.707-2.321-1.229-5.393-1.946-8.499-2.014z" />
<glyph unicode="&#xe94d;" horiz-adv-x="1365" d="M224.427 259.413c-3.379 0-6.383 0.717-8.602 1.877-2.662 1.263-5.564 1.911-8.533 1.843-3.311 0-6.383-0.717-8.602-1.843-2.253-1.161-5.291-1.877-8.636-1.877-3.004-0.034-5.973 0.649-8.636 1.98-2.219 1.092-5.12 1.775-8.363 1.775-2.935 0.068-5.837-0.546-8.465-1.809-2.697-1.331-5.7-1.98-8.704-1.946v5.291c3.379 0 6.485 0.785 8.704 1.98 2.219 1.126 5.154 1.775 8.499 1.775 3.209 0 6.144-0.649 8.329-1.741 2.219-1.161 5.257-1.98 8.636-1.98 2.97-0.034 5.939 0.614 8.636 1.877 2.219 1.161 5.291 1.843 8.602 1.843s6.315-0.683 8.533-1.809c2.697-1.331 5.666-1.98 8.636-1.911l-0.034-5.325z" />
<glyph unicode="&#xe94e;" horiz-adv-x="1365" d="M156.16 258.97c-0.102 0-0.205 0-0.307 0h-0.41v6.144h0.444c3.106 0 6.212 0.717 8.499 1.946 2.321 1.195 5.325 1.809 8.704 1.809 3.14 0 6.178-0.649 8.533-1.775 2.321-1.229 5.393-1.946 8.465-1.946 2.901-0.068 5.837 0.58 8.431 1.843 2.287 1.195 5.495 1.877 8.772 1.877s6.383-0.649 8.704-1.843c2.594-1.297 5.53-1.946 8.465-1.877h0.444l-0.034-6.144-0.41-0.034c-3.311 0-6.417 0.683-8.772 1.946-2.56 1.229-5.461 1.843-8.329 1.809-3.14 0-6.212-0.649-8.397-1.809-2.458-1.263-5.598-1.946-8.841-1.946-3.038-0.034-6.11 0.649-8.841 2.014-2.219 1.092-5.12 1.707-8.158 1.707-2.867 0.068-5.734-0.546-8.294-1.775-2.731-1.229-5.7-1.946-8.67-1.946zM156.297 264.26v-4.437c2.799 0.034 5.564 0.683 8.090 1.911 2.697 1.297 5.7 1.911 8.67 1.843 3.174 0 6.212-0.649 8.533-1.809 2.628-1.297 5.53-1.98 8.465-1.946 3.14 0 6.144 0.649 8.465 1.843s5.53 1.911 8.772 1.911c3.004 0.068 6.007-0.614 8.704-1.877 2.15-1.126 4.983-1.775 7.987-1.843l0.034 4.437c-2.901 0-5.803 0.683-8.397 1.98-2.219 1.126-5.188 1.775-8.329 1.775s-6.212-0.649-8.397-1.775c-2.765-1.331-5.803-1.98-8.841-1.946-3.243 0-6.383 0.717-8.841 2.048-2.219 1.092-5.12 1.673-8.158 1.673-3.243 0-6.11-0.58-8.294-1.707-2.287-1.263-5.359-2.014-8.465-2.082z" />
<glyph unicode="&#xe94f;" horiz-adv-x="1365" d="M215.415 300.169h-50.517c-0.239 0-0.444 0.205-0.444 0.444s0.205 0.444 0.444 0.444c3.174 0 5.769 2.389 5.769 5.359 0 0.307-0.068 0.58-0.171 0.887-0.034 0.137-0.068 0.239-0.102 0.341-0.034 0.137 0 0.307 0.137 0.41 0.102 0.102 0.273 0.137 0.444 0.102 0.205-0.068 0.512-0.102 0.751-0.102h36.762c0.239 0 0.58 0 0.853 0.102 0.137 0.068 0.307 0.034 0.444-0.102 0.102-0.102 0.171-0.273 0.102-0.444-0.137-0.478-0.205-0.887-0.205-1.263 0-2.97 2.594-5.359 5.769-5.359 0.239 0 0.444-0.205 0.444-0.444s-0.239-0.375-0.478-0.375zM168.277 301.022h43.793c-1.946 1.092-3.277 3.072-3.277 5.359 0 0.273 0.034 0.546 0.068 0.819-0.137 0-0.307 0-0.41 0h-36.727c-0.102 0-0.205 0-0.307 0 0.068-0.239 0.102-0.512 0.102-0.819 0-2.287-1.297-4.267-3.243-5.359z" />
<glyph unicode="&#xe950;" horiz-adv-x="1365" d="M161.655 336.111l-0.614 0.614c0.512 0.614 0.546 1.468 0.444 2.082-0.273 2.082-2.082 4.642-4.403 6.246l-0.273 0.171c-2.15 1.399-3.686 2.423-3.994 3.891-0.819 2.458 5.905 6.554 8.021 7.782l0.239 0.137 0.239-0.171c0.922-0.683 1.741-1.468 2.423-2.355 4.506-5.632 3.55-13.892-2.082-18.398zM161.007 356.011c-5.325-3.106-7.748-5.666-7.373-6.622l0.034-0.068c0.205-1.126 1.638-2.082 3.652-3.379l0.307-0.205c2.526-1.775 4.437-4.506 4.779-6.861 0.034-0.341 0.068-0.649 0.034-0.956 4.13 4.369 4.54 11.23 0.683 16.043-0.649 0.785-1.331 1.468-2.116 2.048z" />
<glyph unicode="&#xe951;" horiz-adv-x="1365" d="M208.418 312.73h-36.215v0.41h-0.444v175.753h36.625v-176.162zM202.172 313.583h5.393v174.455h-5.393v-174.455zM198.144 313.583h3.174v174.455h-3.174v-174.455zM172.646 313.583h24.644v174.455h-24.644v-174.455z" />
<glyph unicode="&#xe952;" horiz-adv-x="1365" d="M154.761 407.415c-0.171 0-0.307 0.102-0.375 0.239-1.331 3.038-8.055 18.125-8.192 18.842-0.307 1.604 0.171 3.311 1.365 5.018 4.779 6.827 20.617 13.517 39.356 16.657 6.963 1.161 14.268 1.741 21.129 1.673 14.507 0 28.16-1.843 36.523-4.949 0.171-0.068 0.273-0.239 0.273-0.41l0.102-21.606c0-0.137-0.068-0.273-0.205-0.341-0.102-0.068-0.273-0.102-0.41-0.034-8.055 3.345-21.606 5.598-36.181 6.076-5.666-0.068-11.435-0.58-17.033-1.536-16.725-2.799-30.788-8.704-34.953-14.677-0.956-1.365-1.331-2.697-1.092-3.925l0.102-0.58c0.034-0.205-0.068-0.41-0.307-0.478 0 0.034-0.034 0.034-0.102 0.034zM206.95 449.024c-6.485 0-13.312-0.58-19.831-1.673-18.534-3.106-34.133-9.66-38.81-16.282-1.092-1.536-1.502-3.004-1.229-4.369 0.137-0.58 4.096-9.591 7.202-16.589 0.171 0.922 0.58 1.843 1.229 2.799 4.301 6.144 18.569 12.186 35.533 15.019 5.666 0.956 11.435 1.468 17.203 1.536 14.336-0.478 27.682-2.662 35.908-5.905l-0.068 20.685c-8.294 3.004-21.675 4.779-35.942 4.779-0.444 0-0.819 0-1.195 0z" />
<glyph unicode="&#xe953;" horiz-adv-x="1365" d="M153.225 348.809c-0.171 0-0.341 0.102-0.41 0.273-0.034 0.137-0.068 0.273-0.068 0.41l-3.209 17.374c0 0.034-0.034 0.034-0.034 0.068-1.195 3.516 10.547 9.591 22.665 14.063 5.598 1.98 10.342 4.096 15.838 6.519l1.946 0.853c16.452 7.27 29.525 15.633 31.061 19.866 0.171 0.444 0.171 0.819 0.034 1.126l-0.171 0.341c-0.102 0.171-0.068 0.41 0.102 0.546s0.375 0.137 0.546 0c0.068-0.068 0.137-0.171 0.205-0.307l0.102-0.171c0.102-0.205 0.171-0.41 0.171-0.649 0.922-3.311 1.843-12.732 2.253-17.237 0.205-0.444 0.205-0.99 0.034-1.604-1.399-4.267-13.551-12.663-28.877-20.002-5.564-2.662-17.101-6.929-23.040-9.045-8.977-3.106-17.408-8.499-18.637-11.127-0.068-0.137-0.137-0.341-0.137-0.512l0.034-0.273c0.034-0.205-0.102-0.444-0.307-0.478-0.034-0.034-0.068-0.034-0.102-0.034zM150.289 367.309c0.034-0.034 0.068-0.102 0.068-0.171l2.97-16.077c2.219 3.209 10.615 8.158 18.773 10.957 5.905 2.082 17.408 6.349 22.938 9.011 14.882 7.134 27.136 15.497 28.433 19.49 0.137 0.41 0.137 0.751 0 1.024-0.034 0.034-0.034 0.102-0.034 0.171-0.546 5.905-1.263 12.288-1.877 15.599-2.526-4.642-15.087-12.595-31.232-19.729l-1.946-0.853c-5.495-2.423-10.274-4.54-15.872-6.519-14.609-5.359-22.665-10.718-22.221-12.902z" />
<glyph unicode="&#xe954;" horiz-adv-x="1365" d="M169.745 431.343c4.369 1.57 7.236 3.482 5.837 6.929-0.887 2.219-3.14 2.628-6.554 1.399l-5.973-2.185 5.393-13.278c0.58 0.273 1.195 0.512 1.775 0.751 0.614 0.205 1.263 0.41 1.877 0.58l-2.355 5.803zM167.117 437.726l1.536 0.58c1.263 0.444 2.697-0.205 3.311-1.775 0.478-1.161 0.341-2.492-1.092-3.413-0.478-0.273-1.024-0.512-1.536-0.717l-2.219 5.325zM183.74 443.29c-0.649-0.171-1.263-0.341-1.877-0.478l-1.946-0.273 3.106-13.79 9.66 1.946c-0.102 0.273-0.273 0.58-0.307 0.853-0.068 0.307-0.068 0.614-0.102 0.887-1.707-0.478-3.516-1.024-5.734-1.468l-2.799 12.322zM203.059 431.377c1.809 5.018 3.994 9.83 6.178 14.677-0.785-0.137-1.57-0.171-2.389-0.171-1.161-3.516-2.594-7.031-4.13-10.581-1.809 3.311-3.823 6.588-5.359 9.933-0.751-0.102-1.536-0.205-2.253-0.273s-1.536-0.034-2.287-0.034c2.765-4.54 5.461-9.011 8.021-13.722l1.092 0.171c0.375 0.034 0.751 0.034 1.126 0zM223.232 441.993c0.341 0.649 0.649 1.331 1.058 1.946-1.195 0.819-2.56 1.297-3.994 1.399-3.925 0.41-6.178-1.331-6.451-3.755-0.58-4.949 7.27-4.54 6.929-7.851-0.171-1.399-1.638-1.98-3.243-1.843-1.775 0.171-3.072 1.161-3.311 2.628l-0.478 0.034c-0.273-0.887-0.649-1.707-1.058-2.526 1.161-0.751 2.628-1.161 4.062-1.331 4.028-0.41 7.1 1.195 7.373 3.857 0.512 4.745-7.407 4.983-7.1 7.782 0.137 1.161 1.024 1.946 3.072 1.741 1.468-0.171 2.389-0.956 2.765-2.082h0.375z" />
<glyph unicode="&#xe955;" horiz-adv-x="1365" d="M518.554 528.725c0 0-1.638-1.707-2.833-1.946-1.161-0.205-2.662 1.092-2.662 1.092s-1.058-1.092-2.389-1.399c-1.297-0.307-3.106 1.468-3.106 1.468s-1.263-1.775-2.355-2.219c-1.126-0.41-2.492 0.512-2.492 0.512s-0.512-0.887-1.434-1.331c-0.41-0.205-1.058 0.102-1.058 0.102l-1.331 0.853-1.502 1.57-1.365 0.512c0 0-0.614 2.014-0.649 2.355l-0.205 1.263c-0.273 1.399 1.946 3.072 5.086 3.789 1.809 0.444 3.379 0.41 4.54 0.034 1.263 1.058 3.925 1.809 7.031 1.809 2.833 0 5.325-0.58 6.69-1.536 1.331 0.956 3.823 1.536 6.656 1.536 3.14 0 5.769-0.751 7.031-1.809 1.502 0.375 3.038 0.341 4.54-0.034 3.14-0.717 5.359-2.389 5.052-3.789l-0.171-1.263c-0.068-0.341-0.683-2.355-0.683-2.355l-1.399-0.512-1.502-1.57-1.297-0.853c0 0-0.649-0.307-1.024-0.102-0.58 0.307-1.092 0.785-1.468 1.331 0 0-1.365-0.922-2.492-0.512-1.092 0.444-2.355 2.219-2.355 2.219s-1.809-1.775-3.14-1.468c-1.297 0.273-2.355 1.399-2.355 1.399s-1.502-1.331-2.662-1.092c-1.092 0.205-2.697 1.946-2.697 1.946z" />
<glyph unicode="&#xe956;" horiz-adv-x="1365" d="M500.975 524.527c-0.41 0-0.785 0.171-0.853 0.205l-0.034 0.034-1.365 0.887-1.468 1.536-1.434 0.546-0.034 0.137c-0.068 0.205-0.614 2.048-0.683 2.423l-0.205 1.229c-0.307 1.604 1.98 3.379 5.325 4.13 1.673 0.41 3.277 0.444 4.54 0.068 1.399 1.092 4.096 1.775 7.1 1.775 2.765 0 5.222-0.546 6.69-1.468 1.434 0.922 3.925 1.468 6.656 1.468 2.97 0 5.7-0.683 7.134-1.775 1.502 0.341 3.072 0.307 4.54-0.068 3.345-0.751 5.598-2.526 5.291-4.13l-0.171-1.229c-0.068-0.375-0.614-2.185-0.683-2.389l-0.034-0.137-1.468-0.546-1.502-1.57-1.331-0.853c-0.068-0.034-0.819-0.375-1.297-0.102-0.546 0.307-1.024 0.717-1.399 1.195-0.478-0.273-1.536-0.751-2.492-0.41-0.922 0.375-1.877 1.502-2.287 2.048-0.58-0.478-1.98-1.57-3.14-1.331-1.058 0.239-1.946 0.956-2.321 1.297-0.478-0.375-1.673-1.195-2.697-0.956-1.024 0.205-2.253 1.331-2.731 1.843-0.512-0.478-1.741-1.638-2.765-1.843s-2.219 0.614-2.697 0.99c-0.375-0.341-1.263-1.058-2.321-1.297-1.161-0.273-2.56 0.819-3.14 1.331-0.41-0.512-1.365-1.673-2.287-2.048-0.956-0.341-2.014 0.137-2.492 0.41-0.239-0.307-0.717-0.853-1.399-1.195-0.239-0.205-0.375-0.205-0.546-0.205zM500.395 525.244c0.171-0.068 0.58-0.205 0.785-0.102 0.819 0.41 1.297 1.229 1.297 1.229l0.171 0.273 0.273-0.171c0 0 1.263-0.819 2.219-0.478 0.99 0.41 2.185 2.082 2.219 2.082l0.205 0.273 0.239-0.239c0.478-0.478 1.911-1.604 2.833-1.399 1.229 0.273 2.219 1.331 2.219 1.331l0.205 0.205 0.205-0.171c0.375-0.341 1.57-1.161 2.423-1.024 1.092 0.205 2.628 1.843 2.662 1.877l0.205 0.239 0.205-0.239c0 0 1.57-1.638 2.628-1.877 0.853-0.171 2.014 0.683 2.423 1.024l0.205 0.205 0.205-0.205c0 0 1.024-1.058 2.219-1.331 0.956-0.205 2.389 0.956 2.867 1.399l0.239 0.239 0.205-0.273c0 0 1.229-1.707 2.219-2.082 0.956-0.341 2.185 0.478 2.219 0.512l0.239 0.171 0.171-0.273c0.341-0.512 0.785-0.956 1.331-1.229 0.171-0.068 0.546 0 0.751 0.102l1.263 0.819 1.536 1.604 1.331 0.512c0.205 0.614 0.58 1.946 0.649 2.185l0.171 1.229c0.239 1.263-1.911 2.799-4.847 3.447-1.434 0.375-2.97 0.41-4.403 0.034l-0.137-0.034-0.102 0.102c-1.263 1.058-3.959 1.741-6.861 1.741-2.765 0-5.188-0.546-6.485-1.502l-0.171-0.137-0.171 0.102c-1.331 0.922-3.789 1.502-6.519 1.502-2.901 0-5.598-0.683-6.861-1.741l-0.137-0.102-0.171 0.034c-1.195 0.375-2.731 0.341-4.369-0.034-3.277-0.717-5.052-2.355-4.881-3.447l0.205-1.263c0.034-0.239 0.375-1.399 0.614-2.185l1.297-0.512 1.502-1.604 1.263-0.819z" />
<glyph unicode="&#xe957;" horiz-adv-x="1365" d="M503.398 518.485l-0.034 0.273h-0.239c0 0.068-0.102 0.307-0.512 1.399l-0.137 0.375h0.034c-0.273 0.683-0.649 1.331-1.092 1.911l-0.239 0.341 0.375 0.102c4.506 1.331 10.513 2.048 16.964 2.082 6.281 0 12.493-0.751 16.998-2.082l0.341-0.102-1.331-2.321c-0.341-0.614-0.785-1.536-0.819-1.673l-0.239 0.068-0.034-0.307h-0.171l-0.034 0.034c-4.813 1.297-9.796 1.877-14.78 1.775-5.973 0-11.81-0.717-14.916-1.843l-0.034-0.034h-0.102zM503.125 520.363c0.239-0.58 0.375-0.956 0.444-1.195 3.243 1.092 9.011 1.809 14.916 1.809 4.983 0.137 9.967-0.478 14.78-1.741 0.205 0.546 0.649 1.365 0.785 1.57l0.956 1.673c-4.437 1.263-10.445 1.946-16.486 1.946-6.212-0.034-12.015-0.717-16.418-1.946 0.444-0.649 0.785-1.365 1.092-2.116h-0.068z" />
<glyph unicode="&#xe958;" horiz-adv-x="1365" d="M518.519 514.526v0c-5.325 0.034-11.264 0.819-13.517 1.399-1.673 0.478-2.56 1.297-2.355 2.185 0.102 0.444 0.478 0.819 0.99 1.058 3.345 1.092 9.182 1.775 14.916 1.775 5.7 0 11.503-0.683 14.848-1.775 0.546-0.205 0.922-0.614 1.024-1.058 0.102-0.512-0.034-1.468-2.321-2.185-2.321-0.546-8.192-1.399-13.585-1.399zM518.519 520.363c-5.666 0-11.435-0.683-14.711-1.741-0.307-0.137-0.546-0.375-0.614-0.649-0.102-0.546 0.614-1.126 1.946-1.502 2.219-0.546 8.124-1.365 13.346-1.365l0.034-0.273v0.273c5.12 0 11.059 0.785 13.346 1.365 1.331 0.41 2.048 0.956 1.911 1.502-0.034 0.273-0.273 0.478-0.649 0.649-3.209 1.058-8.977 1.741-14.609 1.741z" />
<glyph unicode="&#xe959;" horiz-adv-x="1365" d="M532.48 534.903c-0.649 0-1.195 0.512-1.195 1.161v0c0 0.649 0.546 1.161 1.195 1.161 0.683 0 1.229-0.512 1.229-1.161 0-0.614-0.546-1.161-1.229-1.161 0 0 0 0 0 0zM531.729 536.098c0-0.205 0.102-0.375 0.239-0.512s0.341-0.205 0.512-0.205c0.444 0 0.751 0.307 0.751 0.717 0 0.375-0.341 0.683-0.785 0.683-0.375 0-0.717-0.307-0.717-0.683zM531.9 538.214c-0.614 0-1.161 0.512-1.195 1.161v0c0 0.649 0.546 1.195 1.229 1.195s1.229-0.512 1.229-1.195c0-0.649-0.58-1.161-1.263-1.161zM531.183 539.375c0.034-0.41 0.375-0.717 0.751-0.683 0.41 0 0.751 0.307 0.751 0.683 0 0.41-0.341 0.717-0.751 0.717-0.444 0-0.751-0.307-0.751-0.717zM529.408 540.262c-0.307 0-0.614 0.102-0.819 0.341-0.239 0.205-0.375 0.512-0.375 0.853v0c0 0.649 0.546 1.195 1.229 1.195 0.649 0 1.229-0.546 1.229-1.195 0-0.683-0.58-1.195-1.263-1.195zM528.691 541.457c0-0.205 0.102-0.375 0.239-0.512s0.341-0.205 0.512-0.205c0.444 0 0.751 0.307 0.751 0.717 0 0.375-0.341 0.717-0.751 0.717-0.444-0.034-0.751-0.341-0.751-0.717zM523.127 541.15c-0.546 0-1.024 0.41-1.161 0.922h-0.034l-0.034 0.239c0 0.649 0.546 1.195 1.229 1.195s1.229-0.512 1.229-1.195c0.034-0.649-0.546-1.161-1.229-1.161zM522.411 542.481v-0.137c0.034-0.41 0.341-0.717 0.751-0.717s0.751 0.307 0.751 0.683c0 0.41-0.341 0.717-0.785 0.717-0.341 0-0.649-0.239-0.717-0.546zM526.336 541.286c-0.683 0-1.229 0.546-1.229 1.161 0 0.649 0.546 1.195 1.229 1.195s1.229-0.546 1.229-1.195c0-0.649-0.546-1.161-1.229-1.161zM526.336 543.164c-0.444 0-0.785-0.307-0.785-0.751 0-0.375 0.375-0.683 0.785-0.683s0.751 0.307 0.751 0.683c0 0.41-0.341 0.751-0.751 0.751z" />
<glyph unicode="&#xe95a;" horiz-adv-x="1365" d="M543.198 531.354c-0.649 0-1.229 0.546-1.229 1.195s0.546 1.195 1.229 1.195c0.649 0 1.229-0.546 1.229-1.195s-0.546-1.195-1.229-1.195zM543.198 533.265c-0.41 0-0.751-0.307-0.751-0.717 0-0.375 0.341-0.717 0.751-0.717s0.751 0.307 0.751 0.717c0 0.375-0.341 0.717-0.751 0.717zM542.822 534.835c-0.58 0-1.092 0.41-1.195 0.956h-0.034l-0.034 0.239c0 0.649 0.546 1.161 1.229 1.161s1.229-0.512 1.229-1.161c0.034-0.683-0.512-1.195-1.195-1.195zM542.071 536.201v-0.171c0-0.375 0.341-0.717 0.751-0.717s0.751 0.307 0.751 0.717c0 0.41-0.341 0.683-0.751 0.683-0.375 0-0.683-0.205-0.751-0.512zM540.535 537.498c-0.614 0-1.161 0.512-1.195 1.161v0.239h0.068c0.102 0.546 0.58 0.956 1.161 0.956 0.649 0 1.229-0.546 1.229-1.195s-0.546-1.161-1.263-1.161zM539.853 538.522c0.068-0.341 0.375-0.58 0.717-0.546 0.41 0 0.751 0.307 0.751 0.683s-0.341 0.717-0.751 0.717c-0.41 0-0.751-0.307-0.751-0.717v-0.137zM534.426 538.795c-0.649 0-1.229 0.546-1.229 1.195s0.546 1.195 1.229 1.195c0.683 0 1.229-0.546 1.229-1.195 0-0.683-0.546-1.195-1.229-1.195zM534.426 540.672c-0.41 0-0.751-0.307-0.751-0.717 0-0.375 0.341-0.717 0.751-0.717 0.444 0 0.785 0.307 0.785 0.717 0 0.375-0.375 0.717-0.785 0.717zM537.566 538.897c-0.614 0-1.161 0.512-1.195 1.161v0.068c0 0.649 0.546 1.161 1.229 1.161s1.229-0.512 1.229-1.161c0-0.649-0.546-1.195-1.229-1.195 0-0.034-0.034-0.034-0.034-0.034zM537.6 540.774c-0.444 0-0.785-0.307-0.785-0.683v-0.034c0.034-0.41 0.375-0.717 0.785-0.717 0.444 0 0.785 0.341 0.785 0.751-0.034 0.375-0.375 0.683-0.785 0.683z" />
<glyph unicode="&#xe95b;" horiz-adv-x="1365" d="M535.723 525.073l-1.331 1.161c0 0-1.229-0.751-2.799-0.512-1.536 0.239-2.048 2.15-2.048 2.15s-1.775-1.468-3.174-1.365c-0.922 0.137-1.775 0.614-2.355 1.365 0 0-1.57-1.092-2.935-1.024-1.365 0.137-2.697 1.843-2.697 1.843s-1.365-1.775-2.731-1.877c-1.365-0.102-2.492 1.195-2.492 1.195s-0.649-1.297-2.389-1.57c-1.741-0.273-3.243 1.365-3.243 1.365s-0.956-1.604-2.15-2.014c-1.195-0.41-2.731 0.58-2.731 0.58l-0.444-0.956c-0.205-0.341-0.683-0.41-0.683-0.41l0.375-1.024c4.267 1.229 10.069 1.98 16.589 1.98s12.493-0.751 16.725-1.98l0.512 1.092z" />
<glyph unicode="&#xe95c;" horiz-adv-x="1365" d="M501.76 523.537l-0.58 1.604 0.341 0.034c0.102 0 0.375 0.102 0.478 0.273l0.58 1.229 0.273-0.171c0 0 1.434-0.922 2.492-0.58 1.058 0.375 1.98 1.877 2.014 1.911l0.205 0.341 0.273-0.273c0 0 1.434-1.536 2.97-1.263 1.57 0.273 2.15 1.434 2.185 1.434l0.205 0.375 0.273-0.341c0 0 1.058-1.195 2.253-1.092 1.229 0.102 2.526 1.775 2.526 1.775l0.239 0.307 0.239-0.273c0 0 1.263-1.604 2.492-1.707 1.229-0.068 2.731 0.956 2.731 0.956l0.205 0.171 0.171-0.205c0.546-0.683 1.331-1.126 2.185-1.263 1.263-0.102 2.935 1.297 2.935 1.297l0.341 0.273 0.102-0.444c0-0.034 0.478-1.707 1.809-1.911 1.434-0.205 2.594 0.478 2.594 0.478l0.171 0.102 1.638-1.434-0.614-1.604-0.239 0.068c-4.369 1.263-10.308 1.98-16.657 1.98-6.246 0-12.117-0.717-16.521-1.98l-0.307-0.068zM518.554 526.165c6.281 0 12.151-0.683 16.555-1.911l0.273 0.751-1.024 0.887c-0.41-0.205-1.502-0.649-2.799-0.478-1.263 0.205-1.877 1.331-2.15 1.946-0.58-0.444-1.911-1.263-3.038-1.195-0.922 0.137-1.775 0.58-2.389 1.263-0.512-0.307-1.741-0.99-2.901-0.922-1.126 0.102-2.219 1.161-2.662 1.673-0.478-0.512-1.57-1.638-2.697-1.741-1.092-0.102-2.014 0.614-2.458 1.024-0.341-0.444-1.058-1.195-2.389-1.399-1.434-0.239-2.697 0.717-3.243 1.195-0.341-0.512-1.161-1.502-2.116-1.843-0.99-0.341-2.185 0.171-2.697 0.478l-0.307-0.649c-0.137-0.273-0.375-0.41-0.58-0.478l0.171-0.512c4.437 1.229 10.24 1.911 16.452 1.911z" />
<glyph unicode="&#xe95d;" horiz-adv-x="1365" d="M504.388 534.903c-0.683 0-1.229 0.512-1.229 1.195 0 0.649 0.546 1.161 1.229 1.161s1.229-0.512 1.229-1.161c0-0.649-0.546-1.195-1.229-1.195zM504.388 536.781c-0.41 0-0.751-0.307-0.751-0.683 0-0.41 0.341-0.717 0.751-0.717s0.751 0.307 0.751 0.717c0.034 0.375-0.307 0.683-0.751 0.683zM504.969 538.214c-0.683 0-1.229 0.512-1.229 1.161s0.546 1.195 1.229 1.195c0.683 0 1.229-0.512 1.229-1.195-0.034-0.649-0.546-1.161-1.229-1.161zM504.969 540.092c-0.41 0-0.751-0.307-0.751-0.717 0-0.375 0.341-0.683 0.785-0.683 0.41 0 0.751 0.307 0.751 0.683-0.034 0.41-0.375 0.717-0.785 0.717zM507.426 540.262c-0.649 0-1.195 0.512-1.195 1.161v0c0 0.649 0.546 1.195 1.229 1.195s1.229-0.546 1.229-1.195c0-0.649-0.58-1.161-1.263-1.161zM506.675 541.457c0-0.205 0.102-0.375 0.239-0.512s0.341-0.205 0.512-0.205c0.444 0 0.785 0.307 0.785 0.717 0 0.375-0.375 0.717-0.785 0.717-0.41-0.034-0.751-0.341-0.751-0.717zM513.707 541.15c-0.614 0-1.161 0.512-1.195 1.161v0c0 0.649 0.546 1.195 1.229 1.195s1.229-0.512 1.229-1.195c0-0.649-0.58-1.161-1.263-1.161zM512.99 542.31c0.034-0.41 0.341-0.717 0.751-0.683 0.41 0 0.751 0.307 0.751 0.683 0 0.41-0.341 0.717-0.751 0.717s-0.751-0.307-0.751-0.717zM510.566 541.286c-0.683 0-1.229 0.546-1.229 1.161 0 0.649 0.546 1.195 1.229 1.195s1.229-0.546 1.229-1.195c0-0.649-0.546-1.161-1.229-1.161zM510.566 543.164c-0.444 0-0.785-0.307-0.785-0.751 0-0.375 0.375-0.683 0.785-0.683s0.751 0.307 0.751 0.683c0 0.41-0.341 0.751-0.751 0.751z" />
<glyph unicode="&#xe95e;" horiz-adv-x="1365" d="M493.705 531.354c-0.683 0-1.229 0.546-1.229 1.195s0.546 1.195 1.229 1.195c0.649 0 1.229-0.546 1.229-1.195s-0.546-1.195-1.229-1.195zM493.705 533.265c-0.444 0-0.785-0.307-0.785-0.717 0-0.375 0.375-0.717 0.785-0.717s0.751 0.307 0.751 0.717c0 0.375-0.341 0.717-0.751 0.717zM494.080 534.835c-0.683 0-1.229 0.546-1.229 1.195s0.546 1.161 1.229 1.161c0.683 0 1.229-0.512 1.229-1.161 0-0.683-0.546-1.195-1.229-1.195zM494.080 536.713c-0.444 0-0.785-0.307-0.785-0.683s0.375-0.717 0.785-0.717c0.41 0 0.751 0.307 0.751 0.717 0 0.375-0.307 0.683-0.751 0.683zM496.265 537.498c-0.307 0-0.58 0.102-0.785 0.307-0.239 0.205-0.375 0.512-0.375 0.819v0c0 0.649 0.546 1.195 1.229 1.195 0.649 0 1.229-0.546 1.229-1.195s-0.546-1.161-1.229-1.161c-0.034 0.034-0.034 0.034-0.068 0.034zM496.333 539.375c-0.444 0-0.785-0.307-0.785-0.717v0c0.034-0.41 0.375-0.717 0.785-0.683 0.444 0 0.785 0.307 0.785 0.683-0.034 0.375-0.375 0.717-0.785 0.717zM502.477 538.795c-0.649 0-1.229 0.546-1.229 1.195s0.546 1.195 1.229 1.195c0.649 0 1.229-0.546 1.229-1.195s-0.58-1.195-1.229-1.195zM502.477 540.672c-0.41 0-0.751-0.307-0.751-0.717 0-0.375 0.341-0.717 0.751-0.717s0.751 0.341 0.751 0.717c0 0.41-0.341 0.717-0.751 0.717zM499.268 538.897c-0.649 0-1.195 0.512-1.195 1.161v0.034c0 0.649 0.546 1.161 1.229 1.161s1.229-0.512 1.229-1.161c0-0.683-0.58-1.195-1.263-1.195zM498.313 540.092l0.239-0.034c0-0.205 0.102-0.375 0.239-0.512s0.341-0.205 0.512-0.205c0.41 0 0.751 0.341 0.751 0.751 0 0.375-0.341 0.683-0.751 0.683s-0.751-0.307-0.751-0.683h-0.239z" />
<glyph unicode="&#xe95f;" horiz-adv-x="1365" d="M518.554 530.739l0.614-0.102c-0.102-0.273-0.102-0.512-0.102-0.853 0-1.263 1.092-2.321 2.458-2.321 1.092 0 2.014 0.649 2.321 1.604 0.034-0.034 0.239 0.853 0.341 0.853s0.068-0.887 0.102-0.887c0.171-1.161 1.229-1.98 2.423-1.98 1.365 0 2.458 1.024 2.458 2.321l-0.034 0.273 0.785 0.785 0.41-0.956c-0.171-0.307-0.205-0.649-0.205-1.024 0-1.229 1.024-2.219 2.321-2.219 0.819 0 1.536 0.375 1.946 0.956l0.512 0.649v-0.785c0-0.785 0.307-1.468 1.058-1.57 0 0 0.887-0.068 2.014 0.853 1.161 0.887 1.775 1.638 1.775 1.638l0.068-0.922c0 0-1.126-1.843-2.15-2.423-0.546-0.341-1.399-0.649-2.082-0.546-0.717 0.102-1.195 0.649-1.502 1.331-0.512-0.273-1.092-0.478-1.775-0.478-1.365 0-2.628 0.785-3.106 1.877-1.365-1.434-3.652-1.468-5.086-0.102-0.102 0.102-0.171 0.171-0.239 0.273-1.468-1.331-3.721-1.229-5.086 0.239-0.102 0.102-0.205 0.239-0.273 0.341-1.126-1.604-3.345-1.98-4.983-0.853-0.137 0.102-0.239 0.171-0.341 0.273-0.649-0.785-1.638-1.263-2.765-1.263-1.024 0-1.911 0.41-2.56 1.092-0.478-1.092-1.741-1.877-3.14-1.877-0.649 0-1.229 0.171-1.775 0.478-0.239-0.649-0.751-1.229-1.468-1.331-0.649-0.137-1.536 0.205-2.082 0.546-1.024 0.58-2.253 2.423-2.253 2.423l0.171 0.922c0 0 0.614-0.751 1.775-1.638s2.014-0.853 2.014-0.853c0.751 0.137 1.058 0.819 1.058 1.57v0.785l0.512-0.649c0.41-0.58 1.126-0.99 1.946-0.99 1.331 0 2.355 0.99 2.355 2.219 0 0.341-0.068 0.683-0.205 1.024l0.41 0.956 0.785-0.785-0.034-0.273c0-1.297 1.092-2.321 2.423-2.321 1.229 0 2.287 0.819 2.458 1.98 0.034-0.034 0.034 0.887 0.102 0.887 0.102 0 0.307-0.887 0.341-0.853 0.341-0.922 1.263-1.604 2.321-1.604 1.331-0.034 2.423 0.99 2.492 2.321 0 0.273-0.034 0.546-0.102 0.819l0.58 0.171z" />
<glyph unicode="&#xe960;" horiz-adv-x="1365" d="M501.18 523.81c-0.785 0-1.638 0.478-1.911 0.614-1.092 0.58-2.287 2.423-2.321 2.526l-0.068 0.102 0.273 1.638 0.41-0.478c0 0 0.614-0.751 1.707-1.604 1.024-0.819 1.809-0.785 1.843-0.785 0.683 0.137 0.785 0.853 0.785 1.297v1.604l1.024-1.297c0.41-0.546 1.024-0.887 1.707-0.887 1.161 0 2.082 0.853 2.082 1.946 0 0.307-0.068 0.614-0.205 0.887l-0.068 0.102 0.614 1.502 1.161-1.161-0.034-0.41c0-1.092 0.956-2.014 2.15-2.014 1.126 0 2.014 0.717 2.15 1.741l0.034 0.205c0 0.034 0 0.068 0 0.102 0.034 0.512 0.034 0.819 0.375 0.819 0.273 0 0.375-0.273 0.512-0.819 0 0 0 0 0 0l0.068-0.205c0.307-0.853 1.126-1.434 2.048-1.434 1.161-0.034 2.15 0.887 2.185 2.048 0 0.239-0.034 0.478-0.102 0.717l-0.102 0.307 1.297 0.239v-0.102l0.717-0.102-0.102-0.341c-0.068-0.205-0.102-0.41-0.102-0.751 0-1.126 0.99-2.014 2.185-2.014 0.956 0 1.775 0.546 2.048 1.399l0.102 0.307c0.137 0.444 0.239 0.717 0.512 0.717 0.341 0 0.341-0.341 0.375-0.922 0-0.068 0-0.102 0-0.137v-0.068c0.137-0.99 1.058-1.741 2.15-1.741 1.195 0 2.185 0.922 2.185 2.048l-0.034 0.375 1.161 1.161 0.649-1.502-0.068-0.137c-0.137-0.205-0.171-0.478-0.171-0.887 0-1.058 0.887-1.911 2.048-1.911 0.717 0 1.365 0.307 1.707 0.853l1.024 1.297v-1.604c0-0.444 0.102-1.161 0.819-1.297 0 0 0.785-0.034 1.775 0.785 1.126 0.887 1.741 1.604 1.741 1.604l0.444 0.546 0.137-1.741-0.034-0.068c-0.034-0.068-1.161-1.911-2.253-2.526-0.614-0.375-1.536-0.717-2.287-0.58-0.649 0.068-1.195 0.512-1.57 1.229-0.512-0.239-1.058-0.375-1.638-0.375-1.331 0-2.56 0.683-3.174 1.707-1.502-1.263-3.755-1.229-5.188 0.171-0.034 0.034-0.068 0.068-0.068 0.068-0.717-0.58-1.638-0.853-2.56-0.819-1.024 0.034-1.98 0.478-2.697 1.263-0.034 0.034-0.034 0.034-0.068 0.068-1.263-1.468-3.516-1.775-5.12-0.614-0.068 0.034-0.102 0.068-0.171 0.137-0.751-0.751-1.741-1.161-2.799-1.161-0.922 0-1.809 0.307-2.492 0.922-0.614-1.024-1.877-1.707-3.209-1.707-0.58 0-1.092 0.137-1.638 0.375-0.341-0.683-0.922-1.126-1.57-1.229-0.137 0-0.239 0-0.375 0zM497.493 527.155c0.239-0.375 1.263-1.775 2.082-2.253 0.512-0.307 1.331-0.649 1.877-0.512 0.546 0.068 1.024 0.512 1.263 1.161l0.102 0.307 0.307-0.171c0.512-0.307 1.058-0.444 1.604-0.444 1.229 0 2.423 0.717 2.867 1.707l0.171 0.41 0.307-0.307c0.614-0.649 1.434-1.024 2.355-1.024 0.99 0 1.911 0.444 2.56 1.161l0.205 0.239 0.205-0.205c0.102-0.102 0.205-0.171 0.341-0.273 1.468-1.058 3.516-0.683 4.574 0.785l0.239 0.341 0.239-0.341c0.068-0.102 0.171-0.205 0.273-0.307 0.58-0.649 1.399-1.024 2.287-1.058s1.741 0.273 2.389 0.853l0.205 0.205 0.205-0.239c0.068-0.102 0.137-0.171 0.239-0.239 1.297-1.263 3.413-1.229 4.676 0.102l0.307 0.307 0.171-0.41c0.444-1.024 1.57-1.707 2.833-1.707 0.58 0 1.126 0.137 1.604 0.41l0.273 0.171 0.137-0.307c0.205-0.478 0.58-1.058 1.263-1.161 0.614-0.102 1.399 0.205 1.911 0.512 0.819 0.478 1.775 1.911 1.98 2.253v0.171c-0.307-0.307-0.751-0.717-1.365-1.195-1.195-0.956-2.15-0.887-2.185-0.887-0.819 0.137-1.297 0.819-1.331 1.809-0.444-0.649-1.263-1.058-2.15-1.058-1.468 0-2.628 1.092-2.628 2.492 0 0.273 0.034 0.649 0.205 1.024l-0.205 0.444-0.375-0.375v-0.137c0-1.468-1.229-2.628-2.765-2.628-1.297 0-2.389 0.853-2.662 2.014-0.41-0.956-1.399-1.604-2.492-1.604-1.502 0-2.765 1.161-2.765 2.594 0 0.171 0 0.375 0.034 0.614l-0.341 0.034-0.205-0.034c0.034-0.205 0.068-0.41 0.034-0.614-0.034-1.468-1.297-2.628-2.765-2.594-1.092 0-2.082 0.649-2.526 1.604-0.273-1.195-1.365-2.014-2.697-2.014-1.502 0-2.697 1.161-2.697 2.628v0.171l-0.375 0.375-0.171-0.444c0.137-0.307 0.205-0.683 0.205-1.024 0-1.399-1.161-2.492-2.628-2.492-0.853 0-1.673 0.41-2.15 1.092 0-0.99-0.512-1.673-1.297-1.809-0.068 0-1.024-0.068-2.253 0.887-0.614 0.478-1.092 0.956-1.399 1.263l-0.102-0.273z" />
<glyph unicode="&#xe961;" horiz-adv-x="1365" d="M501.487 522.342c-0.375 0-0.751 0.273-0.853 0.58-0.137 0.444 0.137 0.956 0.58 1.092 4.471 1.365 10.615 2.15 17.306 2.185 6.519 0 12.834-0.785 17.34-2.185 0.205-0.068 0.41-0.239 0.512-0.444s0.137-0.444 0.068-0.614c-0.137-0.375-0.649-0.683-1.092-0.546-5.495 1.434-11.127 2.15-16.828 2.048v0c-6.281 0-12.254-0.717-16.794-2.048-0.102-0.034-0.171-0.068-0.239-0.068zM518.519 525.619c-6.622-0.034-12.698-0.785-17.135-2.15-0.137-0.034-0.239-0.205-0.205-0.341 0.034-0.102 0.239-0.239 0.375-0.171 4.608 1.331 10.615 2.082 16.964 2.082 5.734 0.102 11.435-0.614 16.998-2.082 0.137-0.034 0.341 0.068 0.375 0.205 0 0.034 0 0.102-0.034 0.171s-0.102 0.137-0.171 0.171c-4.471 1.331-10.718 2.116-17.169 2.116z" />
<glyph unicode="&#xe962;" horiz-adv-x="1365" d="M506.266 520.738c-0.478 0-0.853 0.307-0.99 0.785-0.034 0.273 0 0.512 0.171 0.717 0.137 0.205 0.375 0.341 0.614 0.375 0.034 0 0.068 0 0.068 0l1.536 0.205 1.536 0.239c0.58 0.068 1.058-0.273 1.161-0.785 0.034-0.273-0.034-0.546-0.205-0.751s-0.375-0.341-0.649-0.375l-1.57-0.239-1.536-0.205c-0.034 0.034-0.102 0.034-0.137 0.034zM509.303 522.513c-0.034 0-0.034 0-0.068 0l-1.536-0.239-1.604-0.239c-0.102 0-0.171-0.068-0.239-0.137s-0.068-0.171-0.068-0.273c0.034-0.205 0.273-0.341 0.478-0.307l1.536 0.205 1.57 0.239c0.102 0 0.205 0.068 0.273 0.137 0.068 0.102 0.102 0.205 0.068 0.307 0.034 0.171-0.171 0.307-0.41 0.307z" />
<glyph unicode="&#xe963;" horiz-adv-x="1365" d="M530.807 520.738c-0.068 0-0.102 0-0.171 0l-1.536 0.205-1.536 0.239c-0.273 0.034-0.512 0.171-0.683 0.375s-0.205 0.478-0.171 0.717c0.102 0.512 0.614 0.853 1.161 0.785l3.14-0.478c0.512-0.102 0.853-0.58 0.785-1.092-0.102-0.444-0.512-0.751-0.99-0.751zM529.169 521.523l1.536-0.205c0.239-0.034 0.444 0.102 0.478 0.307s-0.102 0.41-0.307 0.444l-3.14 0.478c-0.239 0.034-0.478-0.137-0.512-0.307 0-0.102 0-0.171 0.068-0.273s0.171-0.171 0.307-0.171l1.57-0.273z" />
<glyph unicode="&#xe964;" horiz-adv-x="1365" d="M534.699 526.814c-0.068 0-0.137 0-0.205 0.034-0.171 0.068-0.341 0.171-0.444 0.375-0.137 0.239-0.137 0.614-0.068 0.922 0.171 0.546 0.717 0.887 1.161 0.751 0.205-0.068 0.341-0.205 0.444-0.375 0.068-0.137 0.102-0.307 0.102-0.512h0.068l-0.137-0.375c-0.137-0.512-0.512-0.819-0.922-0.819zM534.972 528.316c-0.137 0-0.341-0.137-0.41-0.41-0.068-0.205-0.034-0.375 0-0.478 0-0.034 0.034-0.068 0.068-0.068 0.102-0.034 0.273 0.068 0.375 0.273l0.068 0.171c0.068 0.137 0.068 0.307 0 0.41-0.034 0.068-0.068 0.102-0.102 0.102 0.034 0 0.034 0 0 0z" />
<glyph unicode="&#xe965;" horiz-adv-x="1365" d="M524.117 528.759c-0.034 0-0.068 0-0.102 0-0.171 0-0.341 0.102-0.478 0.273-0.171 0.239-0.239 0.546-0.205 0.887 0.034 0.307 0.205 0.614 0.41 0.819 0.171 0.137 0.375 0.205 0.58 0.171s0.375-0.137 0.512-0.307c0.171-0.239 0.239-0.546 0.205-0.853v0c-0.102-0.614-0.512-0.99-0.922-0.99zM524.22 530.33c-0.034 0-0.102-0.034-0.102-0.034-0.068-0.068-0.171-0.205-0.205-0.41-0.034-0.239 0.034-0.375 0.068-0.478 0.034-0.068 0.068-0.068 0.102-0.068 0.171-0.034 0.341 0.205 0.375 0.478 0.034 0.171 0 0.341-0.102 0.444-0.034 0-0.068 0.068-0.137 0.068 0 0 0 0 0 0z" />
<glyph unicode="&#xe966;" horiz-adv-x="1365" d="M512.956 528.759c-0.171 0-0.341 0.068-0.478 0.171-0.239 0.171-0.375 0.478-0.41 0.785-0.034 0.341 0.034 0.649 0.205 0.887 0.137 0.171 0.307 0.273 0.478 0.307 0.478 0.068 0.922-0.341 0.99-0.956 0.034-0.375-0.034-0.683-0.239-0.922-0.137-0.137-0.307-0.239-0.478-0.239 0-0.034-0.034-0.034-0.068-0.034zM512.853 530.33c0 0 0 0 0 0-0.068 0-0.102-0.034-0.137-0.068-0.068-0.102-0.102-0.273-0.068-0.444v0c0-0.171 0.102-0.307 0.205-0.41 0.034-0.034 0.102-0.068 0.171-0.068 0.034 0 0.068 0.034 0.102 0.034 0.068 0.068 0.137 0.239 0.102 0.478-0.068 0.273-0.239 0.478-0.375 0.478z" />
<glyph unicode="&#xe967;" horiz-adv-x="1365" d="M502.374 526.814c-0.41 0-0.785 0.307-0.956 0.785l-0.137 0.375h0.068c0 0.171 0.034 0.341 0.102 0.512 0.102 0.205 0.239 0.341 0.444 0.375 0.444 0.137 0.956-0.205 1.161-0.751 0.102-0.307 0.102-0.649-0.034-0.922-0.102-0.205-0.239-0.307-0.444-0.375-0.068 0-0.137 0-0.205 0zM502.033 527.599c0.102-0.171 0.273-0.273 0.375-0.239 0.034 0 0.068 0.068 0.068 0.102 0.034 0.102 0.068 0.273 0 0.478-0.102 0.273-0.341 0.444-0.444 0.41-0.034 0-0.068-0.068-0.102-0.102-0.034-0.102-0.068-0.239 0-0.444l0.102-0.205z" />
<glyph unicode="&#xe968;" horiz-adv-x="1365" d="M520.294 542.037h-3.823v1.946h1.024v2.219h-1.365v1.946h1.365v1.263h1.98v-1.263h1.331v-1.946h-1.331v-2.219h0.751l0.034-0.341v-1.604zM517.154 542.686h2.492v0.614h-0.785v3.516h1.331v0.649h-1.331v1.263h-0.649v-1.263h-1.365v-0.649h1.365v-3.516h-1.024v-0.614z" />
<glyph unicode="&#xe969;" horiz-adv-x="1365" d="M518.485 540.74c-1.229 0-2.219 0.956-2.287 2.15v0 0.068c0 0.99 0.717 1.877 1.707 2.116l0.137-0.546c-0.751-0.205-1.263-0.819-1.297-1.57v0c0.034-0.922 0.785-1.673 1.741-1.673v0h0.034c0.444 0 0.887 0.171 1.195 0.478 0.341 0.307 0.512 0.751 0.512 1.195 0 0.717-0.512 1.365-1.263 1.536l0.137 0.546c0.99-0.239 1.707-1.126 1.707-2.116 0-0.614-0.273-1.161-0.683-1.604s-1.024-0.649-1.604-0.614c0 0.034-0.034 0.034-0.034 0.034z" />
<glyph unicode="&#xe96a;" horiz-adv-x="1365" d="M496.094 527.155h-0.137c-0.137 0-0.171 0.034-0.375 0.273-0.273 0.341-0.819 1.024-1.263 1.399-0.341 0.307-1.092 0.58-1.365 0.683l-0.205 0.068v0.205c0 0.444 0.819 0.887 1.57 0.887 0.273 0 0.546-0.068 0.785-0.205l0.034 0.239 0.307-0.068c0.034 0 0.717-0.137 0.99-0.887 0.273-0.717 0.102-1.707 0.102-1.741-0.034-0.068-0.137-0.546-0.341-0.785l-0.102-0.068zM493.568 529.886c0.375-0.137 0.853-0.375 1.161-0.649 0.41-0.341 0.887-0.922 1.195-1.297 0.034 0.068 0.068 0.171 0.068 0.205 0 0 0 0 0 0s0.137 0.853-0.068 1.399c-0.068 0.171-0.205 0.307-0.307 0.375l-0.102-0.717-0.41 0.546c-0.171 0.205-0.444 0.341-0.751 0.341-0.341 0-0.614-0.102-0.785-0.205z" />
<glyph unicode="&#xe96b;" horiz-adv-x="1365" d="M496.981 526.302c-0.307 0-0.649 0.137-0.922 0.375s-0.478 0.58-0.478 0.887c0 0.239 0.068 0.444 0.239 0.614 0.375 0.375 1.058 0.341 1.57-0.102 0.273-0.239 0.478-0.58 0.478-0.887 0-0.239-0.068-0.444-0.239-0.614-0.137-0.137-0.341-0.239-0.546-0.273-0.034 0-0.068 0-0.102 0zM496.435 527.872c-0.102 0-0.171-0.034-0.205-0.068v0c-0.034-0.034-0.068-0.102-0.068-0.171 0-0.171 0.102-0.341 0.273-0.478 0.171-0.171 0.41-0.273 0.58-0.239 0.068 0 0.137 0.034 0.171 0.068 0.068 0.068 0.068 0.137 0.068 0.205 0 0.171-0.102 0.341-0.273 0.478s-0.375 0.205-0.546 0.205z" />
<glyph unicode="&#xe96c;" horiz-adv-x="1365" d="M540.672 527.155h-0.137l-0.068 0.102c-0.239 0.273-0.375 0.717-0.375 0.785s-0.137 1.058 0.102 1.741c0.307 0.751 0.99 0.887 1.024 0.887l0.273 0.068 0.068-0.273c0.239 0.137 0.512 0.205 0.785 0.205 0.751 0 1.57-0.478 1.57-0.887v-0.205l-0.205-0.068c-0.273-0.102-1.058-0.375-1.399-0.683-0.41-0.375-0.956-1.058-1.229-1.365-0.239-0.273-0.273-0.307-0.41-0.307zM541.013 529.988c-0.102-0.068-0.239-0.205-0.307-0.41-0.205-0.546-0.068-1.434-0.068-1.434 0-0.034 0.034-0.137 0.068-0.205 0.307 0.375 0.785 0.956 1.195 1.331 0.307 0.273 0.819 0.478 1.161 0.649-0.205 0.102-0.478 0.205-0.785 0.205-0.273 0-0.58-0.137-0.751-0.341l-0.375-0.444-0.137 0.649zM543.334 529.715v0 0z" />
<glyph unicode="&#xe96d;" horiz-adv-x="1365" d="M539.682 526.302c-0.034 0-0.034 0-0.068 0-0.239 0-0.444 0.102-0.58 0.273-0.137 0.137-0.205 0.341-0.205 0.614 0 0.341 0.205 0.649 0.478 0.922 0.512 0.444 1.195 0.512 1.57 0.102 0.137-0.137 0.239-0.375 0.205-0.614 0-0.341-0.205-0.683-0.512-0.922-0.239-0.239-0.58-0.375-0.887-0.375zM540.228 527.872c-0.171 0-0.375-0.068-0.546-0.239-0.171-0.137-0.273-0.341-0.273-0.512 0-0.068 0-0.137 0.068-0.171 0.068-0.068 0.102-0.102 0.205-0.102 0.171 0 0.41 0.068 0.58 0.239 0.171 0.137 0.307 0.341 0.307 0.512 0 0.068 0 0.137-0.068 0.171-0.068 0.068-0.171 0.102-0.273 0.102z" />
<glyph unicode="&#xe96e;" horiz-adv-x="1365" d="M499.268 493.397c-0.171 0-0.341 0.102-0.41 0.273-0.068 0.239 0.034 0.478 0.273 0.546 0.034 0 0.034 0 0.068 0.034 1.092 0.375 1.809 1.365 1.809 2.492 0 1.092-0.819 2.15-1.946 2.526-0.239 0.068-0.341 0.307-0.273 0.546s0.307 0.341 0.512 0.273c0.375-0.102 0.683-0.171 0.956-0.171h36.762c0.205 0 0.41 0 0.58 0.034 0.034 0 0.068 0.034 0.102 0.034 0 0 0.034 0 0.034 0l0.205 0.034c0.239 0.034 0.444-0.102 0.512-0.307s-0.068-0.444-0.273-0.512c-0.137-0.034-0.239-0.068-0.375-0.102-0.99-0.375-1.604-1.263-1.604-2.389 0-0.887 0.546-1.946 1.638-2.389 0.068-0.034 0.171-0.068 0.239-0.068 0.205-0.102 0.307-0.307 0.239-0.546-0.068-0.205-0.307-0.341-0.512-0.273-0.068 0.034-0.137 0.034-0.239 0.068-0.171 0.034-0.341 0.068-0.546 0.068h-36.796c-0.273 0-0.512-0.034-0.785-0.137-0.034 0-0.034 0-0.068-0.034 0 0-0.034 0-0.102 0zM500.975 494.421h35.294c-0.546 0.614-0.887 1.434-0.887 2.287 0 0.922 0.307 1.741 0.853 2.355h-35.328c0.58-0.649 0.956-1.468 0.956-2.321 0-0.887-0.341-1.707-0.887-2.321z" />
<glyph unicode="&#xe96f;" horiz-adv-x="1365" d="M484.318 285.935c3.379 0 6.417 0.717 8.636 1.911 2.219 1.092 5.188 1.809 8.499 1.809s6.383-0.717 8.602-1.843c2.219-1.161 5.291-1.877 8.636-1.877 3.004-0.034 5.973 0.649 8.636 1.98 2.219 1.092 5.12 1.775 8.363 1.775 2.935 0.068 5.837-0.546 8.465-1.809 2.219-1.195 5.325-1.946 8.704-1.946v-5.291c-3.004-0.034-6.007 0.614-8.704 1.946-2.219 1.161-5.154 1.809-8.499 1.809-3.209 0-6.178-0.649-8.329-1.775-2.219-1.195-5.291-1.98-8.636-1.98-2.97-0.034-5.939 0.614-8.636 1.877-2.219 1.161-5.291 1.843-8.602 1.843s-6.315-0.717-8.533-1.843c-2.662-1.297-5.598-1.946-8.602-1.877v5.291z" />
<glyph unicode="&#xe970;" horiz-adv-x="1365" d="M484.762 280.201c-0.137 0-0.273 0-0.444 0h-0.41l-0.034 6.144h0.444c3.174 0 6.178 0.649 8.465 1.877 2.389 1.195 5.495 1.843 8.704 1.843 3.243 0 6.451-0.683 8.772-1.877 2.287-1.195 5.257-1.843 8.465-1.843 2.935-0.034 5.837 0.614 8.465 1.946 2.321 1.161 5.359 1.809 8.567 1.809 2.97 0.068 5.973-0.58 8.67-1.843 2.253-1.195 5.359-1.911 8.499-1.911h0.444v-6.144h-0.41c-3.072-0.034-6.144 0.649-8.909 1.98-2.219 1.161-5.086 1.775-8.294 1.775-3.072 0-5.973-0.614-8.158-1.707-2.389-1.297-5.598-2.014-8.841-2.014-3.038-0.034-6.076 0.614-8.806 1.946-2.219 1.161-5.257 1.809-8.397 1.809s-6.076-0.649-8.363-1.809c-2.662-1.297-5.53-1.98-8.431-1.98zM484.727 285.525l0.034-4.471c2.765 0 5.495 0.649 7.987 1.843 2.355 1.229 5.461 1.877 8.738 1.877s6.451-0.683 8.772-1.911c2.594-1.263 5.53-1.877 8.431-1.843 3.106 0 6.178 0.717 8.465 1.946 2.321 1.161 5.359 1.809 8.533 1.809 3.345 0 6.349-0.649 8.704-1.843 2.492-1.229 5.291-1.877 8.055-1.877v4.437c-3.14 0.068-6.212 0.785-8.465 1.98-2.56 1.229-5.427 1.843-8.26 1.741-3.072 0-5.973-0.614-8.192-1.707-2.731-1.365-5.803-2.082-8.841-2.014-3.311 0-6.451 0.683-8.841 1.946-2.219 1.126-5.257 1.775-8.397 1.775-3.072 0-6.042-0.614-8.294-1.775-2.287-1.161-5.257-1.843-8.431-1.911z" />
<glyph unicode="&#xe971;" horiz-adv-x="1365" d="M484.318 280.644c3.004-0.068 5.973 0.58 8.636 1.877 2.219 1.161 5.188 1.843 8.499 1.843s6.383-0.717 8.602-1.843c2.219-1.161 5.291-1.877 8.636-1.877 3.379 0 6.417 0.785 8.636 1.98 2.219 1.092 5.12 1.775 8.363 1.775 3.311 0 6.246-0.649 8.465-1.809s5.325-1.946 8.704-1.946v-5.291c-3.004-0.068-5.973 0.614-8.704 1.911-2.219 1.161-5.154 1.809-8.499 1.809-3.209 0-6.178-0.649-8.329-1.775-2.219-1.195-5.291-1.98-8.636-1.98-2.97-0.034-5.939 0.614-8.636 1.877-2.219 1.161-5.291 1.843-8.602 1.843s-6.315-0.717-8.533-1.843c-2.662-1.331-5.598-1.98-8.602-1.911v5.359z" />
<glyph unicode="&#xe972;" horiz-adv-x="1365" d="M484.693 274.91c-0.137 0-0.239 0-0.375 0h-0.41l-0.034 6.178h0.444c2.901-0.068 5.837 0.58 8.465 1.843 2.355 1.229 5.427 1.877 8.704 1.877s6.451-0.683 8.772-1.911c2.253-1.195 5.257-1.843 8.465-1.843 3.106 0 6.11 0.683 8.465 1.946 2.355 1.161 5.393 1.809 8.567 1.809 3.311 0 6.315-0.649 8.67-1.843 2.287-1.195 5.393-1.877 8.499-1.877h0.444v-6.144h-0.41c-3.072-0.068-6.144 0.614-8.909 1.946-2.219 1.161-5.086 1.775-8.294 1.775-3.072 0-5.973-0.614-8.158-1.707-2.389-1.297-5.598-2.014-8.841-2.014-3.038-0.034-6.076 0.614-8.806 1.946-2.219 1.161-5.257 1.809-8.397 1.809-3.106 0-6.076-0.649-8.363-1.775-2.662-1.331-5.564-2.014-8.499-2.014zM484.727 280.201l0.034-4.437c2.765 0 5.495 0.649 7.987 1.877 2.389 1.195 5.495 1.877 8.738 1.877 3.277 0 6.451-0.683 8.772-1.911 2.594-1.263 5.495-1.877 8.431-1.843 3.106 0 6.178 0.717 8.465 1.946 2.321 1.161 5.359 1.809 8.533 1.809 3.345 0 6.349-0.649 8.704-1.843 2.492-1.229 5.291-1.843 8.055-1.877v4.437c-3.106 0.068-6.178 0.785-8.465 1.98-2.185 1.126-5.154 1.741-8.26 1.741-3.072 0-5.973-0.614-8.158-1.707-2.458-1.297-5.598-2.014-8.841-2.014-3.311 0-6.451 0.683-8.841 1.946-2.185 1.161-5.257 1.809-8.397 1.809-3.106 0-6.076-0.649-8.294-1.809-2.662-1.297-5.564-1.98-8.465-1.98z" />
<glyph unicode="&#xe973;" horiz-adv-x="1365" d="M484.318 275.319c3.379 0 6.417 0.717 8.636 1.911 2.219 1.092 5.188 1.843 8.499 1.843s6.383-0.717 8.602-1.843c2.219-1.161 5.291-1.877 8.636-1.877 3.379 0 6.417 0.785 8.636 1.98 2.219 1.092 5.12 1.775 8.363 1.775 3.311 0 6.246-0.649 8.465-1.809s5.325-1.946 8.704-1.946v-5.291c-3.004-0.068-6.007 0.614-8.704 1.946-2.219 1.126-5.154 1.775-8.499 1.775-3.209 0-6.178-0.649-8.329-1.741-2.219-1.195-5.291-1.98-8.636-1.98-2.97-0.034-5.939 0.614-8.636 1.877-2.219 1.161-5.291 1.843-8.602 1.843s-6.315-0.649-8.533-1.809c-2.662-1.331-5.598-1.98-8.602-1.877v5.222z" />
<glyph unicode="&#xe974;" horiz-adv-x="1365" d="M518.383 269.585c-2.935 0-5.871 0.683-8.499 1.946-2.185 1.126-5.257 1.775-8.397 1.775-3.174 0-6.144-0.614-8.363-1.741-2.731-1.331-5.769-2.014-8.806-1.946h-0.41l-0.034 5.7h0.444v0.444c3.174 0 6.178 0.649 8.465 1.877 2.423 1.229 5.495 1.877 8.704 1.877 3.277 0 6.451-0.683 8.772-1.911 2.253-1.195 5.257-1.843 8.465-1.843 3.106 0 6.11 0.683 8.465 1.946 2.355 1.161 5.393 1.809 8.567 1.809 3.311 0 6.315-0.649 8.67-1.843 2.287-1.195 5.393-1.877 8.499-1.877h0.444v-6.144h-0.41c-3.072-0.068-6.144 0.614-8.909 1.98-2.219 1.126-5.086 1.707-8.294 1.707-3.038 0-5.939-0.614-8.158-1.707-2.389-1.297-5.598-2.014-8.841-2.014-0.171-0.034-0.273-0.034-0.375-0.034zM501.487 274.193c3.277 0 6.485-0.683 8.772-1.877 2.594-1.263 5.53-1.877 8.431-1.843 3.106 0 6.178 0.717 8.465 1.946 2.355 1.161 5.359 1.775 8.533 1.775 3.379 0 6.383-0.614 8.704-1.809 2.492-1.229 5.291-1.877 8.055-1.877v4.437c-3.106 0.068-6.178 0.785-8.465 1.98-2.185 1.126-5.154 1.741-8.26 1.741-3.072 0-5.973-0.614-8.158-1.707-2.458-1.297-5.598-2.014-8.841-2.014-3.311 0-6.451 0.683-8.841 1.946-2.185 1.161-5.257 1.809-8.397 1.809-3.072 0-6.007-0.649-8.294-1.775-2.287-1.195-5.257-1.911-8.397-1.946l0.034-4.437c0 0 0 0 0 0 2.765 0 5.495 0.649 7.953 1.843 2.287 1.126 5.393 1.809 8.704 1.809z" />
<glyph unicode="&#xe975;" horiz-adv-x="1365" d="M484.352 264.738c2.97-0.068 5.905 0.58 8.602 1.911 2.219 1.126 5.222 1.809 8.533 1.809s6.383-0.683 8.602-1.843c2.219-1.161 5.291-1.877 8.636-1.877 3.004-0.034 5.973 0.649 8.636 1.98 2.219 1.092 5.12 1.775 8.363 1.775 3.311 0 6.246-0.649 8.465-1.809s5.325-1.946 8.704-1.946v5.291c-3.004-0.034-6.007 0.649-8.704 1.98-2.219 1.126-5.154 1.775-8.499 1.775-3.209 0-6.178-0.649-8.329-1.741-2.219-1.195-5.291-1.98-8.636-1.98-2.97-0.034-5.939 0.614-8.636 1.877-2.219 1.161-5.291 1.843-8.602 1.843s-6.315-0.649-8.533-1.809c-2.697-1.331-5.632-1.98-8.636-1.877l0.034-5.359z" />
<glyph unicode="&#xe976;" horiz-adv-x="1365" d="M484.727 264.294c-0.137 0-0.273 0-0.375 0h-0.41l-0.068 6.178h0.444c2.901-0.068 5.837 0.58 8.431 1.843 2.321 1.195 5.427 1.843 8.738 1.843 3.277 0 6.485-0.683 8.772-1.877 2.594-1.263 5.53-1.877 8.431-1.843 3.106 0 6.178 0.717 8.465 1.946 2.355 1.161 5.359 1.775 8.533 1.775 3.379 0 6.383-0.614 8.704-1.809 2.628-1.297 5.564-1.98 8.499-1.946h0.444v-6.144h-0.444c-3.243 0-6.485 0.717-8.909 1.98-2.185 1.126-5.154 1.741-8.26 1.741-3.072 0-5.973-0.614-8.158-1.707-2.731-1.365-5.803-2.082-8.841-2.014-3.277 0-6.417 0.683-8.841 1.946-2.185 1.126-5.222 1.775-8.397 1.775-3.14 0-6.076-0.614-8.329-1.775-2.628-1.229-5.53-1.911-8.431-1.911zM484.727 269.619l0.034-4.471c2.765 0 5.495 0.649 7.987 1.877 2.355 1.195 5.461 1.843 8.704 1.843 3.277 0 6.485-0.683 8.772-1.877 2.321-1.195 5.325-1.843 8.465-1.843 2.935-0.034 5.837 0.614 8.465 1.946 2.321 1.161 5.359 1.809 8.567 1.809 3.311 0 6.315-0.649 8.67-1.843 2.185-1.161 5.12-1.809 8.055-1.877v4.437c-2.935 0.034-5.837 0.717-8.465 2.014-2.219 1.126-5.086 1.707-8.294 1.707-3.038 0-5.939-0.614-8.158-1.707-2.389-1.297-5.598-2.014-8.841-2.014-3.038-0.034-6.076 0.614-8.806 1.946-2.185 1.126-5.257 1.775-8.397 1.775-3.174 0-6.144-0.614-8.363-1.741-2.594-1.297-5.495-1.98-8.397-1.98z" />
<glyph unicode="&#xe977;" horiz-adv-x="1365" d="M484.352 259.413c3.379 0 6.383 0.717 8.602 1.877 2.662 1.263 5.564 1.911 8.533 1.843 3.311 0 6.383-0.717 8.602-1.843 2.219-1.161 5.291-1.877 8.636-1.877 3.379 0 6.417 0.819 8.636 1.98 2.219 1.092 5.12 1.775 8.363 1.775 3.311 0 6.246-0.649 8.465-1.809s5.325-1.946 8.704-1.946v5.291c-3.004-0.034-6.007 0.649-8.704 1.98-2.219 1.126-5.154 1.775-8.499 1.775-3.209 0-6.178-0.649-8.329-1.741-2.219-1.161-5.291-1.98-8.636-1.98-2.97-0.034-5.939 0.614-8.636 1.877-2.219 1.161-5.291 1.843-8.602 1.843s-6.315-0.683-8.533-1.809c-2.697-1.331-5.632-1.98-8.636-1.911l0.034-5.325z" />
<glyph unicode="&#xe978;" horiz-adv-x="1365" d="M553.301 259.004h-0.444c-3.243 0-6.485 0.717-8.909 1.98-2.185 1.126-5.154 1.741-8.26 1.741-3.072 0-5.973-0.614-8.158-1.707-2.492-1.297-5.632-2.014-8.841-2.014-3.277 0-6.417 0.683-8.841 1.946-2.219 1.161-5.257 1.809-8.397 1.809-2.867 0.034-5.734-0.58-8.329-1.809-2.355-1.229-5.461-1.946-8.772-1.946h-0.444v0.444l-0.034 5.734h0.444c2.901-0.068 5.837 0.58 8.431 1.877 2.355 1.195 5.461 1.843 8.738 1.843s6.485-0.683 8.772-1.877c2.594-1.263 5.495-1.877 8.431-1.843 3.072 0 6.144 0.717 8.465 1.946 2.321 1.161 5.359 1.775 8.533 1.775 3.379 0 6.383-0.614 8.704-1.809 2.628-1.297 5.564-1.98 8.499-1.946h0.444v-6.144zM501.111 263.578c0.102 0 0.239 0 0.341 0 3.243 0 6.451-0.683 8.772-1.911 2.321-1.195 5.325-1.843 8.465-1.843 3.072 0 6.076 0.683 8.465 1.946 2.355 1.161 5.393 1.809 8.567 1.809 3.311 0 6.315-0.649 8.67-1.843 2.185-1.161 5.12-1.809 8.055-1.877v4.437c-2.935 0.034-5.837 0.717-8.465 2.014-2.219 1.126-5.086 1.707-8.294 1.707-3.038 0-5.939-0.614-8.158-1.707-2.423-1.297-5.666-2.014-8.841-2.014-3.038-0.068-6.076 0.614-8.806 1.946-2.185 1.126-5.257 1.775-8.397 1.775s-6.11-0.614-8.363-1.775c-2.594-1.263-5.495-1.946-8.397-1.98l0.034-4.437c3.004 0.068 5.803 0.717 7.953 1.843 2.628 1.263 5.53 1.911 8.397 1.911z" />
<glyph unicode="&#xe979;" horiz-adv-x="1365" d="M543.812 300.169h-50.483c-0.239 0-0.444 0.205-0.444 0.444s0.205 0.444 0.444 0.444c3.174 0 5.734 2.389 5.734 5.359 0 0.375-0.068 0.785-0.171 1.263-0.034 0.171 0 0.307 0.137 0.41s0.307 0.137 0.444 0.068c0.205-0.102 0.546-0.102 0.819-0.102h36.762c0.273 0 0.546 0.034 0.751 0.102 0.171 0.068 0.375 0 0.512-0.137 0.068-0.102 0.102-0.239 0.068-0.375l-0.034-0.171c-0.102-0.375-0.205-0.717-0.205-1.092 0-2.97 2.56-5.359 5.734-5.359 0.239 0 0.444-0.205 0.444-0.444s-0.273-0.41-0.512-0.41zM496.674 301.022h43.793c-1.946 1.092-3.243 3.072-3.243 5.359 0 0.307 0.034 0.546 0.102 0.819-0.102 0-0.205 0-0.307 0h-36.762c-0.137 0-0.273 0-0.41 0 0.034-0.273 0.068-0.546 0.068-0.819 0-2.287-1.297-4.267-3.243-5.359z" />
<glyph unicode="&#xe97a;" horiz-adv-x="1365" d="M547.123 336.111c-5.666 4.506-6.588 12.766-2.082 18.432 0.717 0.887 1.536 1.673 2.423 2.355l0.239 0.171 0.239-0.137c2.082-1.195 8.841-5.325 8.021-7.782-0.307-1.468-1.843-2.492-3.994-3.891l-0.307-0.205c-2.287-1.604-4.096-4.164-4.403-6.246-0.068-0.614-0.068-1.434 0.444-2.082l-0.58-0.614zM547.738 356.011c-0.751-0.58-1.468-1.263-2.048-2.048-3.857-4.813-3.447-11.708 0.683-16.043-0.034 0.307 0 0.614 0.034 0.956 0.307 2.321 2.219 5.086 4.745 6.861l0.307 0.205c1.98 1.297 3.413 2.253 3.652 3.379l0.034 0.068c0.341 0.956-2.082 3.55-7.407 6.622z" />
<glyph unicode="&#xe97b;" horiz-adv-x="1365" d="M536.986 312.73h-36.215v0.41h-0.444v175.753h36.625v-176.162zM501.214 313.583h34.918v174.455h-4.949v-174.421h-0.853v174.421h-3.14v-174.421h-0.853v174.421h-25.088v-174.455z" />
<glyph unicode="&#xe97c;" horiz-adv-x="1365" d="M553.984 407.415c-0.034 0-0.102 0-0.137 0.034-0.205 0.068-0.341 0.273-0.307 0.478l0.102 0.58c0.239 1.229-0.137 2.526-1.126 3.925-4.198 5.973-18.227 11.878-34.953 14.677-5.871 0.956-11.776 1.502-17.101 1.536-14.541-0.478-28.058-2.765-36.147-6.076-0.137-0.068-0.273-0.034-0.41 0.034-0.102 0.068-0.205 0.205-0.205 0.341l0.102 21.606c0 0.171 0.102 0.341 0.273 0.41 8.363 3.106 22.016 4.949 36.523 4.949 7.066 0.034 14.165-0.512 21.129-1.673 18.773-3.14 34.577-9.83 39.356-16.657 1.229-1.741 1.673-3.413 1.399-5.018-0.137-0.717-6.827-15.838-8.192-18.842 0.034-0.205-0.137-0.307-0.307-0.307zM500.531 429.466c5.359-0.034 11.332-0.58 17.237-1.536 16.93-2.833 31.198-8.875 35.499-15.019 0.683-0.956 1.092-1.877 1.263-2.799 3.106 6.997 7.031 16.009 7.202 16.589 0.239 1.365-0.171 2.833-1.229 4.369-4.676 6.656-20.275 13.21-38.81 16.282-6.895 1.161-13.961 1.707-20.992 1.673-14.268 0-27.648-1.775-35.942-4.779l-0.102-20.685c8.226 3.243 21.538 5.427 35.874 5.905z" />
<glyph unicode="&#xe97d;" horiz-adv-x="1365" d="M555.52 348.809c-0.034 0-0.068 0-0.102 0-0.205 0.068-0.341 0.273-0.307 0.478l0.034 0.273c0 0.171-0.068 0.375-0.137 0.512-1.229 2.594-9.626 8.021-18.637 11.127-1.673 0.58-16.35 5.837-23.040 9.045-15.326 7.339-27.477 15.77-28.843 20.002-0.205 0.614-0.205 1.161 0.034 1.604 0.41 4.54 1.365 14.097 2.253 17.306 0.034 0.205 0.102 0.375 0.171 0.546l0.034 0.034c0.102 0.239 0.171 0.375 0.273 0.444 0.171 0.137 0.375 0.137 0.546 0s0.205-0.341 0.102-0.512l-0.171-0.341c-0.137-0.307-0.137-0.649 0.034-1.126 1.502-4.233 14.575-12.595 31.027-19.866l1.741-0.751c5.598-2.458 10.411-4.574 16.077-6.588 12.083-4.437 23.757-10.479 22.665-14.029l-3.243-17.476c0-0.137-0.034-0.273-0.068-0.41-0.102-0.171-0.273-0.273-0.444-0.273zM487.219 407.347c-0.58-3.311-1.331-9.728-1.843-15.633 0-0.068-0.034-0.102-0.034-0.171-0.137-0.239-0.137-0.58 0-1.024 1.297-3.959 13.483-12.356 28.399-19.49 6.656-3.174 21.333-8.431 22.972-9.011 8.158-2.799 16.521-7.748 18.773-10.957l2.97 16.077c0 0.034 0 0.034 0 0.068 0.717 2.116-7.373 7.543-22.118 12.971-5.7 2.014-10.513 4.164-16.145 6.622l-1.741 0.751c-16.213 7.202-28.74 15.189-31.232 19.797z" />
<glyph unicode="&#xe97e;" horiz-adv-x="1365" d="M486.502 430.592c1.365 5.12 3.106 10.069 4.847 15.121-0.785-0.205-1.57-0.307-2.389-0.341-0.887-3.686-1.911-7.305-3.14-10.889-2.082 3.174-4.403 6.246-6.246 9.455-0.751-0.171-1.502-0.341-2.253-0.444s-1.536-0.171-2.287-0.205c3.209-4.301 6.281-8.602 9.25-13.039 0.341 0.102 0.717 0.205 1.092 0.273 0.41 0.068 0.785 0.068 1.126 0.068zM500.122 445.611l-1.98-0.068c-0.649 0-1.297 0.102-1.946 0.137l-0.273-14.097 9.899-0.171c-0.068 0.273-0.137 0.58-0.137 0.887 0 0.273 0.102 0.58 0.171 0.887-1.775-0.102-3.686-0.205-5.973-0.171l0.239 12.595zM515.618 443.29c1.57-0.137 3.106-0.41 4.608-0.683-0.034 0.273-0.068 0.58-0.034 0.887 0 0.307 0.137 0.58 0.205 0.887l-13.38 1.092c0.034-0.273 0.068-0.58 0.034-0.887s-0.137-0.58-0.205-0.887c1.604 0.068 3.243 0 4.847-0.102l-1.161-12.698c0.649 0 1.297 0 1.946-0.068 0.649-0.034 1.331-0.171 1.946-0.239l1.195 12.698zM521.079 429.397c0.649-0.102 1.331-0.205 1.946-0.341s1.263-0.341 1.877-0.512l1.57 6.485 0.171-0.034 1.092-2.628 1.98-4.881c0.785-0.137 1.536-0.205 2.287-0.41 0.785-0.171 1.536-0.41 2.287-0.614l-0.683 1.468c-1.058 2.219-2.219 4.403-3.106 6.656 2.458-0.102 4.369 0.785 4.847 2.765 0.341 1.365-0.205 2.458-1.536 3.379-0.956 0.683-2.799 1.058-3.994 1.331l-5.359 1.161-3.379-13.824zM528.009 441.31c1.536-0.341 3.516-0.58 3.516-2.355 0-0.444-0.068-0.785-0.137-1.058-0.512-2.082-2.082-2.765-4.676-1.98l1.297 5.393zM546.543 425.165c-0.102-1.536-0.41-3.038-0.683-4.608 0.649-0.341 1.331-0.614 1.98-0.99 0.649-0.341 1.263-0.751 1.877-1.161l1.331 15.906c-0.614 0.239-1.195 0.58-1.707 0.956l-14.063-8.909c0.375-0.171 0.785-0.341 1.126-0.546l1.024-0.614c1.195 0.99 2.423 1.809 3.823 2.867l5.291-2.901zM542.583 428.783l4.676 3.004-0.546-5.291-4.13 2.287z" />
<glyph unicode="&#xe97f;" horiz-adv-x="1365" d="M352.973 611.703c14.609 0 27.648-2.185 36.113-5.53 4.881-2.219 11.366-3.823 18.5-4.779 5.427-0.717 10.581-0.887 15.087-0.512 6.007 0.137 14.677-1.638 23.381-5.461 7.168-3.209 13.175-7.031 17.169-10.82l-3.447-3.072-0.99-8.704-9.455-10.82-4.745-4.028-11.196-8.977-5.734-0.478-1.741-4.949-72.465 8.499-72.704-8.499-1.775 4.949-5.734 0.478-11.196 8.977-4.745 4.028-9.455 10.82-0.956 8.704-3.482 3.072c5.12 4.506 10.889 8.158 17.169 10.82 8.704 3.823 17.408 5.598 23.381 5.461 4.506-0.341 9.66-0.205 15.087 0.512 6.349 0.717 12.595 2.321 18.5 4.779 8.533 3.379 20.821 5.53 35.43 5.53v0z" />
<glyph unicode="&#xe980;" horiz-adv-x="1365" d="M426.121 543.266l-72.67 8.533-72.909-8.533-1.775 4.983-5.632 0.444-11.264 9.011-4.779 4.062-9.523 10.889-0.956 8.704-3.652 3.209 0.239 0.205c5.154 4.54 10.957 8.192 17.237 10.854 8.124 3.584 16.896 5.632 23.484 5.495 4.676-0.341 9.899-0.171 15.053 0.512 6.349 0.717 12.527 2.321 18.432 4.745 8.977 3.55 21.504 5.495 35.226 5.53v0l0.273 0.034c14.097 0 27.307-2.014 36.215-5.53 4.676-2.116 11.025-3.755 18.466-4.745 5.257-0.717 10.445-0.887 15.019-0.512 6.622 0.137 15.394-1.911 23.518-5.495 6.997-3.106 13.141-6.963 17.271-10.854l0.239-0.205-3.618-3.209-0.99-8.704-9.557-10.923-4.745-4.028-11.298-9.011-5.632-0.444-1.673-5.018zM273.374 549.274l5.837-0.478 1.741-4.915 72.533 8.465 72.226-8.465 1.741 4.915 5.837 0.478 11.127 8.909 4.71 3.994 9.387 10.752 0.99 8.738 3.311 2.935c-4.062 3.755-10.035 7.509-16.862 10.547-8.055 3.55-16.759 5.564-23.245 5.427-4.574-0.375-9.83-0.171-15.121 0.546-7.475 1.024-13.892 2.662-18.603 4.813-8.772 3.482-21.777 5.461-35.703 5.495v-0.034h-0.273c-13.79 0-26.317-1.946-35.294-5.495-5.939-2.458-12.186-4.062-18.569-4.813-5.188-0.683-10.411-0.887-15.121-0.546-6.485 0.137-15.189-1.877-23.245-5.427-6.144-2.594-11.81-6.144-16.862-10.547l3.311-2.935 0.956-8.738 9.387-10.752 4.71-4.028 11.093-8.841z" />
<glyph unicode="&#xe981;" horiz-adv-x="1365" d="M354.065 515.584v0c-26.249 0.034-50.62 3.038-68.574 8.465-1.365 0.41-2.253 1.775-2.15 3.174 0 1.399 0.853 2.56 2.15 2.97 17.954 5.393 42.325 8.397 68.608 8.465 26.214-0.034 50.586-3.038 68.54-8.465 1.331-0.41 2.15-1.57 2.15-2.97 0.102-1.434-0.751-2.731-2.116-3.174-18.022-5.393-42.359-8.397-68.608-8.465zM354.099 537.805c-26.18-0.034-50.449-3.038-68.335-8.431-0.956-0.307-1.536-1.126-1.536-2.15v-0.034c-0.102-1.024 0.546-2.014 1.536-2.321 17.886-5.393 42.155-8.363 68.335-8.397 26.146 0.034 50.415 3.038 68.335 8.431 0.99 0.307 1.604 1.263 1.536 2.287v0.068c0.034 1.024-0.58 1.877-1.536 2.15-17.954 5.359-42.189 8.329-68.335 8.397z" />
<glyph unicode="&#xe982;" horiz-adv-x="1365" d="M284.877 529.033l-0.307 0.785c0.99 0.478 1.195 1.673-0.683 6.485-2.014 5.154-4.949 5.052-5.086 5.052l-0.137 0.853c19.968 5.905 46.729 9.182 75.332 9.216 28.74-0.034 55.569-3.311 75.571-9.216l-0.137-0.853c-0.137 0-3.106 0.102-5.086-5.052-1.911-4.813-1.707-6.042-0.717-6.519l-0.307-0.785c-17.886 5.53-43.213 8.738-69.461 8.772v-0.034c-26.283 0-50.79-3.106-68.983-8.704zM280.474 541.867c1.263-0.546 2.935-1.911 4.233-5.222 1.161-2.97 1.775-5.052 1.331-6.349 18.125 5.359 42.121 8.329 67.857 8.363v-0.41 0.444c25.634-0.068 50.415-3.106 68.301-8.397-0.41 1.297 0.205 3.413 1.365 6.349 1.263 3.277 2.97 4.642 4.233 5.222-19.729 5.598-45.841 8.704-73.762 8.738-27.819-0.068-53.828-3.14-73.557-8.738z" />
</font>
</defs>
</svg>
