<?xml version="1.0" standalone="no"?>
<!DOCTYPE svg PUBLIC "-//W3C//DTD SVG 1.1//EN" "http://www.w3.org/Graphics/SVG/1.1/DTD/svg11.dtd" >
<svg xmlns="http://www.w3.org/2000/svg">
<metadata>Generated by IcoMoon</metadata>
<defs>
<font id="player" horiz-adv-x="1024">
<font-face units-per-em="1024" ascent="960" descent="-64" />
<missing-glyph horiz-adv-x="1024" />
<glyph unicode="&#x20;" horiz-adv-x="512" d="" />
<glyph unicode="&#xe900;" glyph-name="audio-v1" d="M931.465 428.51v47.275c0 232.448-188.45 420.898-420.898 420.898v0c-232.448 0-420.898-188.45-420.898-420.898v-47.753c-40.346-7.339-70.929-42.667-70.929-85.129v-207.121c0-47.787 38.741-86.528 86.528-86.528h66.697v380.177h-23.654v49.186c0 198.485 160.905 359.424 359.424 359.424v0c198.485 0 359.424-160.905 359.424-359.424v-49.186h-20.821v-380.211h72.363c47.787 0 86.528 38.741 86.528 86.528v207.121c0.034 43.486-32.017 79.462-73.762 85.641zM652.39 396.868l-56.559-183.808-104.892 300.715-42.018-399.531-98.236 245.999-53.692-100.352h-101.376v-27.853h118.067l33.314 62.293 117.828-295.014 40.789 387.789 91.853-263.373 64.512 209.647 69.188-101.342h90.59v27.853h-75.878z" />
<glyph unicode="&#xe901;" glyph-name="audio-v2" d="M735.744 666.487l-88.064-286.208-163.294 468.275-65.468-622.148-152.986 383.078-83.593-156.297h-157.867v-43.383h183.842l51.917 97.041 183.467-459.401 63.522 603.887 143.053-410.146 100.454 326.451 107.725-157.833h141.073v43.383h-118.17z" />
<glyph unicode="&#xe902;" glyph-name="backward" d="M37.376 473.839c32.563 18.978 65.126 37.99 97.69 56.969 103.049 60.177 206.063 120.354 309.077 180.497l88.098 51.473c8.090 4.881 25.907 18.364 36.625 18.432 6.827-2.697 10.889-3.072 14.37-8.875 4.301-7.202 2.15-24.201 2.15-34.953v-193.673c95.676 55.876 191.317 111.718 286.993 167.595l88.098 51.473c8.090 4.881 25.907 18.364 36.625 18.432 6.827-2.697 10.889-3.072 14.37-8.875 4.301-7.202 2.15-24.201 2.15-34.953v-586.752c0-16.896 1.809-27.921-9.83-33.758-2.458-1.229-6.485-2.662-10.786-1.911-7.236 1.297-12.288 5.598-17.715 8.875-8.875 5.188-17.715 10.377-26.59 15.565-28.638 16.759-57.31 33.519-85.948 50.278-92.467 54.101-184.934 108.169-277.402 162.27v-201.284c0-16.896 1.809-27.921-9.83-33.758-2.458-1.229-6.485-2.662-10.786-1.911-7.236 1.297-12.288 5.598-17.715 8.875-8.875 5.188-17.715 10.377-26.59 15.565-28.638 16.759-57.31 33.519-85.948 50.278-99.055 57.924-198.076 115.883-297.131 173.807l-95.778 56.013c-10.684 6.417-29.116 12.254-31.607 26.317-2.628 15.497 18.705 22.665 27.409 27.989z" />
<glyph unicode="&#xe903;" glyph-name="effects" d="M565.405 576.082l199.626 199.626 93.453-93.453-199.626-199.626-93.453 93.453zM30.199 40.91l488.458 488.458 93.453-93.453-488.458-488.458-93.453 93.453zM918.494 494.49l34.167-29.423 2.594 44.988 38.537 23.415-42.018 16.35-10.342 43.895-28.535-34.918-44.919 3.721 24.371-37.922-17.442-41.574zM813.363 834.116l43.827 13.039 35.601-28.706 1.126 45.739 38.332 24.986-43.145 15.223-11.947 44.134-27.785-36.318-45.67 2.287 25.941-37.649zM400.145 759.74l57.344 36.147 62.293-26.761-16.657 65.707 44.715 50.961-67.652 4.471-34.679 58.266-25.156-62.942-66.116-14.985 52.087-43.383zM693.794 324.233l-5.734 11.196-5.393-11.366-12.425-2.014 9.148-8.636-1.946-12.425 11.025 6.007 11.23-5.666-2.321 12.356 8.875 8.909zM612.011 785.545l9.489 4.198 8.841-5.461-1.058 10.308 7.919 6.724-10.138 2.185-3.925 9.591-5.222-8.943-10.342-0.785 6.895-7.748zM947.644 269.312l-25.702 28.638-7.1-37.82-35.191-15.599 33.792-18.466 3.925-38.298 27.989 26.453 37.649-8.090-16.486 34.782 19.319 33.314zM415.505 600.030l28.604-30.071 6.451 40.994 37.444 17.886-37.001 18.807-5.461 41.131-29.321-29.355-40.789 7.509 18.842-36.932-19.729-36.489z" />
<glyph unicode="&#xe904;" glyph-name="enlarge" d="M58.675 901.393h356.215v47.377h-403.661v-403.661h47.445zM959.351 948.77h-350.208v-47.377h356.25v-356.284h47.377v403.661zM112.128-5.325h-53.453v356.181h-47.445v-403.627h403.661v47.445h-302.763zM965.393 350.857v-356.181h-356.25v-47.445h403.627v403.627z" />
<glyph unicode="&#xe905;" glyph-name="faster" d="M509.781 448.512c5.7-0.034 11.196-0.341 15.667-1.092 7.817-0.614 15.667-1.263 23.484-1.877 3.379-0.307 6.758-0.614 10.138-0.887 18.876-3.379 36.352-6.451 52.975-11.571 23.552-7.236 46.046-16.452 66.833-27.819 8.294 6.11 16.555 12.186 24.815 18.295-6.861 4.164-13.858 8.090-21.026 11.776-1.161 0.58-2.321 1.195-3.482 1.741-11.913 5.939-24.269 11.23-36.864 15.77-23.381 9.079-49.152 15.462-77.619 19.115-0.171 0.034-0.341 0.068-0.512 0.102l-0.819 0.068c-11.162 1.399-22.733 2.389-34.714 2.97l-6.588 0.546c-4.164 0.034-8.26 0.034-12.322 0-4.062 0.034-8.158 0.068-12.322 0l-6.588-0.546c-11.981-0.58-23.552-1.57-34.714-2.97l-0.819-0.068c-0.171-0.034-0.341-0.068-0.512-0.102-28.467-3.652-54.238-10.035-77.619-19.115-12.629-4.54-24.951-9.796-36.864-15.77-1.161-0.58-2.321-1.161-3.482-1.741-36.011-18.466-68.198-43.213-93.491-73.216-0.478-0.512-0.922-1.024-1.399-1.536-0.717-0.922-1.434-1.843-2.15-2.765-7.578-9.387-14.473-19.251-20.617-29.594-1.024-1.638-2.048-3.311-3.072-4.949-12.732-21.026-23.552-55.33-26.317-73.455-0.546-3.618-0.922-6.656-1.195-9.284-0.478-2.935-0.614-6.042-0.683-9.182-0.239-4.881-0.375-8.67-1.468-14.541h0.58c-0.171-0.956-0.341-1.911-0.58-2.867v-0.239h27.989c1.57 14.677 2.355 28.809 5.052 41.916 0.205 0.887 0.444 1.843 0.683 2.799 0.137 0.649 0.239 1.297 0.375 1.946 0.41 1.604 0.819 3.174 1.297 4.745 5.939 19.763 14.234 37.82 24.542 54.238 2.662 4.028 5.427 8.021 8.226 12.015 5.086 6.315 10.206 12.595 15.292 18.91 2.253 2.765 7.305 5.222 8.363 8.841-0.034 0-0.034 0.034-0.068 0.034 34.304 34.304 79.36 58.573 129.195 73.865 16.623 5.12 34.099 8.192 52.975 11.571 3.379 0.307 6.758 0.614 10.138 0.887 7.817 0.614 15.667 1.263 23.484 1.877 4.608 0.819 10.103 1.161 15.804 1.161zM864.324 503.194c6.69 6.315 13.38 12.595 20.105 18.91 3.345 2.697 8.226 6.178 10.274 10.035-0.102 0.546-0.273 1.126-0.444 1.673l-0.717 0.956-2.15 0.239c-109.090-80.384-218.146-160.768-327.202-241.152-18.5-13.653-37.001-27.273-55.501-40.926-8.021-5.871-19.422-11.537-24.644-20.105-7.68-12.629-5.12-28.672 2.867-38.741 7.407-9.387 27.034-15.462 40.653-7.407 7.817 4.608 13.141 12.834 20.105 18.432 16.179 15.087 32.358 30.14 48.538 45.227 67.686 63.898 135.373 127.761 203.059 191.625 21.675 20.412 43.383 40.823 65.058 61.235zM749.534 350.31c5.12-6.315 10.206-12.595 15.292-18.91 0.102-0.137 0.171-0.273 0.273-0.375h25.122v12.868c-3.345 4.745-6.827 9.421-10.479 13.961-0.717 0.922-1.434 1.843-2.15 2.765-0.478 0.512-0.922 1.024-1.399 1.536-4.881 5.803-10.069 11.435-15.462 16.828-6.724-6.349-13.449-12.698-20.173-19.046 0.239-0.239 0.478-0.478 0.717-0.717-0.034 0-0.034-0.034-0.068-0.034 1.058-3.652 6.11-6.11 8.329-8.875zM918.801 317.099h-59.324v57.788c0 4.062-3.277 7.339-7.339 7.339h-38.263c-4.062 0-7.339-3.277-7.339-7.339v-57.788h-58.948c-4.062 0-7.339-3.277-7.339-7.339v-38.263c0-4.062 3.277-7.339 7.339-7.339h58.948v-60.553c0-4.062 3.277-7.339 7.339-7.339h38.263c4.062 0 7.339 3.277 7.339 7.339v60.518h59.324c4.062 0 7.339 3.277 7.339 7.339v38.263c0.034 4.062-3.277 7.373-7.339 7.373z" />
<glyph unicode="&#xe906;" glyph-name="first" d="M853.231 473.395c-32.051 18.671-64.068 37.376-96.085 56.047-101.376 59.187-202.718 118.409-304.060 177.562l-86.665 50.654c-7.953 4.813-25.498 18.057-36.045 18.125-6.69-2.628-10.718-3.004-14.131-8.704-4.267-7.066-2.116-23.791-2.116-34.372v-125.884c-57.173 33.382-114.381 66.799-171.588 100.215l-86.665 50.62c-7.953 4.813-25.498 18.057-36.045 18.125-6.69-2.628-10.718-3.004-14.131-8.704-4.267-7.066-2.116-23.791-2.116-34.372v-577.195c0-16.623-1.775-27.443 9.66-33.212 2.423-1.229 6.383-2.628 10.615-1.877 7.134 1.263 12.083 5.53 17.442 8.704 8.704 5.12 17.442 10.206 26.146 15.326 28.194 16.486 56.354 32.973 84.548 49.459 54.067 31.607 108.1 63.215 162.133 94.857v-133.222c0-16.623-1.775-27.443 9.66-33.212 2.423-1.229 6.383-2.628 10.615-1.877 7.134 1.263 12.083 5.53 17.442 8.704 8.704 5.12 17.442 10.206 26.146 15.326 28.194 16.486 56.354 32.973 84.548 49.459 97.451 57.003 194.867 113.971 292.284 170.974l94.208 55.091c10.513 6.315 28.638 12.083 31.095 25.907 2.662 15.223-18.33 22.289-26.897 27.477zM1001.813 775.782h-53.419c-10.547 0-19.115-8.567-19.115-19.115v-617.335c0-10.547 8.567-19.115 19.115-19.115h53.419c10.547 0 19.115 8.567 19.115 19.115v617.335c0.034 10.581-8.533 19.115-19.115 19.115z" />
<glyph unicode="&#xe907;" glyph-name="forward" d="M986.624 473.839c-32.563 18.978-65.126 37.99-97.69 56.969-103.049 60.177-206.063 120.354-309.077 180.497l-88.098 51.473c-8.090 4.881-25.907 18.364-36.625 18.432-6.827-2.697-10.889-3.072-14.37-8.875-4.301-7.202-2.15-24.201-2.15-34.953v-193.673c-95.676 55.876-191.317 111.718-286.993 167.595l-88.098 51.473c-8.090 4.881-25.907 18.364-36.625 18.432-6.827-2.697-10.889-3.072-14.37-8.875-4.301-7.202-2.15-24.201-2.15-34.953v-586.752c0-16.896-1.809-27.921 9.83-33.758 2.458-1.229 6.485-2.662 10.786-1.911 7.236 1.297 12.288 5.598 17.715 8.875 8.875 5.188 17.715 10.377 26.59 15.565 28.638 16.759 57.31 33.519 85.948 50.278 92.467 54.101 184.934 108.169 277.402 162.27v-201.284c0-16.896-1.809-27.921 9.83-33.758 2.458-1.229 6.485-2.662 10.786-1.911 7.236 1.297 12.288 5.598 17.715 8.875 8.875 5.188 17.715 10.377 26.59 15.565 28.638 16.759 57.31 33.519 85.948 50.278 99.055 57.924 198.076 115.883 297.131 173.807l95.778 56.013c10.684 6.417 29.116 12.254 31.607 26.317 2.628 15.497-18.705 22.665-27.409 27.989z" />
<glyph unicode="&#xe908;" glyph-name="last" d="M170.769 473.395c32.051 18.671 64.068 37.376 96.085 56.047 101.376 59.187 202.718 118.409 304.060 177.562l86.665 50.654c7.953 4.813 25.498 18.057 36.045 18.125 6.69-2.628 10.718-3.004 14.131-8.704 4.267-7.066 2.116-23.791 2.116-34.372v-125.884c57.207 33.417 114.415 66.799 171.588 100.215l86.665 50.654c7.953 4.813 25.498 18.057 36.045 18.125 6.69-2.628 10.718-3.004 14.131-8.704 4.267-7.066 2.116-23.791 2.116-34.372v-577.195c0-16.623 1.775-27.443-9.66-33.212-2.423-1.229-6.383-2.628-10.615-1.877-7.134 1.263-12.083 5.53-17.442 8.704-8.704 5.12-17.442 10.206-26.146 15.326-28.194 16.486-56.354 32.973-84.548 49.459-54.067 31.607-108.1 63.215-162.133 94.857v-133.222c0-16.623 1.775-27.443-9.66-33.212-2.423-1.229-6.383-2.628-10.615-1.877-7.134 1.263-12.083 5.53-17.442 8.704-8.704 5.12-17.442 10.206-26.146 15.326-28.194 16.486-56.354 32.973-84.548 49.459-97.451 57.003-194.867 113.971-292.284 170.974l-94.208 55.091c-10.513 6.315-28.638 12.083-31.095 25.907-2.662 15.189 18.33 22.255 26.897 27.443zM22.187 775.782h53.419c10.547 0 19.115-8.567 19.115-19.115v-617.335c0-10.547-8.567-19.115-19.115-19.115h-53.419c-10.547 0-19.115 8.567-19.115 19.115v617.335c-0.034 10.581 8.533 19.115 19.115 19.115z" />
<glyph unicode="&#xe909;" glyph-name="louder" d="M526.985 869.308c-24.235-12.288-43.895-31.198-65.195-46.831l-168.038-132.676-167.253-0.341-81.715-0.444c-12.629 0-27.511 1.57-33.519-4.881-6.076-6.519-5.052-19.558-5.052-31.983v-402.091c0-11.298-0.99-23.484 4.13-29.764 5.53-6.793 20.105-5.325 32.597-5.325l259.994-0.102 220.365-171.247c10.547-4.403 20.992 2.492 22.938 11.025 0.171 208.998 0.307 417.997 0.444 626.961v139.981c0.034 23.586 4.881 47.991-19.695 47.718zM982.903 508.245h-129.434v129.434c0 6.724-5.427 12.151-12.151 12.151h-96.188c-6.724 0-12.151-5.427-12.151-12.151v-129.434h-129.434c-6.724 0-12.151-5.427-12.151-12.151v-96.188c0-6.724 5.427-12.151 12.151-12.151h129.434v-129.434c0-6.724 5.427-12.151 12.151-12.151h96.188c6.724 0 12.151 5.427 12.151 12.151v129.434h129.434c6.724 0 12.151 5.427 12.151 12.151v96.188c0 6.724-5.427 12.151-12.151 12.151z" />
<glyph unicode="&#xe90a;" glyph-name="next_ensuing" d="M810.291 499.541c-47.548 27.716-95.095 55.467-142.609 83.183-150.46 87.859-300.885 175.718-451.277 263.543l-128.649 75.162c-11.81 7.134-37.82 26.795-53.487 26.897-9.933-3.925-15.906-4.471-20.958-12.902-6.315-10.479-3.14-35.328-3.14-51.029v-856.678c0-24.678-2.628-40.755 14.336-49.289 3.584-1.809 9.455-3.891 15.735-2.799 10.581 1.877 17.954 8.192 25.873 12.937 12.937 7.578 25.873 15.155 38.81 22.733 41.847 24.474 83.661 48.947 125.508 73.387 144.623 84.582 289.212 169.165 433.801 253.747l139.81 81.783c15.599 9.387 42.496 17.92 46.148 38.434 3.959 22.665-27.204 33.143-39.902 40.892zM986.249 948.497h-79.292c-15.667 0-28.365-12.698-28.365-28.365v-916.275c0-15.667 12.698-28.365 28.365-28.365h79.292c15.667 0 28.365 12.698 28.365 28.365v916.275c0.034 15.667-12.698 28.365-28.365 28.365z" />
<glyph unicode="&#xe90b;" glyph-name="no_sound" d="M302.933 214.835l-259.994 0.102c-12.493 0-27.068-1.468-32.597 5.325-5.12 6.281-4.13 18.466-4.13 29.764v402.091c0 12.425-1.024 25.463 5.052 31.983 6.007 6.451 20.89 4.881 33.519 4.881l81.715 0.444 167.253 0.341 168.038 132.71c21.299 15.633 40.96 34.509 65.195 46.831 24.576 0.239 19.729-24.166 19.729-47.718v-139.981c-0.137-208.964-0.307-417.963-0.444-626.961-1.98-8.533-12.425-15.394-22.938-11.025l-220.399 171.213zM855.552 455.782l150.903 150.903-67.652 67.618-150.903-150.869-150.903 150.869-67.618-67.618 150.903-150.903-150.903-150.903 67.618-67.652 150.903 150.903 150.903-150.903 67.652 67.652z" />
<glyph unicode="&#xe90c;" glyph-name="pause" d="M179.194 955.61h132.732c15.080 0 40.092 3.425 46.635-5.578 5.052-6.951 2.393-37.636 2.393-49.808v-884.182q-0.2-34.068-0.399-68.137c-1.56-4.444-6.298-8.834-11.162-9.964l-129.941 0.399c-11.624 0-39.609-2.475-46.237 2.389-8.85 6.499-5.581 30.512-5.58 45.425v892.154c0 13.674-2.575 63.859 1.993 70.926 2.196 3.398 5.925 4.357 9.566 6.375zM674.645 955.61h132.731c15.121 0 40.045 3.419 46.636-5.578 5.031-6.873 2.389-37.327 2.389-49.409v-884.58q-0.2-34.068-0.396-68.137c-1.57-4.478-6.277-8.83-11.162-9.964l-130.342 0.399c-12.322 0-39.274-2.499-46.237 2.789-8.189 6.223-4.782 31.549-4.782 45.425v130.297q-0.2 267.74-0.399 535.53v275.735c0 5.85-1.051 14.217 0.799 18.728 2.007 4.892 6.403 6.146 10.762 8.766z" />
<glyph unicode="&#xe90d;" glyph-name="play" d="M99.362 955.221c16.35-0.12 43.457-20.613 55.778-28.068l134.159-78.372q235.303-137.411 470.65-274.849 74.363-43.377 148.739-86.757c13.254-8.093 45.742-19.033 41.561-42.65-3.792-21.415-31.857-30.314-48.121-40.096l-145.824-85.299q-226.191-132.306-452.422-264.643-65.433-38.274-130.878-76.551-20.231-11.844-40.466-23.692c-8.253-4.943-15.94-11.534-26.977-13.489-6.533-1.154-12.654 1.034-16.406 2.918-17.698 8.888-14.949 25.665-14.947 51.398v893.443c0 16.368-3.288 42.274 3.281 53.22 5.285 8.808 11.5 9.376 21.874 13.487z" />
<glyph unicode="&#xe90e;" glyph-name="previous" d="M213.709 424.277c47.548-27.716 95.095-55.467 142.609-83.183 150.426-87.859 300.851-175.684 451.277-263.543l128.649-75.162c11.81-7.134 37.82-26.795 53.487-26.897 9.933 3.925 15.906 4.471 20.958 12.937 6.315 10.479 3.14 35.328 3.14 51.029v856.644c0 24.678 2.628 40.755-14.336 49.289-3.584 1.809-9.455 3.891-15.735 2.799-10.581-1.877-17.954-8.192-25.873-12.937-12.937-7.578-25.873-15.155-38.81-22.733-41.847-24.474-83.661-48.947-125.508-73.387-144.623-84.582-289.212-169.165-433.801-253.747l-139.81-81.783c-15.599-9.387-42.496-17.92-46.148-38.434-3.959-22.665 27.204-33.143 39.902-40.892zM37.751-24.678h79.292c15.667 0 28.365 12.698 28.365 28.365v916.275c0 15.667-12.698 28.365-28.365 28.365h-79.292c-15.667 0-28.365-12.698-28.365-28.365v-916.275c-0.034-15.667 12.698-28.365 28.365-28.365z" />
<glyph unicode="&#xe90f;" glyph-name="quieter" d="M526.985 869.308c-24.235-12.288-43.895-31.198-65.195-46.831l-168.038-132.676-167.253-0.341-81.715-0.444c-12.629 0-27.511 1.57-33.519-4.881-6.076-6.519-5.052-19.558-5.052-31.983v-402.091c0-11.298-0.99-23.484 4.13-29.764 5.53-6.793 20.105-5.325 32.597-5.325l259.994-0.102 220.365-171.247c10.547-4.403 20.992 2.492 22.938 11.025 0.171 208.998 0.307 417.997 0.444 626.961v139.981c0.034 23.586 4.881 47.991-19.695 47.718zM982.903 508.245h-379.324c-6.724 0-12.151-5.427-12.151-12.151v-96.188c0-6.724 5.427-12.151 12.151-12.151h379.324c6.724 0 12.151 5.427 12.151 12.151v96.188c0 6.724-5.427 12.151-12.151 12.151z" />
<glyph unicode="&#xe910;" glyph-name="shrink" d="M367.411 592.521h-356.181v-47.411h403.661v403.661h-47.479zM662.562 545.109h350.208v47.411h-356.25v356.25h-47.377v-403.661zM313.958 303.411h53.453v-356.181h47.479v403.627h-403.661v-47.445h302.729zM656.521-52.77v356.181h356.25v47.445h-403.627v-403.627z" />
<glyph unicode="&#xe911;" glyph-name="slower" d="M509.781 448.512c5.7-0.034 11.196-0.341 15.667-1.092 7.817-0.614 15.667-1.263 23.484-1.877 3.379-0.307 6.758-0.614 10.138-0.887 18.876-3.379 36.352-6.451 52.975-11.571 23.552-7.236 46.046-16.452 66.833-27.819 8.294 6.11 16.555 12.186 24.815 18.295-6.861 4.164-13.858 8.090-21.026 11.776-1.161 0.58-2.321 1.195-3.482 1.741-11.913 5.939-24.269 11.23-36.864 15.77-23.381 9.079-49.152 15.462-77.619 19.115-0.171 0.034-0.341 0.068-0.512 0.102l-0.819 0.068c-11.162 1.399-22.733 2.389-34.714 2.97l-6.588 0.546c-4.164 0.034-8.26 0.034-12.322 0-4.062 0.034-8.158 0.068-12.322 0l-6.588-0.546c-11.981-0.58-23.552-1.57-34.714-2.97l-0.819-0.068c-0.171-0.034-0.341-0.068-0.512-0.102-28.467-3.652-54.238-10.035-77.619-19.115-12.629-4.54-24.951-9.796-36.864-15.77-1.161-0.58-2.321-1.161-3.482-1.741-36.011-18.466-68.198-43.213-93.491-73.216-0.478-0.512-0.922-1.024-1.399-1.536-0.717-0.922-1.434-1.843-2.15-2.765-7.578-9.387-14.473-19.251-20.617-29.594-1.024-1.638-2.048-3.311-3.072-4.949-12.732-21.026-23.552-55.33-26.317-73.455-0.546-3.618-0.922-6.656-1.195-9.284-0.478-2.935-0.614-6.042-0.683-9.182-0.239-4.881-0.375-8.67-1.468-14.541h0.58c-0.171-0.956-0.341-1.911-0.58-2.867v-0.239h27.989c1.57 14.677 2.355 28.809 5.052 41.916 0.205 0.887 0.444 1.843 0.683 2.799 0.137 0.649 0.239 1.297 0.375 1.946 0.41 1.604 0.819 3.174 1.297 4.745 5.939 19.763 14.234 37.82 24.542 54.238 2.662 4.028 5.427 8.021 8.226 12.015 5.086 6.315 10.206 12.595 15.292 18.91 2.253 2.765 7.305 5.222 8.363 8.841-0.034 0-0.034 0.034-0.068 0.034 34.304 34.304 79.36 58.573 129.195 73.865 16.623 5.12 34.099 8.192 52.975 11.571 3.379 0.307 6.758 0.614 10.138 0.887 7.817 0.614 15.667 1.263 23.484 1.877 4.608 0.819 10.103 1.161 15.804 1.161zM864.324 503.194c6.69 6.315 13.38 12.595 20.105 18.91 3.345 2.697 8.226 6.178 10.274 10.035-0.102 0.546-0.273 1.126-0.444 1.673l-0.717 0.956-2.15 0.239c-109.090-80.384-218.146-160.768-327.202-241.152-18.5-13.653-37.001-27.273-55.501-40.926-8.021-5.871-19.422-11.537-24.644-20.105-7.68-12.629-5.12-28.672 2.867-38.741 7.407-9.387 27.034-15.462 40.653-7.407 7.817 4.608 13.141 12.834 20.105 18.432 16.179 15.087 32.358 30.14 48.538 45.227 67.686 63.898 135.373 127.761 203.059 191.625 21.675 20.412 43.383 40.823 65.058 61.235zM749.534 350.31c5.12-6.315 10.206-12.595 15.292-18.91 2.799-3.994 5.564-7.987 8.226-12.049 9.079-14.438 16.589-30.174 22.323-47.206h29.15c-4.983 17.135-12.629 37.103-21.129 51.132-1.024 1.673-2.048 3.311-3.072 4.949-6.144 10.342-13.039 20.207-20.617 29.594-0.717 0.922-1.434 1.843-2.15 2.765-0.478 0.512-0.922 1.024-1.399 1.536-4.881 5.803-10.069 11.435-15.462 16.828-6.724-6.349-13.449-12.698-20.173-19.046 0.239-0.239 0.478-0.478 0.717-0.717-0.034 0-0.034-0.034-0.068-0.034 1.092-3.618 6.144-6.076 8.363-8.841zM885.623 254.942h-211.422c-5.018 0-9.079-4.062-9.079-9.079v-47.241c0-5.018 4.062-9.079 9.079-9.079h211.422c5.018 0 9.079 4.062 9.079 9.079v47.241c0 5.018-4.062 9.079-9.079 9.079z" />
<glyph unicode="&#xe912;" glyph-name="sound-1" d="M302.933 214.835l-259.994 0.102c-12.493 0-27.068-1.468-32.597 5.325-5.12 6.281-4.13 18.466-4.13 29.764v402.091c0 12.425-1.024 25.463 5.052 31.983 6.007 6.451 20.89 4.881 33.519 4.881l81.715 0.444 167.253 0.341 168.038 132.71c21.299 15.633 40.96 34.509 65.195 46.831 24.576 0.239 19.729-24.166 19.729-47.718v-139.981c-0.137-208.964-0.307-417.963-0.444-626.961-1.98-8.533-12.425-15.394-22.938-11.025l-220.399 171.213z" />
<glyph unicode="&#xe913;" glyph-name="sound-2" d="M302.933 214.835l-259.994 0.102c-12.493 0-27.068-1.468-32.597 5.325-5.12 6.281-4.13 18.466-4.13 29.764v402.091c0 12.425-1.024 25.463 5.052 31.983 6.007 6.451 20.89 4.881 33.519 4.881l81.715 0.444 167.253 0.341 168.038 132.71c21.299 15.633 40.96 34.509 65.195 46.831 24.576 0.239 19.729-24.166 19.729-47.718v-139.981c-0.137-208.964-0.307-417.963-0.444-626.961-1.98-8.533-12.425-15.394-22.938-11.025l-220.399 171.213zM582.076 662.323c22.63 0.273 43.827 0.034 61.065-5.052 70.656-20.89 116.395-70.212 137.728-140.459 8.090-26.658 14.029-68.267 7.339-102.366-3.14-16.077-6.724-32.256-12.39-46.353-24.508-60.655-69.871-108.646-138.65-124.86-16.521-3.891-35.669-4.096-55.091-5.052v53.692c82.159-1.195 122.436 42.53 145.067 100.966 13.312 34.304 12.288 88.303-1.365 121.617-23.040 56.149-63.42 94.822-143.701 94.549v53.316z" />
<glyph unicode="&#xe914;" glyph-name="sound-3" d="M302.933 214.835l-259.994 0.102c-12.493 0-27.068-1.468-32.597 5.325-5.12 6.281-4.13 18.466-4.13 29.764v402.091c0 12.425-1.024 25.463 5.052 31.983 6.007 6.451 20.89 4.881 33.519 4.881l81.715 0.444 167.253 0.341 168.038 132.71c21.299 15.633 40.96 34.509 65.195 46.831 24.576 0.239 19.729-24.166 19.729-47.718v-139.981c-0.137-208.964-0.307-417.963-0.444-626.961-1.98-8.533-12.425-15.394-22.938-11.025l-220.399 171.213zM582.076 789.914c161.417 2.389 263.987-103.049 302.558-223.061 23.245-72.363 24.678-173.158-3.209-242.79-46.694-116.565-137.182-212.070-299.349-212.958v53.248c135.885-1.877 221.286 89.122 252.962 191.863 17.545 56.934 19.524 140.117-1.365 195.994-38.195 102.161-111.514 183.979-251.597 184.525v53.18zM582.076 662.323c22.63 0.273 43.827 0.034 61.065-5.052 70.656-20.89 116.395-70.212 137.728-140.459 8.090-26.658 14.029-68.267 7.339-102.366-3.14-16.077-6.724-32.256-12.39-46.353-24.508-60.655-69.871-108.646-138.65-124.86-16.521-3.891-35.669-4.096-55.091-5.052v53.692c82.159-1.195 122.436 42.53 145.067 100.966 13.312 34.304 12.288 88.303-1.365 121.617-23.040 56.149-63.42 94.822-143.701 94.549v53.316z" />
<glyph unicode="&#xe915;" glyph-name="sound-4" d="M582.076 921.19c59.29 0.99 106.871-9.045 149.197-25.702 134.997-53.18 222.345-161.075 265.83-306.142 17.408-58.027 28.16-144.691 14.711-216.166-5.53-29.286-10.923-56.627-19.285-83.081-44.442-140.868-147.661-253.099-288.802-297.438-35.499-11.162-76.322-17.92-121.685-17.886v52.77c33.894 2.458 64.068 4.198 92.297 11.947 135.407 37.171 217.225 132.813 264.909 257.946 31.061 81.51 30.447 202.274 4.13 287.334-45.841 148.207-167.561 283.921-361.335 283.648v52.77zM302.933 214.835l-259.994 0.102c-12.493 0-27.068-1.468-32.597 5.325-5.12 6.281-4.13 18.466-4.13 29.764v402.091c0 12.425-1.024 25.463 5.052 31.983 6.007 6.451 20.89 4.881 33.519 4.881l81.715 0.444 167.253 0.341 168.038 132.71c21.299 15.633 40.96 34.509 65.195 46.831 24.576 0.239 19.729-24.166 19.729-47.718v-139.981c-0.137-208.964-0.307-417.963-0.444-626.961-1.98-8.533-12.425-15.394-22.938-11.025l-220.399 171.213zM582.076 789.914c161.417 2.389 263.987-103.049 302.558-223.061 23.245-72.363 24.678-173.158-3.209-242.79-46.694-116.565-137.182-212.070-299.349-212.958v53.248c135.885-1.877 221.286 89.122 252.962 191.863 17.545 56.934 19.524 140.117-1.365 195.994-38.195 102.161-111.514 183.979-251.597 184.525v53.18zM582.076 662.323c22.63 0.273 43.827 0.034 61.065-5.052 70.656-20.89 116.395-70.212 137.728-140.459 8.090-26.658 14.029-68.267 7.339-102.366-3.14-16.077-6.724-32.256-12.39-46.353-24.508-60.655-69.871-108.646-138.65-124.86-16.521-3.891-35.669-4.096-55.091-5.052v53.692c82.159-1.195 122.436 42.53 145.067 100.966 13.312 34.304 12.288 88.303-1.365 121.617-23.040 56.149-63.42 94.822-143.701 94.549v53.316z" />
<glyph unicode="&#xe916;" glyph-name="speed-1" d="M833.024 216.815c-1.092 5.871-1.195 9.66-1.468 14.541-0.068 3.14-0.239 6.246-0.683 9.182-0.273 2.628-0.649 5.666-1.195 9.284-2.765 18.125-13.585 52.429-26.317 73.455-1.024 1.673-2.048 3.311-3.072 4.949-6.144 10.342-13.039 20.207-20.617 29.594-0.717 0.922-1.434 1.843-2.15 2.765-0.478 0.512-0.922 1.024-1.399 1.536-25.293 30.003-57.481 54.75-93.491 73.216-1.161 0.58-2.321 1.195-3.482 1.741-11.913 5.939-24.269 11.23-36.864 15.77-23.381 9.079-49.152 15.462-77.619 19.115-0.171 0.034-0.341 0.068-0.512 0.102l-0.819 0.068c-11.162 1.399-22.733 2.389-34.714 2.97l-6.588 0.546c-4.164 0.034-8.26 0.034-12.322 0-4.062 0.034-8.158 0.068-12.322 0l-6.588-0.546c-11.981-0.58-23.552-1.57-34.714-2.97l-0.819-0.068c-0.171-0.034-0.341-0.068-0.512-0.102-28.467-3.652-54.238-10.035-77.619-19.115-12.629-4.54-24.951-9.796-36.864-15.77-1.161-0.58-2.321-1.161-3.482-1.741-36.011-18.466-68.198-43.213-93.491-73.216-0.478-0.512-0.922-1.024-1.399-1.536-0.717-0.922-1.434-1.843-2.15-2.765-7.578-9.387-14.473-19.251-20.617-29.594-1.024-1.638-2.048-3.311-3.072-4.949-12.732-21.026-23.552-55.33-26.317-73.455-0.444-2.97-0.785-5.564-1.058-7.885 9.626 0.751 19.251 1.502 28.843 2.287 0.512 3.857 1.126 7.68 1.877 11.401 0.205 0.887 0.444 1.843 0.683 2.799 0.137 0.649 0.239 1.297 0.375 1.946 0.41 1.604 0.819 3.174 1.297 4.745 5.939 19.763 14.234 37.82 24.542 54.238 2.662 4.028 5.427 8.021 8.226 12.015 5.086 6.315 10.206 12.595 15.292 18.91 2.253 2.765 7.305 5.222 8.363 8.841-0.034 0-0.034 0.034-0.068 0.034 34.304 34.304 79.36 58.573 129.195 73.865 16.623 5.12 34.099 8.192 52.975 11.571 3.379 0.307 6.758 0.614 10.138 0.887 7.817 0.614 15.667 1.263 23.484 1.877 4.471 0.717 9.967 1.058 15.667 1.092 5.7-0.034 11.196-0.341 15.667-1.092 7.817-0.614 15.667-1.263 23.484-1.877 3.379-0.307 6.758-0.614 10.138-0.887 18.876-3.379 36.352-6.451 52.975-11.571 49.835-15.292 94.891-39.561 129.195-73.865-0.034 0-0.034-0.034-0.068-0.034 1.092-3.618 6.144-6.076 8.363-8.841 5.12-6.315 10.206-12.595 15.292-18.91 2.799-3.994 5.564-7.987 8.226-12.049 10.308-16.418 18.603-34.475 24.542-54.238 0.478-1.57 0.887-3.14 1.297-4.745 0.137-0.649 0.273-1.297 0.375-1.946 0.239-0.99 0.478-1.911 0.683-2.799 2.697-13.107 3.482-27.238 5.052-41.916h27.989v0.239c-0.239 0.956-0.41 1.911-0.58 2.867h0.819zM517.53 247.637c-8.977 1.297-18.295-1.741-27.204-1.741-22.050-1.604-44.134-3.174-66.185-4.779-92.809-7.305-185.583-14.609-278.357-21.914-29.696-2.287-59.392-4.608-89.088-6.895-9.182-0.717-18.33-1.399-27.511-2.116-4.301 0-10.274 0.341-14.302-1.365-0.239-0.546-0.444-1.058-0.683-1.604l-0.034-1.195 1.536-1.536c135.373-5.803 270.746-11.571 406.084-17.374 22.972-0.99 45.909-1.946 68.881-2.935 9.933-0.478 22.357-3.209 31.778 0.205 13.892 5.018 21.948 19.115 22.084 31.983 0.137 11.981-11.332 29.013-26.999 31.266z" />
<glyph unicode="&#xe917;" glyph-name="speed-2" d="M243.405 362.121c-0.478-0.512-0.922-1.024-1.399-1.536-0.717-0.922-1.434-1.843-2.15-2.765-7.578-9.387-14.473-19.251-20.617-29.594-1.024-1.638-2.048-3.311-3.072-4.949-12.732-21.026-23.552-55.33-26.317-73.455-0.546-3.618-0.922-6.656-1.195-9.284-0.478-2.935-0.614-6.042-0.683-9.182-0.239-4.881-0.375-8.67-1.468-14.541h0.58c-0.171-0.956-0.341-1.911-0.58-2.867v-0.239h27.989c1.57 14.677 2.355 28.809 5.052 41.916 0.205 0.887 0.444 1.843 0.683 2.799 0.137 0.649 0.239 1.297 0.375 1.946 0.41 1.604 0.819 3.174 1.297 4.745 5.939 19.763 14.234 37.82 24.542 54.238 2.662 4.028 5.427 8.021 8.226 12.015 5.086 6.315 10.206 12.595 15.292 18.91 0 0 0 0 0.034 0.034-7.066 6.007-14.131 12.015-21.197 17.988-1.809-2.014-3.618-4.062-5.393-6.178zM833.024 216.815c-1.092 5.871-1.195 9.66-1.468 14.541-0.068 3.14-0.239 6.246-0.683 9.182-0.273 2.628-0.649 5.666-1.195 9.284-2.765 18.125-13.585 52.429-26.317 73.455-1.024 1.673-2.048 3.311-3.072 4.949-6.144 10.342-13.039 20.207-20.617 29.594-0.717 0.922-1.434 1.843-2.15 2.765-0.478 0.512-0.922 1.024-1.399 1.536-25.293 30.003-57.481 54.75-93.491 73.216-1.161 0.58-2.321 1.195-3.482 1.741-11.913 5.939-24.269 11.23-36.864 15.77-23.381 9.079-49.152 15.462-77.619 19.115-0.171 0.034-0.341 0.068-0.512 0.102l-0.819 0.068c-11.162 1.399-22.733 2.389-34.714 2.97l-6.588 0.546c-4.164 0.034-8.26 0.034-12.322 0-4.062 0.034-8.158 0.068-12.322 0l-6.588-0.546c-11.981-0.58-23.552-1.57-34.714-2.97l-0.819-0.068c-0.171-0.034-0.341-0.068-0.512-0.102-28.467-3.652-54.238-10.035-77.619-19.115-12.629-4.54-24.951-9.796-36.864-15.77-1.161-0.58-2.321-1.161-3.482-1.741-11.776-6.042-23.108-12.766-33.963-20.105 8.567-5.632 17.135-11.298 25.702-16.93 24.064 14.575 50.722 26.112 78.882 34.748 16.623 5.12 34.099 8.192 52.975 11.571 3.379 0.307 6.758 0.614 10.138 0.887 7.817 0.614 15.667 1.263 23.484 1.877 4.471 0.717 9.967 1.058 15.667 1.092 5.7-0.034 11.196-0.341 15.667-1.092 7.817-0.614 15.667-1.263 23.484-1.877 3.379-0.307 6.758-0.614 10.138-0.887 18.876-3.379 36.352-6.451 52.975-11.571 49.835-15.292 94.891-39.561 129.195-73.865-0.034 0-0.034-0.034-0.068-0.034 1.092-3.618 6.144-6.076 8.363-8.841 5.12-6.315 10.206-12.595 15.292-18.91 2.799-3.994 5.564-7.987 8.226-12.049 10.308-16.418 18.603-34.475 24.542-54.238 0.478-1.57 0.887-3.14 1.297-4.745 0.137-0.649 0.273-1.297 0.375-1.946 0.239-0.99 0.478-1.911 0.683-2.799 2.697-13.107 3.482-27.238 5.052-41.916h27.989v0.239c-0.239 0.956-0.41 1.911-0.58 2.867h0.717zM513.775 252.689c-18.398 12.288-36.762 24.576-55.159 36.864-77.722 51.2-155.443 102.4-233.165 153.6-24.849 16.418-49.698 32.836-74.547 49.254-7.68 5.086-15.326 10.138-23.006 15.223-3.413 2.628-7.885 6.588-12.151 7.714-0.512-0.273-1.024-0.58-1.536-0.853l-0.751-0.922 0.273-2.15c103.287-87.689 206.609-175.377 309.862-263.031 17.51-14.882 35.055-29.73 52.565-44.612 7.543-6.451 15.667-16.247 25.225-19.354 14.063-4.574 29.082 1.604 37.069 11.708 7.441 9.387 8.841 29.867-2.116 41.267-6.281 6.519-15.497 9.83-22.562 15.292z" />
<glyph unicode="&#xe918;" glyph-name="speed-3" d="M833.024 216.815c-1.092 5.871-1.195 9.66-1.468 14.541-0.068 3.14-0.239 6.246-0.683 9.182-0.273 2.628-0.649 5.666-1.195 9.284-2.765 18.125-13.585 52.429-26.317 73.455-1.024 1.673-2.048 3.311-3.072 4.949-6.144 10.342-13.039 20.207-20.617 29.594-0.717 0.922-1.434 1.843-2.15 2.765-0.478 0.512-0.922 1.024-1.399 1.536-25.293 30.003-57.481 54.75-93.491 73.216-1.161 0.58-2.321 1.195-3.482 1.741-11.913 5.939-24.269 11.23-36.864 15.77-23.381 9.079-49.152 15.462-77.619 19.115-0.171 0.034-0.341 0.068-0.512 0.102l-0.819 0.068c-2.867 0.375-5.803 0.683-8.738 0.99 0.341-9.387 0.717-18.807 1.058-28.194 1.126-0.102 2.219-0.205 3.345-0.307 18.876-3.379 36.352-6.451 52.975-11.571 49.835-15.292 94.891-39.561 129.195-73.865-0.034 0-0.034-0.034-0.068-0.034 1.092-3.618 6.144-6.076 8.363-8.841 5.12-6.315 10.206-12.595 15.292-18.91 2.799-3.994 5.564-7.987 8.226-12.049 10.308-16.418 18.603-34.475 24.542-54.238 0.478-1.57 0.887-3.14 1.297-4.745 0.137-0.649 0.273-1.297 0.375-1.946 0.239-0.99 0.478-1.911 0.683-2.799 2.697-13.107 3.482-27.238 5.052-41.916h27.989v0.239c-0.239 0.956-0.41 1.911-0.58 2.867h0.683zM456.158 472.166l-0.819-0.068c-0.171-0.034-0.341-0.068-0.512-0.102-28.467-3.652-54.238-10.035-77.619-19.115-12.629-4.54-24.951-9.796-36.864-15.77-1.161-0.58-2.321-1.161-3.482-1.741-36.011-18.466-68.198-43.213-93.491-73.216-0.478-0.512-0.922-1.024-1.399-1.536-0.717-0.922-1.434-1.843-2.15-2.765-7.578-9.387-14.473-19.251-20.617-29.594-1.024-1.638-2.048-3.311-3.072-4.949-12.732-21.026-23.552-55.33-26.317-73.455-0.546-3.618-0.922-6.656-1.195-9.284-0.478-2.935-0.614-6.042-0.683-9.182-0.239-4.881-0.375-8.67-1.468-14.541h0.58c-0.171-0.956-0.341-1.911-0.58-2.867v-0.239h27.989c1.57 14.677 2.355 28.809 5.052 41.916 0.205 0.887 0.444 1.843 0.683 2.799 0.137 0.649 0.239 1.297 0.375 1.946 0.41 1.604 0.819 3.174 1.297 4.745 5.939 19.763 14.234 37.82 24.542 54.238 2.662 4.028 5.427 8.021 8.226 12.015 5.086 6.315 10.206 12.595 15.292 18.91 2.253 2.765 7.305 5.222 8.363 8.841-0.034 0-0.034 0.034-0.068 0.034 34.304 34.304 79.36 58.573 129.195 73.865 16.623 5.12 34.099 8.192 52.975 11.571 3.379 0.307 6.758 0.614 10.138 0.887 2.389 0.205 4.813 0.375 7.202 0.58 0.785 9.455 1.57 18.91 2.389 28.331-8.124-0.512-16.145-1.263-23.962-2.253zM543.846 235.93c-0.683 22.118-1.365 44.203-2.048 66.321-3.516 93.013-6.997 186.027-10.513 279.006-1.092 29.764-2.185 59.529-3.243 89.293-0.341 9.182-0.649 18.364-0.99 27.58 0.171 4.301 0.785 10.24-0.785 14.37-0.512 0.239-1.058 0.512-1.57 0.751l-1.195 0.102-1.604-1.468c-11.332-135.031-22.63-270.029-33.963-405.060-1.911-22.903-3.823-45.807-5.734-68.71-0.853-9.899-4.096-22.221-1.092-31.778 4.437-14.097 18.227-22.733 31.061-23.347 11.947-0.614 29.457 10.172 32.358 25.702 1.604 8.909-1.024 18.33-0.683 27.238z" />
<glyph unicode="&#xe919;" glyph-name="speed-4" d="M831.59 231.356c-0.068 3.14-0.239 6.246-0.683 9.182-0.273 2.628-0.649 5.666-1.195 9.284-2.765 18.125-13.585 52.429-26.317 73.455-1.024 1.673-2.048 3.311-3.072 4.949-6.144 10.342-13.039 20.207-20.617 29.594-0.717 0.922-1.434 1.843-2.15 2.765-0.478 0.512-0.922 1.024-1.399 1.536-4.881 5.803-10.069 11.435-15.462 16.828-6.724-6.349-13.449-12.698-20.173-19.046 0.239-0.239 0.478-0.478 0.717-0.717-0.034 0-0.034-0.034-0.068-0.034 1.092-3.618 6.144-6.076 8.363-8.841 5.12-6.315 10.206-12.595 15.292-18.91 2.799-3.994 5.564-7.987 8.226-12.049 10.308-16.418 18.603-34.475 24.542-54.238 0.478-1.57 0.887-3.14 1.297-4.745 0.137-0.649 0.273-1.297 0.375-1.946 0.239-0.99 0.478-1.911 0.683-2.799 2.697-13.107 3.482-27.238 5.052-41.916h27.989v0.239c-0.239 0.956-0.41 1.911-0.58 2.867h0.58c-1.058 5.871-1.161 9.66-1.399 14.541zM509.781 448.512c5.7-0.034 11.196-0.341 15.667-1.092 7.817-0.614 15.667-1.263 23.484-1.877 3.379-0.307 6.758-0.614 10.138-0.887 18.876-3.379 36.352-6.451 52.975-11.571 23.552-7.236 46.046-16.452 66.833-27.819 8.294 6.11 16.555 12.186 24.815 18.295-6.861 4.164-13.858 8.090-21.026 11.776-1.161 0.58-2.321 1.195-3.482 1.741-11.913 5.939-24.269 11.23-36.864 15.77-23.381 9.079-49.152 15.462-77.619 19.115-0.171 0.034-0.341 0.068-0.512 0.102l-0.819 0.068c-11.162 1.399-22.733 2.389-34.714 2.97l-6.588 0.546c-4.164 0.034-8.26 0.034-12.322 0-4.062 0.034-8.158 0.068-12.322 0l-6.588-0.546c-11.981-0.58-23.552-1.57-34.714-2.97l-0.819-0.068c-0.171-0.034-0.341-0.068-0.512-0.102-28.467-3.652-54.238-10.035-77.619-19.115-12.629-4.54-24.951-9.796-36.864-15.77-1.161-0.58-2.321-1.161-3.482-1.741-36.011-18.466-68.198-43.213-93.491-73.216-0.478-0.512-0.922-1.024-1.399-1.536-0.717-0.922-1.434-1.843-2.15-2.765-7.578-9.387-14.473-19.251-20.617-29.594-1.024-1.638-2.048-3.311-3.072-4.949-12.732-21.026-23.552-55.33-26.317-73.455-0.546-3.618-0.922-6.656-1.195-9.284-0.478-2.935-0.614-6.042-0.683-9.182-0.239-4.881-0.375-8.67-1.468-14.541h0.58c-0.171-0.956-0.341-1.911-0.58-2.867v-0.239h27.989c1.57 14.677 2.355 28.809 5.052 41.916 0.205 0.887 0.444 1.843 0.683 2.799 0.137 0.649 0.239 1.297 0.375 1.946 0.41 1.604 0.819 3.174 1.297 4.745 5.939 19.763 14.234 37.82 24.542 54.238 2.662 4.028 5.427 8.021 8.226 12.015 5.086 6.315 10.206 12.595 15.292 18.91 2.253 2.765 7.305 5.222 8.363 8.841-0.034 0-0.034 0.034-0.068 0.034 34.304 34.304 79.36 58.573 129.195 73.865 16.623 5.12 34.099 8.192 52.975 11.571 3.379 0.307 6.758 0.614 10.138 0.887 7.817 0.614 15.667 1.263 23.484 1.877 4.608 0.819 10.103 1.161 15.804 1.161zM894.259 533.811l-0.717 0.956-2.15 0.239c-109.090-80.384-218.146-160.768-327.202-241.152-18.5-13.653-37.001-27.273-55.501-40.926-8.021-5.871-19.422-11.537-24.644-20.105-7.68-12.629-5.12-28.672 2.867-38.741 7.407-9.387 27.034-15.462 40.653-7.407 7.817 4.608 13.141 12.834 20.105 18.432 16.179 15.087 32.358 30.14 48.538 45.227 67.686 63.898 135.373 127.761 203.059 191.625 21.675 20.412 43.383 40.823 65.058 61.235 6.69 6.315 13.38 12.595 20.105 18.91 3.345 2.697 8.226 6.178 10.274 10.035-0.102 0.546-0.273 1.126-0.444 1.673z" />
<glyph unicode="&#xe91a;" glyph-name="speed-5" d="M509.781 448.512c5.7-0.034 11.196-0.341 15.667-1.092 7.817-0.614 15.667-1.263 23.484-1.877 3.379-0.307 6.758-0.614 10.138-0.887 18.876-3.379 36.352-6.451 52.975-11.571 49.835-15.292 94.891-39.561 129.195-73.865-0.034 0-0.034-0.034-0.068-0.034 1.092-3.618 6.144-6.076 8.363-8.841 5.12-6.315 10.206-12.595 15.292-18.91 2.799-3.994 5.564-7.987 8.226-12.049 10.308-16.418 18.603-34.475 24.542-54.238 0.478-1.57 0.887-3.14 1.297-4.745 0.137-0.649 0.273-1.297 0.375-1.946 0.068-0.273 0.137-0.546 0.205-0.819 9.66-0.41 19.319-0.819 28.979-1.229-3.959 18.978-13.79 48.196-25.122 66.901-1.024 1.673-2.048 3.311-3.072 4.949-6.144 10.342-13.039 20.207-20.617 29.594-0.717 0.922-1.434 1.843-2.15 2.765-0.478 0.512-0.922 1.024-1.399 1.536-25.293 30.003-57.481 54.75-93.491 73.216-1.161 0.58-2.321 1.195-3.482 1.741-11.913 5.939-24.269 11.23-36.864 15.77-23.381 9.079-49.152 15.462-77.619 19.115-0.171 0.034-0.341 0.068-0.512 0.102l-0.819 0.068c-11.162 1.399-22.733 2.389-34.714 2.97l-6.588 0.546c-4.164 0.034-8.26 0.034-12.322 0-4.062 0.034-8.158 0.068-12.322 0l-6.588-0.546c-11.981-0.58-23.552-1.57-34.714-2.97l-0.819-0.068c-0.171-0.034-0.341-0.068-0.512-0.102-28.467-3.652-54.238-10.035-77.619-19.115-12.629-4.54-24.951-9.796-36.864-15.77-1.161-0.58-2.321-1.161-3.482-1.741-36.011-18.466-68.198-43.213-93.491-73.216-0.478-0.512-0.922-1.024-1.399-1.536-0.717-0.922-1.434-1.843-2.15-2.765-7.578-9.387-14.473-19.251-20.617-29.594-1.024-1.638-2.048-3.311-3.072-4.949-12.732-21.026-23.552-55.33-26.317-73.455-0.546-3.618-0.922-6.656-1.195-9.284-0.478-2.935-0.614-6.042-0.683-9.182-0.239-4.881-0.375-8.67-1.468-14.541h0.58c-0.171-0.956-0.341-1.911-0.58-2.867v-0.239h27.989c1.57 14.677 2.355 28.809 5.052 41.916 0.205 0.887 0.444 1.843 0.683 2.799 0.137 0.649 0.239 1.297 0.375 1.946 0.41 1.604 0.819 3.174 1.297 4.745 5.939 19.763 14.234 37.82 24.542 54.238 2.662 4.028 5.427 8.021 8.226 12.015 5.086 6.315 10.206 12.595 15.292 18.91 2.253 2.765 7.305 5.222 8.363 8.841-0.034 0-0.034 0.034-0.068 0.034 34.304 34.304 79.36 58.573 129.195 73.865 16.623 5.12 34.099 8.192 52.975 11.571 3.379 0.307 6.758 0.614 10.138 0.887 7.817 0.614 15.667 1.263 23.484 1.877 4.676 0.785 10.172 1.126 15.872 1.126zM1008.299 227.021c-135.373 5.803-270.746 11.571-406.084 17.374-22.972 0.99-45.909 1.946-68.881 2.935-9.933 0.478-22.357 3.209-31.778-0.205-13.892-5.018-21.948-19.115-22.084-31.983-0.102-11.981 11.366-29.013 27.034-31.266 8.977-1.297 18.295 1.741 27.204 1.741 22.050 1.604 44.134 3.174 66.185 4.779 92.809 7.305 185.583 14.609 278.357 21.914 29.696 2.287 59.392 4.608 89.088 6.895 9.182 0.717 18.33 1.399 27.511 2.116 4.301 0 10.274-0.341 14.302 1.365 0.239 0.546 0.444 1.058 0.683 1.604l0.034 1.195-1.57 1.536z" />
<glyph unicode="&#xe91b;" glyph-name="stop" d="M952.525-46.763h-881.050c-29.969 0-54.238 24.269-54.238 54.238v881.050c0 29.969 24.269 54.238 54.238 54.238h881.015c29.969 0 54.238-24.269 54.238-54.238v-881.015c0.034-29.969-24.269-54.272-54.204-54.272z" />
<glyph unicode="&#xe91c;" glyph-name="subtitles" d="M20.203 724.548h921.085c17.128 0 60.887 3.738 70.335-3.55 10.308-7.951 6.038-58.946 6.038-78.459v-398.684c0-14.090 2.645-57.242-2.13-65.324-6.793-11.489-31.85-7.81-49.732-7.81h-142.442q-299.069 0.174-598.192 0.355h-163.046c-20.011-0.003-48.713-4.601-54.704 9.94-3.641 8.837-1.066 26.31-1.066 37.277v460.459c0 10.004-1.762 28.455 1.421 35.857 2.444 5.685 7.016 7.11 12.432 9.94zM47.555 413.196v-64.968l282.755 0.358q0.177 32.302 0.355 64.611c-95.006-0.034-188.105 0.007-283.111 0zM364.766 413.196v-64.968l353.799 0.358v64.611c-118.566-0.027-235.23 0.010-353.799 0zM758.351 413.196v-64.968l211.712 0.358v64.611c-71.202-0.027-140.51 0-211.712 0zM47.555 315.569v-64.969q211.868 0.179 423.779 0.355v64.614c-141.893-0.034-281.886 0.007-423.779 0zM675.584 315.569v-64.969q141.363 0.179 282.757 0.355v64.614c-94.884-0.034-187.873 0-282.757 0zM499.395 315.569v-64.969q70.508 0.179 141.022 0.355v64.614h-141.022z" />
<glyph unicode="&#xe91d;" glyph-name="to-background" d="M956.416 831.659h-888.832c-31.983 0-58.027-26.044-58.027-58.027v-651.264c0-31.983 26.044-58.027 58.027-58.027h888.832c31.983 0 58.027 26.044 58.027 58.027v651.264c0 31.983-26.044 58.027-58.027 58.027zM967.168 122.368c0-5.939-4.813-10.752-10.752-10.752h-888.832c-5.939 0-10.752 4.813-10.752 10.752v651.264c0 5.939 4.813 10.752 10.752 10.752h888.832c5.939 0 10.752-4.813 10.752-10.752v-651.264zM913.033 413.594h-299.657c-19.012 0-34.406-15.394-34.406-34.406v-218.317c0-19.012 15.394-34.406 34.406-34.406h299.657c19.012 0 34.406 15.394 34.406 34.406v218.317c-0.034 19.012-15.428 34.406-34.406 34.406z" />
</font>
</defs>
</svg>
