<?xml version="1.0" encoding="UTF-8" standalone="no"?>
<!-- Creator: CorelDRAW -->

<svg
   xmlns:dc="http://purl.org/dc/elements/1.1/"
   xmlns:cc="http://creativecommons.org/ns#"
   xmlns:rdf="http://www.w3.org/1999/02/22-rdf-syntax-ns#"
   xmlns:svg="http://www.w3.org/2000/svg"
   xmlns="http://www.w3.org/2000/svg"
   xmlns:sodipodi="http://sodipodi.sourceforge.net/DTD/sodipodi-0.dtd"
   xmlns:inkscape="http://www.inkscape.org/namespaces/inkscape"
   id="svg1707"
   xml:space="preserve"
   height="3000"
   width="4000"
   version="1.0"
   viewBox="-2002 0 17795.556 10020"
   sodipodi:docname="ar_v2.svg"
   inkscape:version="0.92.4 (5da689c313, 2019-01-14)"><defs
     id="defs4105" /><sodipodi:namedview
     pagecolor="#ffffff"
     bordercolor="#666666"
     borderopacity="1"
     objecttolerance="10"
     gridtolerance="10"
     guidetolerance="10"
     inkscape:pageopacity="0"
     inkscape:pageshadow="2"
     inkscape:window-width="1600"
     inkscape:window-height="877"
     id="namedview4103"
     showgrid="true"
     inkscape:zoom="0.1475"
     inkscape:cx="1272.7746"
     inkscape:cy="1142.4199"
     inkscape:window-x="-8"
     inkscape:window-y="-8"
     inkscape:window-maximized="1"
     inkscape:current-layer="layer7"><inkscape:grid
       type="xygrid"
       id="grid4802" /></sodipodi:namedview><metadata
     id="metadata1863"><rdf:RDF><cc:Work
         rdf:about=""><dc:format>image/svg+xml</dc:format><dc:type
           rdf:resource="http://purl.org/dc/dcmitype/StillImage" /><dc:title></dc:title></cc:Work></rdf:RDF></metadata><g
     inkscape:groupmode="layer"
     id="layer3"
     inkscape:label="back"
     style="display:inline"
     transform="translate(0,10677.334)"
     sodipodi:insensitive="true"><path
       inkscape:connector-curvature="0"
       style="fill:#006233;fill-opacity:1;stroke-width:4.71395111"
       id="21399192"
       d="M 15793.556,1005.7995 V -12340.667 l -17795.556,0.2 V 1005.9995 h 17795.556 z"
       class="fil0 str0" /><path
       style="fill:#006233;fill-opacity:1;stroke-width:1.69491529"
       d="m 2127.6443,1682.3298 c 2.3305,-0.7828 21.0169,-6.1192 41.5254,-11.8586 121.6677,-34.0496 203.8484,-69.691 262.1437,-113.6905 30.4859,-23.0097 59.6467,-57.24 75.3826,-88.4872 7.9633,-15.813 16.7291,-42.689 20.2997,-62.2389 4.4393,-24.3065 4.0353,-68.9992 -0.8784,-97.1748 -8.1266,-46.5984 -23.7833,-92.3321 -49.4176,-144.3507 -16.1836,-32.8406 -45.8391,-84.2251 -46.8532,-81.183 -0.3409,1.0228 1.2582,11.3175 3.5536,22.8772 15.555,78.3357 22.8988,151.9707 24.2402,243.0516 1.2393,84.1539 -2.5097,138.6761 -10.4891,152.5424 -8.4924,14.7577 -35.2937,35.7407 -57.9107,45.3387 -23.148,9.8234 -48.5353,10.6255 -66.1263,2.0894 -21.4131,-10.3909 -39.6606,-36.2638 -48.2745,-68.4477 -2.0342,-7.6001 -4.2528,-13.607 -4.9302,-13.3486 -0.6774,0.2584 -6.0073,6.9529 -11.8442,14.8766 -78.1951,106.1511 -171.3105,150.3918 -216.0142,102.632 l -8.4746,-9.0539 -16.9492,5.6609 c -9.322,3.1136 -24.0826,7.0948 -32.8012,8.8472 l -15.8521,3.1862 -9.8398,11.9236 c -25.4289,30.8139 -60.0942,52.6436 -101.9903,64.2263 -19.6932,5.4444 -56.8103,7.4373 -77.2225,4.1463 -31.9934,-5.1583 -57.9218,-18.1475 -79.2682,-39.7107 -20.1127,-20.3169 -31.3459,-44.3541 -34.3166,-73.4318 l -1.2516,-12.2518 -10.7115,7.4635 c -14.5579,10.1436 -34.0452,20.0884 -50.3292,25.6843 -10.9041,3.747 -16.666,4.6697 -29.6373,4.7457 -19.2828,0.1131 -30.0969,-2.3152 -48.7496,-10.9465 -23.2574,-10.7622 -39.6028,-29.2077 -45.4963,-51.3419 -5.5007,-20.659 -1.3147,-49.2539 10.9542,-74.8302 6.2344,-12.9964 17.19,-31.585 17.19,-29.1666 0,0.637 -1.9373,8.6041 -4.305,17.7047 -12.8988,49.5774 -3.385,83.7475 27.6727,99.3898 32.5423,16.3901 91.0768,4.9907 129.5904,-25.2373 8.3713,-6.5704 9.151,-7.825 11.8492,-19.0673 3.5282,-14.7009 12.8362,-38.6638 22.6269,-58.2514 5.6355,-11.2746 6.6883,-14.5773 4.5924,-14.4068 -4.3584,0.3547 -27.4772,-34.0615 -27.5559,-41.0217 -0.055,-4.8335 7.1431,-25.7983 11.5782,-33.7234 1.0558,-1.8866 4.8211,2.3124 15.004,16.7324 7.477,10.588 15.19,20.6783 17.1401,22.4229 3.2721,2.9272 3.3544,3.5417 1.0662,7.9666 -5.1794,10.0157 -2.0867,6.6517 8.8053,-9.5778 12.2878,-18.3093 22.1939,-31.6655 34.9519,-47.1247 4.5257,-5.4839 7.6052,-10.554 6.8434,-11.2669 -0.7619,-0.7128 -6.2878,-4.4364 -12.2799,-8.2746 -18.9131,-12.1145 -39.9882,-16.3523 -59.2443,-11.9129 -4.0849,0.9417 -7.8516,1.2877 -8.3705,0.7688 -1.6903,-1.6903 5.903,-15.0836 13.2739,-23.4129 23.4336,-26.4803 71.0748,-43.5343 121.663,-43.5514 39.7883,-0.014 68.4336,11.1263 78.2896,30.4458 3.0439,5.9665 3.0497,6.4463 0.156,12.9099 -5.9053,13.1898 -20.1153,23.9485 -50.8917,38.5312 -16.6121,7.8712 -17.5191,8.5487 -12.7948,9.557 11.0076,2.3495 40.0961,-1.0141 56.5818,-6.5427 15.2182,-5.1034 33.3622,-14.0759 41.0457,-20.2977 l 3.6091,-2.9224 -2.7803,-58.3862 c -5.0104,-105.219 -9.0062,-148.4151 -14.8584,-160.6276 -5.4165,-11.3031 -3.745,-27.8829 5.5311,-54.8642 l 7.396,-21.5124 5.6072,11.343 c 3.084,6.2386 10.2518,17.3359 15.9284,24.6607 18.1436,23.411 18.8377,30.9434 4.5672,49.5621 l -8.5751,11.1879 3.547,32.4576 c 4.1059,37.5729 6.3425,73.185 7.8982,125.7574 l 1.1057,37.3676 -12.5694,16.8697 c -25.3143,33.9749 -44.1095,47.6384 -79.4909,57.7875 -13.9026,3.9879 -16.3765,4.2404 -24.2602,2.4762 -11.0616,-2.4755 -26.7379,-9.8495 -39.8084,-18.7255 -5.5656,-3.7795 -10.9657,-6.8719 -12.0002,-6.8719 -5.0713,0 -43.6352,29.7093 -54.2362,41.7831 -6.485,7.3861 -6.258,7.5944 12.7108,11.6642 10.4036,2.232 24.2099,3.0424 59.322,3.4818 25.1695,0.315 57.5459,0.9988 71.9475,1.5195 68.5375,2.4782 99.8303,19.9613 109.5521,61.2061 3.783,16.0497 2.4496,52.0463 -2.6227,70.8049 -1.9841,7.3376 -3.2104,13.738 -2.7251,14.2233 0.4852,0.4852 8.4159,-1.5059 17.6236,-4.4248 l 16.7414,-5.3071 0.9812,-15.6958 c 1.194,-19.0973 7.1984,-40.4963 17.4382,-62.1469 4.1471,-8.7684 7.8197,-15.6328 8.1614,-15.2542 0.3416,0.3785 -0.9004,7.5527 -2.76,15.9425 -3.7958,17.1246 -5.1408,58.8092 -2.0646,63.9871 1.615,2.7184 3.051,2.3095 16.9491,-4.8265 20.7796,-10.6692 47.2861,-26.7672 68.5745,-41.6469 l 17.7966,-12.4391 0.4713,-23.2558 0.4713,-23.2557 -4.7086,-0.9582 c -2.5897,-0.527 -9.2821,-2.1278 -14.872,-3.5573 -31.1958,-7.9777 -54.6356,-32.2221 -62.9054,-65.0645 -2.105,-8.3598 -2.5753,-15.9224 -1.9498,-31.3559 0.8747,-21.5808 4.7285,-36.6605 14.2108,-55.6054 5.5736,-11.1358 22.7648,-37.2399 23.826,-36.1787 0.4393,0.4393 -1.4677,7.923 -4.2379,16.6304 -9.1687,28.82 -11.3161,41.2156 -11.2574,64.9842 0.047,19.0928 0.5878,23.3779 4.051,32.1032 7.6298,19.2231 24.9899,31.4626 48.554,34.232 l 9.3798,1.1025 -0.9049,-12.5324 c -0.4976,-6.8929 -1.3381,-26.6426 -1.8678,-43.8884 -1.6571,-53.9616 -6.658,-129.7033 -13.5966,-205.9322 -2.0868,-22.926 -3.3731,-30.1988 -6.2951,-35.5932 -6.9223,-12.7797 -3.9529,-34.6812 9.9961,-73.7288 0.5869,-1.6429 2.6481,0.8711 5.8258,7.1057 2.7046,5.3064 10.6445,16.7471 17.6443,25.4237 6.9997,8.6766 13.4773,18.4211 14.3946,21.6544 2.3686,8.3489 -0.2788,16.4576 -9.4333,28.8932 l -7.7325,10.5038 2.6502,29.9045 c 5.1232,57.8106 8.1187,116.3662 10.4387,204.0571 0.9863,37.2796 1.4188,41.9478 3.8854,41.9372 9.1369,-0.039 60.6945,-16.0914 65.1978,-20.2992 1.5511,-1.4492 -13.0074,-40.4013 -25.9911,-69.5408 l -8.3141,-18.6594 9.6636,-16.0833 c 5.3149,-8.8459 10.1874,-16.0834 10.8276,-16.0834 3.3271,0 29.9432,55.1423 41.9928,86.999 l 6.3015,16.6601 21.0403,-14.0453 c 26.8703,-17.9371 52.5688,-42.9955 60.6149,-59.1053 l 5.5025,-11.0169 -35.2505,-1.0667 c -44.6718,-1.3518 -57.5176,-4.453 -69.1487,-16.6939 -10.6853,-11.2455 -5.2086,-31.6326 15.117,-56.2743 33.6985,-40.8543 69.9754,-32.3761 92.4482,21.6058 7.7609,18.6425 14.2233,48.4271 12.9307,59.5966 -3.4678,29.9672 -32.2998,65.6356 -80.3729,99.4304 -11.7185,8.238 -13.9601,10.5363 -13.2062,13.5401 3.2661,13.0133 6.6027,39.0733 7.6105,59.4407 1.086,21.9486 1.6009,24.7128 6.5824,35.3393 22.9018,48.8535 86.7721,58.168 129.0771,18.8238 l 9.2805,-8.631 -2.0378,-45.6063 c -3.4605,-77.4424 -8.787,-133.6557 -25.0391,-264.2503 -5.1044,-41.0169 -11.1396,-90.083 -13.4115,-109.0358 l -4.1308,-34.4595 12.237,-16.7655 c 6.7303,-9.2211 12.7826,-16.78634 13.4496,-16.81171 0.6669,-0.0254 9.2545,10.71301 19.0834,23.86311 63.2027,84.5582 103.1926,179.0746 112.6624,266.2782 2.574,23.7029 2.1984,70.9318 -0.7413,93.2003 -15.4781,117.2515 -86.7257,211.6362 -197.6195,261.7952 -50.6424,22.9063 -108.3613,36.5357 -174.4282,41.1884 -29.902,2.1058 -55.3163,2.1438 -49.1525,0.073 z m -282.2034,-43.9609 c 28.4165,-6.0006 53.6101,-17.0079 76.9917,-33.6382 11.9795,-8.5205 11.5709,-10.1784 -2.568,-10.4214 -10.6944,-0.1838 -32.4619,-6.2668 -45.7637,-12.7888 -20.8845,-10.2399 -37.1929,-29.291 -44.2887,-51.7371 -4.157,-13.1498 -3.766,-46.9451 0.7477,-64.6278 l 3.3012,-12.9328 -23.8711,-1.1569 c -32.7887,-1.5891 -65.0876,-6.4803 -79.3796,-12.0208 -2.5088,-0.9725 -2.97,-0.1418 -2.9912,5.3874 -0.094,24.5404 -15.8496,56.4652 -40.8622,82.7969 -12.999,13.6846 -13.5795,15.7262 -8.9511,31.4836 4.7622,16.2128 12.6664,28.8629 26.933,43.1043 35.244,35.1816 85.4392,48.2213 140.702,36.5516 z m 270.373,-76.5025 c 23.5,-6.5067 50.2429,-20.8602 78.7795,-42.2828 18.3011,-13.7388 53.477,-45.5265 62.2004,-56.2093 l 6.2683,-7.6761 -2.4532,-17.6185 c -2.3151,-16.6268 -7.2077,-41.678 -8.6295,-44.1854 -0.3566,-0.6289 -8.4785,2.5501 -18.0487,7.0643 -16.053,7.5722 -46.4994,18.7389 -57.5576,21.1102 l -4.661,0.9995 v 29.4008 29.4009 l -19.1301,18.532 c -20.3159,19.6808 -38.5856,33.5353 -64.249,48.722 -8.6754,5.1338 -16.9175,10.0412 -18.3158,10.9053 -1.989,1.229 -1.2511,1.9488 3.3898,3.3063 10.1034,2.9554 28.7613,2.309 42.4069,-1.4692 z m -146.8463,-13.8627 c 6.4738,-15.5275 9.5263,-29.246 9.5076,-42.729 -0.052,-37.5284 -29.936,-53.4089 -101.6784,-54.0324 l -31.3559,-0.2725 -0.4912,12.9207 c -1.257,33.0678 12.9064,63.9762 35.9924,78.5452 18.1864,11.477 35.55,15.8329 63.8844,16.0265 l 19.7245,0.1347 z m -273.6996,-67.7966 c 8.7275,-11.5622 10.3731,-16.2303 10.1967,-28.9239 l -0.1456,-10.4829 -5.7113,11.8644 c -7.1535,14.8602 -14.6034,36.4407 -12.5799,36.4407 0.838,0 4.5461,-4.0042 8.2402,-8.8983 z m 31.1984,-68.5725 c 3.5471,-4.9334 5.8352,-8.9574 5.0847,-8.9422 -1.6445,0.033 -19.1837,24.3004 -19.1074,26.4366 0.055,1.5415 2.7841,-1.8631 14.0227,-17.4944 z m 596.4843,-195.4428 c 13.6156,-6.4045 1.8943,-20.6863 -19.0094,-23.162 -11.4306,-1.3538 -16.1309,0.2419 -20.2248,6.866 -5.497,8.8943 -4.6786,12.5657 3.6735,16.4804 5.6736,2.6591 9.7232,3.2293 19.0678,2.6845 6.5255,-0.3805 13.9472,-1.6715 16.4929,-2.8689 z"
       id="path4804"
       inkscape:connector-curvature="0"
       transform="matrix(4.448889,0,0,4.448889,-2002,-12340.667)" /><path
       style="fill:#006233;fill-opacity:1;stroke-width:1.69491529"
       d="m 2127.6443,1682.3298 c 2.3305,-0.7828 21.0169,-6.1192 41.5254,-11.8586 121.6677,-34.0496 203.8484,-69.691 262.1437,-113.6905 30.4859,-23.0097 59.6467,-57.24 75.3826,-88.4872 7.9633,-15.813 16.7291,-42.689 20.2997,-62.2389 4.4393,-24.3065 4.0353,-68.9992 -0.8784,-97.1748 -8.1266,-46.5984 -23.7833,-92.3321 -49.4176,-144.3507 -16.1836,-32.8406 -45.8391,-84.2251 -46.8532,-81.183 -0.3409,1.0228 1.2582,11.3175 3.5536,22.8772 15.555,78.3357 22.8988,151.9707 24.2402,243.0516 1.2393,84.1539 -2.5097,138.6761 -10.4891,152.5424 -8.4924,14.7577 -35.2937,35.7407 -57.9107,45.3387 -23.148,9.8234 -48.5353,10.6255 -66.1263,2.0894 -21.4131,-10.3909 -39.6606,-36.2638 -48.2745,-68.4477 -2.0342,-7.6001 -4.2528,-13.607 -4.9302,-13.3486 -0.6774,0.2584 -6.0073,6.9529 -11.8442,14.8766 -78.1951,106.1511 -171.3105,150.3918 -216.0142,102.632 l -8.4746,-9.0539 -16.9492,5.6609 c -9.322,3.1136 -24.0826,7.0948 -32.8012,8.8472 l -15.8521,3.1862 -9.8398,11.9236 c -25.4289,30.8139 -60.0942,52.6436 -101.9903,64.2263 -19.6932,5.4444 -56.8103,7.4373 -77.2225,4.1463 -31.9934,-5.1583 -57.9218,-18.1475 -79.2682,-39.7107 -20.1127,-20.3169 -31.3459,-44.3541 -34.3166,-73.4318 l -1.2516,-12.2518 -10.7115,7.4635 c -14.5579,10.1436 -34.0452,20.0884 -50.3292,25.6843 -10.9041,3.747 -16.666,4.6697 -29.6373,4.7457 -19.2828,0.1131 -30.0969,-2.3152 -48.7496,-10.9465 -23.2574,-10.7622 -39.6028,-29.2077 -45.4963,-51.3419 -5.5007,-20.659 -1.3147,-49.2539 10.9542,-74.8302 6.2344,-12.9964 17.19,-31.585 17.19,-29.1666 0,0.637 -1.9373,8.6041 -4.305,17.7047 -12.8988,49.5774 -3.385,83.7475 27.6727,99.3898 32.5423,16.3901 91.0768,4.9907 129.5904,-25.2373 8.3713,-6.5704 9.151,-7.825 11.8492,-19.0673 3.5282,-14.7009 12.8362,-38.6638 22.6269,-58.2514 5.6355,-11.2746 6.6883,-14.5773 4.5924,-14.4068 -4.3584,0.3547 -27.4772,-34.0615 -27.5559,-41.0217 -0.055,-4.8335 7.1431,-25.7983 11.5782,-33.7234 1.0558,-1.8866 4.8211,2.3124 15.004,16.7324 7.477,10.588 15.19,20.6783 17.1401,22.4229 3.2721,2.9272 3.3544,3.5417 1.0662,7.9666 -5.1794,10.0157 -2.0867,6.6517 8.8053,-9.5778 12.2878,-18.3093 22.1939,-31.6655 34.9519,-47.1247 4.5257,-5.4839 7.6052,-10.554 6.8434,-11.2669 -0.7619,-0.7128 -6.2878,-4.4364 -12.2799,-8.2746 -18.9131,-12.1145 -39.9882,-16.3523 -59.2443,-11.9129 -4.0849,0.9417 -7.8516,1.2877 -8.3705,0.7688 -1.6903,-1.6903 5.903,-15.0836 13.2739,-23.4129 23.4336,-26.4803 71.0748,-43.5343 121.663,-43.5514 39.7883,-0.014 68.4336,11.1263 78.2896,30.4458 3.0439,5.9665 3.0497,6.4463 0.156,12.9099 -5.9053,13.1898 -20.1153,23.9485 -50.8917,38.5312 -16.6121,7.8712 -17.5191,8.5487 -12.7948,9.557 11.0076,2.3495 40.0961,-1.0141 56.5818,-6.5427 15.2182,-5.1034 33.3622,-14.0759 41.0457,-20.2977 l 3.6091,-2.9224 -2.7803,-58.3862 c -5.0104,-105.219 -9.0062,-148.4151 -14.8584,-160.6276 -5.4165,-11.3031 -3.745,-27.8829 5.5311,-54.8642 l 7.396,-21.5124 5.6072,11.343 c 3.084,6.2386 10.2518,17.3359 15.9284,24.6607 18.1436,23.411 18.8377,30.9434 4.5672,49.5621 l -8.5751,11.1879 3.547,32.4576 c 4.1059,37.5729 6.3425,73.185 7.8982,125.7574 l 1.1057,37.3676 -12.5694,16.8697 c -25.3143,33.9749 -44.1095,47.6384 -79.4909,57.7875 -13.9026,3.9879 -16.3765,4.2404 -24.2602,2.4762 -11.0616,-2.4755 -26.7379,-9.8495 -39.8084,-18.7255 -5.5656,-3.7795 -10.9657,-6.8719 -12.0002,-6.8719 -5.0713,0 -43.6352,29.7093 -54.2362,41.7831 -6.485,7.3861 -6.258,7.5944 12.7108,11.6642 10.4036,2.232 24.2099,3.0424 59.322,3.4818 25.1695,0.315 57.5459,0.9988 71.9475,1.5195 68.5375,2.4782 99.8303,19.9613 109.5521,61.2061 3.783,16.0497 2.4496,52.0463 -2.6227,70.8049 -1.9841,7.3376 -3.2104,13.738 -2.7251,14.2233 0.4852,0.4852 8.4159,-1.5059 17.6236,-4.4248 l 16.7414,-5.3071 0.9812,-15.6958 c 1.194,-19.0973 7.1984,-40.4963 17.4382,-62.1469 4.1471,-8.7684 7.8197,-15.6328 8.1614,-15.2542 0.3416,0.3785 -0.9004,7.5527 -2.76,15.9425 -3.7958,17.1246 -5.1408,58.8092 -2.0646,63.9871 1.615,2.7184 3.051,2.3095 16.9491,-4.8265 20.7796,-10.6692 47.2861,-26.7672 68.5745,-41.6469 l 17.7966,-12.4391 0.4713,-23.2558 0.4713,-23.2557 -4.7086,-0.9582 c -2.5897,-0.527 -9.2821,-2.1278 -14.872,-3.5573 -31.1958,-7.9777 -54.6356,-32.2221 -62.9054,-65.0645 -2.105,-8.3598 -2.5753,-15.9224 -1.9498,-31.3559 0.8747,-21.5808 4.7285,-36.6605 14.2108,-55.6054 5.5736,-11.1358 22.7648,-37.2399 23.826,-36.1787 0.4393,0.4393 -1.4677,7.923 -4.2379,16.6304 -9.1687,28.82 -11.3161,41.2156 -11.2574,64.9842 0.047,19.0928 0.5878,23.3779 4.051,32.1032 7.6298,19.2231 24.9899,31.4626 48.554,34.232 l 9.3798,1.1025 -0.9049,-12.5324 c -0.4976,-6.8929 -1.3381,-26.6426 -1.8678,-43.8884 -1.6571,-53.9616 -6.658,-129.7033 -13.5966,-205.9322 -2.0868,-22.926 -3.3731,-30.1988 -6.2951,-35.5932 -6.9223,-12.7797 -3.9529,-34.6812 9.9961,-73.7288 0.5869,-1.6429 2.6481,0.8711 5.8258,7.1057 2.7046,5.3064 10.6445,16.7471 17.6443,25.4237 6.9997,8.6766 13.4773,18.4211 14.3946,21.6544 2.3686,8.3489 -0.2788,16.4576 -9.4333,28.8932 l -7.7325,10.5038 2.6502,29.9045 c 5.1232,57.8106 8.1187,116.3662 10.4387,204.0571 0.9863,37.2796 1.4188,41.9478 3.8854,41.9372 9.1369,-0.039 60.6945,-16.0914 65.1978,-20.2992 1.5511,-1.4492 -13.0074,-40.4013 -25.9911,-69.5408 l -8.3141,-18.6594 9.6636,-16.0833 c 5.3149,-8.8459 10.1874,-16.0834 10.8276,-16.0834 3.3271,0 29.9432,55.1423 41.9928,86.999 l 6.3015,16.6601 21.0403,-14.0453 c 26.8703,-17.9371 52.5688,-42.9955 60.6149,-59.1053 l 5.5025,-11.0169 -35.2505,-1.0667 c -44.6718,-1.3518 -57.5176,-4.453 -69.1487,-16.6939 -10.6853,-11.2455 -5.2086,-31.6326 15.117,-56.2743 33.6985,-40.8543 69.9754,-32.3761 92.4482,21.6058 7.7609,18.6425 14.2233,48.4271 12.9307,59.5966 -3.4678,29.9672 -32.2998,65.6356 -80.3729,99.4304 -11.7185,8.238 -13.9601,10.5363 -13.2062,13.5401 3.2661,13.0133 6.6027,39.0733 7.6105,59.4407 1.086,21.9486 1.6009,24.7128 6.5824,35.3393 22.9018,48.8535 86.7721,58.168 129.0771,18.8238 l 9.2805,-8.631 -2.0378,-45.6063 c -3.4605,-77.4424 -8.787,-133.6557 -25.0391,-264.2503 -5.1044,-41.0169 -11.1396,-90.083 -13.4115,-109.0358 l -4.1308,-34.4595 12.237,-16.7655 c 6.7303,-9.2211 12.7826,-16.78634 13.4496,-16.81171 0.6669,-0.0254 9.2545,10.71301 19.0834,23.86311 63.2027,84.5582 103.1926,179.0746 112.6624,266.2782 2.574,23.7029 2.1984,70.9318 -0.7413,93.2003 -15.4781,117.2515 -86.7257,211.6362 -197.6195,261.7952 -50.6424,22.9063 -108.3613,36.5357 -174.4282,41.1884 -29.902,2.1058 -55.3163,2.1438 -49.1525,0.073 z m -282.2034,-43.9609 c 28.4165,-6.0006 53.6101,-17.0079 76.9917,-33.6382 11.9795,-8.5205 11.5709,-10.1784 -2.568,-10.4214 -10.6944,-0.1838 -32.4619,-6.2668 -45.7637,-12.7888 -20.8845,-10.2399 -37.1929,-29.291 -44.2887,-51.7371 -4.157,-13.1498 -3.766,-46.9451 0.7477,-64.6278 l 3.3012,-12.9328 -23.8711,-1.1569 c -32.7887,-1.5891 -65.0876,-6.4803 -79.3796,-12.0208 -2.5088,-0.9725 -2.97,-0.1418 -2.9912,5.3874 -0.094,24.5404 -15.8496,56.4652 -40.8622,82.7969 -12.999,13.6846 -13.5795,15.7262 -8.9511,31.4836 4.7622,16.2128 12.6664,28.8629 26.933,43.1043 35.244,35.1816 85.4392,48.2213 140.702,36.5516 z m 270.373,-76.5025 c 23.5,-6.5067 50.2429,-20.8602 78.7795,-42.2828 18.3011,-13.7388 53.477,-45.5265 62.2004,-56.2093 l 6.2683,-7.6761 -2.4532,-17.6185 c -2.3151,-16.6268 -7.2077,-41.678 -8.6295,-44.1854 -0.3566,-0.6289 -8.4785,2.5501 -18.0487,7.0643 -16.053,7.5722 -46.4994,18.7389 -57.5576,21.1102 l -4.661,0.9995 v 29.4008 29.4009 l -19.1301,18.532 c -20.3159,19.6808 -38.5856,33.5353 -64.249,48.722 -8.6754,5.1338 -16.9175,10.0412 -18.3158,10.9053 -1.989,1.229 -1.2511,1.9488 3.3898,3.3063 10.1034,2.9554 28.7613,2.309 42.4069,-1.4692 z m -146.8463,-13.8627 c 6.4738,-15.5275 9.5263,-29.246 9.5076,-42.729 -0.052,-37.5284 -29.936,-53.4089 -101.6784,-54.0324 l -31.3559,-0.2725 -0.4912,12.9207 c -1.257,33.0678 12.9064,63.9762 35.9924,78.5452 18.1864,11.477 35.55,15.8329 63.8844,16.0265 l 19.7245,0.1347 z m -273.6996,-67.7966 c 8.7275,-11.5622 10.3731,-16.2303 10.1967,-28.9239 l -0.1456,-10.4829 -5.7113,11.8644 c -7.1535,14.8602 -14.6034,36.4407 -12.5799,36.4407 0.838,0 4.5461,-4.0042 8.2402,-8.8983 z m 31.1984,-68.5725 c 3.5471,-4.9334 5.8352,-8.9574 5.0847,-8.9422 -1.6445,0.033 -19.1837,24.3004 -19.1074,26.4366 0.055,1.5415 2.7841,-1.8631 14.0227,-17.4944 z m 596.4843,-195.4428 c 13.6156,-6.4045 1.8943,-20.6863 -19.0094,-23.162 -11.4306,-1.3538 -16.1309,0.2419 -20.2248,6.866 -5.497,8.8943 -4.6786,12.5657 3.6735,16.4804 5.6736,2.6591 9.7232,3.2293 19.0678,2.6845 6.5255,-0.3805 13.9472,-1.6715 16.4929,-2.8689 z"
       id="path4806"
       inkscape:connector-curvature="0"
       transform="matrix(4.448889,0,0,4.448889,-2002,-12340.667)" /><path
       style="fill:#006233;fill-opacity:1;stroke-width:1.69491529"
       d="m 2127.6443,1682.3298 c 2.3305,-0.7828 21.0169,-6.1192 41.5254,-11.8586 121.6677,-34.0496 203.8484,-69.691 262.1437,-113.6905 30.4859,-23.0097 59.6467,-57.24 75.3826,-88.4872 7.9633,-15.813 16.7291,-42.689 20.2997,-62.2389 4.4393,-24.3065 4.0353,-68.9992 -0.8784,-97.1748 -8.1266,-46.5984 -23.7833,-92.3321 -49.4176,-144.3507 -16.1836,-32.8406 -45.8391,-84.2251 -46.8532,-81.183 -0.3409,1.0228 1.2582,11.3175 3.5536,22.8772 15.555,78.3357 22.8988,151.9707 24.2402,243.0516 1.2393,84.1539 -2.5097,138.6761 -10.4891,152.5424 -8.4924,14.7577 -35.2937,35.7407 -57.9107,45.3387 -23.148,9.8234 -48.5353,10.6255 -66.1263,2.0894 -21.4131,-10.3909 -39.6606,-36.2638 -48.2745,-68.4477 -2.0342,-7.6001 -4.2528,-13.607 -4.9302,-13.3486 -0.6774,0.2584 -6.0073,6.9529 -11.8442,14.8766 -78.1951,106.1511 -171.3105,150.3918 -216.0142,102.632 l -8.4746,-9.0539 -16.9492,5.6609 c -9.322,3.1136 -24.0826,7.0948 -32.8012,8.8472 l -15.8521,3.1862 -9.8398,11.9236 c -25.4289,30.8139 -60.0942,52.6436 -101.9903,64.2263 -19.6932,5.4444 -56.8103,7.4373 -77.2225,4.1463 -31.9934,-5.1583 -57.9218,-18.1475 -79.2682,-39.7107 -20.1127,-20.3169 -31.3459,-44.3541 -34.3166,-73.4318 l -1.2516,-12.2518 -10.7115,7.4635 c -14.5579,10.1436 -34.0452,20.0884 -50.3292,25.6843 -10.9041,3.747 -16.666,4.6697 -29.6373,4.7457 -19.2828,0.1131 -30.0969,-2.3152 -48.7496,-10.9465 -23.2574,-10.7622 -39.6028,-29.2077 -45.4963,-51.3419 -5.5007,-20.659 -1.3147,-49.2539 10.9542,-74.8302 6.2344,-12.9964 17.19,-31.585 17.19,-29.1666 0,0.637 -1.9373,8.6041 -4.305,17.7047 -12.8988,49.5774 -3.385,83.7475 27.6727,99.3898 32.5423,16.3901 91.0768,4.9907 129.5904,-25.2373 8.3713,-6.5704 9.151,-7.825 11.8492,-19.0673 3.5282,-14.7009 12.8362,-38.6638 22.6269,-58.2514 5.6355,-11.2746 6.6883,-14.5773 4.5924,-14.4068 -4.3584,0.3547 -27.4772,-34.0615 -27.5559,-41.0217 -0.055,-4.8335 7.1431,-25.7983 11.5782,-33.7234 1.0558,-1.8866 4.8211,2.3124 15.004,16.7324 7.477,10.588 15.19,20.6783 17.1401,22.4229 3.2721,2.9272 3.3544,3.5417 1.0662,7.9666 -5.1794,10.0157 -2.0867,6.6517 8.8053,-9.5778 12.2878,-18.3093 22.1939,-31.6655 34.9519,-47.1247 4.5257,-5.4839 7.6052,-10.554 6.8434,-11.2669 -0.7619,-0.7128 -6.2878,-4.4364 -12.2799,-8.2746 -18.9131,-12.1145 -39.9882,-16.3523 -59.2443,-11.9129 -4.0849,0.9417 -7.8516,1.2877 -8.3705,0.7688 -1.6903,-1.6903 5.903,-15.0836 13.2739,-23.4129 23.4336,-26.4803 71.0748,-43.5343 121.663,-43.5514 39.7883,-0.014 68.4336,11.1263 78.2896,30.4458 3.0439,5.9665 3.0497,6.4463 0.156,12.9099 -5.9053,13.1898 -20.1153,23.9485 -50.8917,38.5312 -16.6121,7.8712 -17.5191,8.5487 -12.7948,9.557 11.0076,2.3495 40.0961,-1.0141 56.5818,-6.5427 15.2182,-5.1034 33.3622,-14.0759 41.0457,-20.2977 l 3.6091,-2.9224 -2.7803,-58.3862 c -5.0104,-105.219 -9.0062,-148.4151 -14.8584,-160.6276 -5.4165,-11.3031 -3.745,-27.8829 5.5311,-54.8642 l 7.396,-21.5124 5.6072,11.343 c 3.084,6.2386 10.2518,17.3359 15.9284,24.6607 18.1436,23.411 18.8377,30.9434 4.5672,49.5621 l -8.5751,11.1879 3.547,32.4576 c 4.1059,37.5729 6.3425,73.185 7.8982,125.7574 l 1.1057,37.3676 -12.5694,16.8697 c -25.3143,33.9749 -44.1095,47.6384 -79.4909,57.7875 -13.9026,3.9879 -16.3765,4.2404 -24.2602,2.4762 -11.0616,-2.4755 -26.7379,-9.8495 -39.8084,-18.7255 -5.5656,-3.7795 -10.9657,-6.8719 -12.0002,-6.8719 -5.0713,0 -43.6352,29.7093 -54.2362,41.7831 -6.485,7.3861 -6.258,7.5944 12.7108,11.6642 10.4036,2.232 24.2099,3.0424 59.322,3.4818 25.1695,0.315 57.5459,0.9988 71.9475,1.5195 68.5375,2.4782 99.8303,19.9613 109.5521,61.2061 3.783,16.0497 2.4496,52.0463 -2.6227,70.8049 -1.9841,7.3376 -3.2104,13.738 -2.7251,14.2233 0.4852,0.4852 8.4159,-1.5059 17.6236,-4.4248 l 16.7414,-5.3071 0.9812,-15.6958 c 1.194,-19.0973 7.1984,-40.4963 17.4382,-62.1469 4.1471,-8.7684 7.8197,-15.6328 8.1614,-15.2542 0.3416,0.3785 -0.9004,7.5527 -2.76,15.9425 -3.7958,17.1246 -5.1408,58.8092 -2.0646,63.9871 1.615,2.7184 3.051,2.3095 16.9491,-4.8265 20.7796,-10.6692 47.2861,-26.7672 68.5745,-41.6469 l 17.7966,-12.4391 0.4713,-23.2558 0.4713,-23.2557 -4.7086,-0.9582 c -2.5897,-0.527 -9.2821,-2.1278 -14.872,-3.5573 -31.1958,-7.9777 -54.6356,-32.2221 -62.9054,-65.0645 -2.105,-8.3598 -2.5753,-15.9224 -1.9498,-31.3559 0.8747,-21.5808 4.7285,-36.6605 14.2108,-55.6054 5.5736,-11.1358 22.7648,-37.2399 23.826,-36.1787 0.4393,0.4393 -1.4677,7.923 -4.2379,16.6304 -9.1687,28.82 -11.3161,41.2156 -11.2574,64.9842 0.047,19.0928 0.5878,23.3779 4.051,32.1032 7.6298,19.2231 24.9899,31.4626 48.554,34.232 l 9.3798,1.1025 -0.9049,-12.5324 c -0.4976,-6.8929 -1.3381,-26.6426 -1.8678,-43.8884 -1.6571,-53.9616 -6.658,-129.7033 -13.5966,-205.9322 -2.0868,-22.926 -3.3731,-30.1988 -6.2951,-35.5932 -6.9223,-12.7797 -3.9529,-34.6812 9.9961,-73.7288 0.5869,-1.6429 2.6481,0.8711 5.8258,7.1057 2.7046,5.3064 10.6445,16.7471 17.6443,25.4237 6.9997,8.6766 13.4773,18.4211 14.3946,21.6544 2.3686,8.3489 -0.2788,16.4576 -9.4333,28.8932 l -7.7325,10.5038 2.6502,29.9045 c 5.1232,57.8106 8.1187,116.3662 10.4387,204.0571 0.9863,37.2796 1.4188,41.9478 3.8854,41.9372 9.1369,-0.039 60.6945,-16.0914 65.1978,-20.2992 1.5511,-1.4492 -13.0074,-40.4013 -25.9911,-69.5408 l -8.3141,-18.6594 9.6636,-16.0833 c 5.3149,-8.8459 10.1874,-16.0834 10.8276,-16.0834 3.3271,0 29.9432,55.1423 41.9928,86.999 l 6.3015,16.6601 21.0403,-14.0453 c 26.8703,-17.9371 52.5688,-42.9955 60.6149,-59.1053 l 5.5025,-11.0169 -35.2505,-1.0667 c -44.6718,-1.3518 -57.5176,-4.453 -69.1487,-16.6939 -10.6853,-11.2455 -5.2086,-31.6326 15.117,-56.2743 33.6985,-40.8543 69.9754,-32.3761 92.4482,21.6058 7.7609,18.6425 14.2233,48.4271 12.9307,59.5966 -3.4678,29.9672 -32.2998,65.6356 -80.3729,99.4304 -11.7185,8.238 -13.9601,10.5363 -13.2062,13.5401 3.2661,13.0133 6.6027,39.0733 7.6105,59.4407 1.086,21.9486 1.6009,24.7128 6.5824,35.3393 22.9018,48.8535 86.7721,58.168 129.0771,18.8238 l 9.2805,-8.631 -2.0378,-45.6063 c -3.4605,-77.4424 -8.787,-133.6557 -25.0391,-264.2503 -5.1044,-41.0169 -11.1396,-90.083 -13.4115,-109.0358 l -4.1308,-34.4595 12.237,-16.7655 c 6.7303,-9.2211 12.7826,-16.78634 13.4496,-16.81171 0.6669,-0.0254 9.2545,10.71301 19.0834,23.86311 63.2027,84.5582 103.1926,179.0746 112.6624,266.2782 2.574,23.7029 2.1984,70.9318 -0.7413,93.2003 -15.4781,117.2515 -86.7257,211.6362 -197.6195,261.7952 -50.6424,22.9063 -108.3613,36.5357 -174.4282,41.1884 -29.902,2.1058 -55.3163,2.1438 -49.1525,0.073 z m -282.2034,-43.9609 c 28.4165,-6.0006 53.6101,-17.0079 76.9917,-33.6382 11.9795,-8.5205 11.5709,-10.1784 -2.568,-10.4214 -10.6944,-0.1838 -32.4619,-6.2668 -45.7637,-12.7888 -20.8845,-10.2399 -37.1929,-29.291 -44.2887,-51.7371 -4.157,-13.1498 -3.766,-46.9451 0.7477,-64.6278 l 3.3012,-12.9328 -23.8711,-1.1569 c -32.7887,-1.5891 -65.0876,-6.4803 -79.3796,-12.0208 -2.5088,-0.9725 -2.97,-0.1418 -2.9912,5.3874 -0.094,24.5404 -15.8496,56.4652 -40.8622,82.7969 -12.999,13.6846 -13.5795,15.7262 -8.9511,31.4836 4.7622,16.2128 12.6664,28.8629 26.933,43.1043 35.244,35.1816 85.4392,48.2213 140.702,36.5516 z m 270.373,-76.5025 c 23.5,-6.5067 50.2429,-20.8602 78.7795,-42.2828 18.3011,-13.7388 53.477,-45.5265 62.2004,-56.2093 l 6.2683,-7.6761 -2.4532,-17.6185 c -2.3151,-16.6268 -7.2077,-41.678 -8.6295,-44.1854 -0.3566,-0.6289 -8.4785,2.5501 -18.0487,7.0643 -16.053,7.5722 -46.4994,18.7389 -57.5576,21.1102 l -4.661,0.9995 v 29.4008 29.4009 l -19.1301,18.532 c -20.3159,19.6808 -38.5856,33.5353 -64.249,48.722 -8.6754,5.1338 -16.9175,10.0412 -18.3158,10.9053 -1.989,1.229 -1.2511,1.9488 3.3898,3.3063 10.1034,2.9554 28.7613,2.309 42.4069,-1.4692 z m -146.8463,-13.8627 c 6.4738,-15.5275 9.5263,-29.246 9.5076,-42.729 -0.052,-37.5284 -29.936,-53.4089 -101.6784,-54.0324 l -31.3559,-0.2725 -0.4912,12.9207 c -1.257,33.0678 12.9064,63.9762 35.9924,78.5452 18.1864,11.477 35.55,15.8329 63.8844,16.0265 l 19.7245,0.1347 z m -273.6996,-67.7966 c 8.7275,-11.5622 10.3731,-16.2303 10.1967,-28.9239 l -0.1456,-10.4829 -5.7113,11.8644 c -7.1535,14.8602 -14.6034,36.4407 -12.5799,36.4407 0.838,0 4.5461,-4.0042 8.2402,-8.8983 z m 31.1984,-68.5725 c 3.5471,-4.9334 5.8352,-8.9574 5.0847,-8.9422 -1.6445,0.033 -19.1837,24.3004 -19.1074,26.4366 0.055,1.5415 2.7841,-1.8631 14.0227,-17.4944 z m 596.4843,-195.4428 c 13.6156,-6.4045 1.8943,-20.6863 -19.0094,-23.162 -11.4306,-1.3538 -16.1309,0.2419 -20.2248,6.866 -5.497,8.8943 -4.6786,12.5657 3.6735,16.4804 5.6736,2.6591 9.7232,3.2293 19.0678,2.6845 6.5255,-0.3805 13.9472,-1.6715 16.4929,-2.8689 z"
       id="path4808"
       inkscape:connector-curvature="0"
       transform="matrix(4.448889,0,0,4.448889,-2002,-12340.667)" /></g><g
     inkscape:groupmode="layer"
     id="layer7"
     inkscape:label="all"
     style="display:inline"><g
       inkscape:groupmode="layer"
       id="layer6"
       inkscape:label="flag"
       style="display:inline"><g
         inkscape:groupmode="layer"
         id="layer5"
         inkscape:label="flag 1"
         style="display:inline"><g
           inkscape:groupmode="layer"
           id="layer2"
           inkscape:label="main"
           style="display:inline;opacity:1"
           transform="translate(0,10677.334)"><path
             inkscape:connector-curvature="0"
             style="fill:#ffffff;stroke-width:6.47681618"
             id="path3159"
             d="m 4088.7101,-5637.6354 c -438.7674,599.629 -121.9737,989.619 330.3461,1017.3658 298.1593,20.0385 918.1937,-383.8246 916.4994,-858.5953 l -169.4081,-86.3217 c 94.8684,243.5505 -3.3887,320.6235 -204.9842,487.1026 -398.1101,328.3308 -1211.2699,351.4532 -872.4532,-559.5514 z" /><path
             inkscape:connector-curvature="0"
             style="fill:#ffffff;stroke-width:16.15972137px"
             id="path3115"
             d="m 7566.6632,-4065.3435 c 2469.9728,63.2 3256.0278,-2111.8038 1731.353,-3973.8913 l -150.774,205.0153 c 98.257,867.8426 240.56,1723.3546 254.114,2612.7788 -298.16,319.0832 -731.8452,200.3905 -818.2431,-154.1462 5.0818,-480.937 -167.7142,-887.8822 -386.2517,-1276.3311 l -121.9732,205.0146 c 142.3025,319.0824 296.4645,678.2433 328.6518,1071.3165 -704.7385,769.1902 -1484.0165,924.8776 -1194.3281,-86.3227 -557.3536,886.342 286.2995,1510.6344 1241.7629,146.4398 204.9843,931.0439 997.8144,352.9953 1045.2494,152.605 86.398,-610.4194 42.352,-1593.8731 -132.139,-2370.7704 687.7978,1083.6488 711.5148,1865.1699 345.594,2387.7264 -406.582,581.1318 -1290.8929,852.429 -2143.016,1080.5653 z" /><path
             inkscape:connector-curvature="0"
             style="fill:#ffffff;stroke-width:16.15972137px"
             id="path3117"
             d="m 8967.6702,-6523.9766 c -528.5545,35.4537 -799.6087,-63.2002 -513.3081,-419.2777 282.9121,-348.3713 547.1901,-70.9078 618.3401,394.6142 66.07,436.234 -928.356,992.7012 -1272.2558,992.7012 -520.0837,0 -760.6435,-608.8766 -281.2175,-1156.0961 -616.6463,1596.9555 1331.5493,670.5358 1448.4413,188.0584 z m -365.922,-369.9514 c -64.3755,-3.0824 -111.8104,100.1955 -79.622,120.234 93.174,58.5758 240.559,23.1225 255.807,-6.1655 32.187,-64.7413 -86.3997,-110.9855 -176.185,-114.0685 z" /><path
             inkscape:connector-curvature="0"
             style="fill:#ffffff;stroke-width:16.15972137px"
             id="path3140"
             d="m 6097.8925,-5770.2012 c -508.225,909.4626 -1.6934,1285.5797 650.5286,1180.7605 379.4745,-63.2 860.594,-308.2923 1138.4237,-642.7906 5.0823,-736.8191 -6.7765,-1467.4718 -77.9282,-2181.1697 254.1128,-275.9205 -22.0232,-274.3795 -118.5852,-570.3409 -44.0464,172.6438 -150.7735,359.1606 -47.435,493.2677 72.846,719.8633 113.5037,1448.975 111.81,2191.9604 -511.6135,374.576 -896.1703,513.3071 -1170.6113,510.2241 -567.5178,-4.6243 -689.4925,-439.3173 -486.2026,-981.9115 z" /><path
             inkscape:connector-curvature="0"
             style="fill:#ffffff;stroke-width:16.15972137px"
             id="path3150"
             d="m 7136.3657,-5529.7332 c -8.4701,-685.9506 -20.3289,-1464.3895 -88.0919,-1943.7848 264.2765,-266.6721 -13.553,-272.8387 -99.9506,-571.882 -50.8229,169.5605 -162.6324,354.5362 -64.376,491.7266 44.0463,733.7362 86.3983,1467.4721 94.8692,2201.2082 60.9865,-35.4534 130.444,-49.3265 157.5493,-177.268 z" /><path
             inkscape:connector-curvature="0"
             style="fill:#ffffff;stroke-width:6.47681618"
             id="path3152"
             d="m 5164.4531,-5562.1043 c -64.375,-73.9899 -110.115,-157.2293 -162.6324,-229.6772 -8.47,-103.2781 67.764,-198.8492 77.9285,-251.2588 86.3983,121.7751 137.2204,214.2632 206.6778,274.3802 m 91.4806,47.7853 c 127.0559,46.244 282.9116,46.244 426.9088,49.3272 555.6591,9.2486 1140.118,-73.9908 1077.4372,610.4195 -54.2107,607.3365 -608.1764,958.7899 -1104.5426,954.1647 -706.4327,-6.1654 -1309.5262,-715.2378 -220.231,-2020.8576 105.0337,-15.4142 242.2542,10.7906 355.7579,20.0394 194.8192,13.8729 394.7213,-3.0833 623.4231,-169.5614 -27.1062,-430.0677 -27.1062,-837.0136 -84.7049,-1225.4631 -98.2563,-137.1891 13.5531,-320.6238 64.3753,-491.7267 86.3982,299.0447 362.5336,305.2113 99.9506,573.4242 62.6817,431.6102 69.4582,870.9275 69.4582,1132.9759 -132.1391,183.4341 -235.4776,377.6581 -621.7288,451.6483 -394.7213,-52.4096 -572.6001,-554.9262 -984.2622,-388.4481 113.5037,-453.1903 1158.7525,-556.4681 1263.7855,-198.8491 -69.4575,373.0339 -1045.249,223.5118 -1304.4441,1428.936 -79.6219,371.4928 350.6758,713.6976 792.8312,685.9508 431.9909,-26.2047 892.7818,-299.0439 938.5224,-758.3996 35.5754,-383.8244 -559.0478,-339.1224 -808.0777,-334.4973 -362.5336,7.7068 -591.2356,-43.1617 -728.4559,-115.6097"
             sodipodi:nodetypes="ccccccccccccccccccccccc" /><path
             inkscape:connector-curvature="0"
             style="fill:#ffffff;stroke-width:16.15972137px"
             id="path3161"
             d="m 6157.1856,-7623.0391 c 60.9872,123.3163 86.3984,205.014 89.787,323.7072 -37.2707,160.3116 -188.0434,309.8335 -343.8993,314.4578 -96.5626,3.0831 -204.9842,-21.5804 -281.2182,-158.7706 -8.47,-16.9562 -49.1276,-57.0339 -88.0919,-38.5364 -171.1022,255.8829 -298.1583,363.7851 -452.3206,362.2439 -308.3227,-4.6243 -216.8422,-254.3419 -501.4483,-331.4148 -118.5861,-3.0833 -313.4052,106.3609 -413.3566,320.6242 -379.4746,978.8282 -725.0672,-3.0833 -577.6816,-459.3555 22.0223,436.2339 137.2205,695.1992 255.8065,687.4918 86.3983,-7.7066 162.6315,-189.5997 272.7473,-380.7413 84.7041,-146.4389 287.994,-410.0287 503.1427,-410.0287 196.5136,4.6243 72.8454,332.9555 465.8722,328.3312 189.7377,-3.0825 364.2281,-135.6483 540.4126,-400.7802 38.9642,-6.1666 49.1286,57.0338 57.5994,78.6143 27.1055,90.9463 199.9013,340.6639 433.6853,112.5268 -11.8587,-49.3263 -6.7764,-131.0238 -66.0695,-147.98 z" /><path
             inkscape:connector-curvature="0"
             style="fill:#ffffff;stroke-width:6.47681618"
             id="path3163"
             d="m 7392.1721,-8433.8486 c -208.3713,94.0295 -360.8393,7.7062 -447.2377,-75.5323 150.7736,-27.7458 267.6652,-77.0733 301.547,-184.9744 -67.7629,-138.7327 -228.7017,-198.8499 -455.7083,-200.3911 -303.2416,7.7078 -459.0964,118.6934 -477.7318,271.2978 140.6091,4.6243 267.6652,-30.8292 321.876,92.4872 -249.0307,110.9856 -542.1068,151.0633 -860.5942,149.5223 -521.7781,24.6638 -598.0113,-189.6 -735.2325,-377.6577 -10.1643,-12.3319 -55.9042,-32.3714 -79.6219,-29.288 -160.9377,0 -279.523,511.7648 -460.7906,510.2238 -181.2668,-21.5805 -140.6084,-329.8738 -193.1247,-505.5996 -44.0463,275.9207 55.9043,1302.535 616.6456,188.0577 16.9411,-36.9944 40.6584,-26.2048 55.9051,4.6243 150.7736,311.3766 457.4021,419.279 787.749,434.6929 276.1352,13.8729 628.5045,-95.5705 1006.2847,-289.7948 99.9515,100.1948 179.5732,214.2638 389.6389,235.8442 245.6421,10.7896 508.2251,-151.0633 567.518,-351.4542 30.494,-103.278 35.5763,-306.7511 -84.704,-309.8342 -167.7137,-4.6243 -289.6884,365.3271 -250.7243,698.2828 3.3886,-4.6243 22.0233,-83.2386 22.0233,-83.2386 m -742.0083,-443.9414 c 110.1151,-46.243 216.8424,-67.8235 301.5463,33.9122 -66.0695,21.5806 -106.7273,35.4535 -142.3027,61.6583 -47.4342,-33.9124 -111.8093,-50.8685 -159.2436,-95.5705 z m 809.7714,229.6775 c 27.1052,-109.4432 42.3519,-197.3061 140.6089,-254.34 20.329,115.6086 23.7168,180.3501 -140.6089,254.34 z" /><path
             inkscape:connector-curvature="0"
             style="fill:#ffffff;stroke-width:6.47681618"
             id="path3169"
             d="m 8144.3462,-8301.2825 c -32.1884,-94.0295 -64.3757,-175.7272 -74.5403,-277.4642 -23.7175,-206.5549 171.1029,-323.7071 347.2875,-306.7509 181.2661,16.956 301.5468,78.6156 474.3428,132.5661 135.527,41.6198 318.487,73.9899 492.978,118.6919 98.258,40.0777 0,144.8982 -25.411,158.7711 -437.074,155.6876 -747.0915,402.3213 -1024.9205,413.1123 -166.0212,7.7063 -313.4054,-90.9462 -447.2379,-292.8781 -8.4709,-391.5306 -23.7176,-850.8869 -66.0694,-1139.1409 64.3751,-58.576 77.9281,-101.737 108.4214,-149.522 33.882,380.742 47.4343,781.5222 55.9052,1185.3847 35.5753,69.3658 79.6217,127.942 159.2442,157.23 z"
             sodipodi:nodetypes="cccccccccccc" /><path
             inkscape:connector-curvature="0"
             style="fill:#ffffff;stroke-width:6.47681618"
             id="path3173"
             d="m 8195.1671,-8079.3125 32.1882,143.3558 h 25.4113 l -10.1648,-134.1071" /><path
             inkscape:connector-curvature="0"
             style="fill:#ffffff;stroke-width:64.76815796;stroke-linecap:round;stroke-linejoin:round"
             id="path5196"
             d="m 4466.4904,-6581.0112 118.5859,-110.9845 137.2215,106.3602 -127.0569,103.2779 z" /><path
             inkscape:connector-curvature="0"
             style="fill:#ffffff;stroke-width:64.76815796;stroke-linecap:round;stroke-linejoin:round"
             id="path6168"
             d="m 4768.0376,-6618.0057 120.2803,-110.9854 137.2204,106.3611 -127.0561,103.278 z" /><path
             inkscape:connector-curvature="0"
             style="fill:#ffffff;stroke-width:64.76815796;stroke-linecap:round;stroke-linejoin:round"
             id="path6170"
             d="m 3929.4666,-7767.9372 120.2794,-110.9856 137.2213,106.3613 -127.0569,103.2782 z" /><path
             inkscape:connector-curvature="0"
             style="fill:#ffffff;stroke-width:64.76815796;stroke-linecap:round;stroke-linejoin:round"
             id="path6172"
             d="m 3983.6774,-7441.1467 120.2793,-110.9857 135.527,106.3601 -127.0561,103.2794 z" /><path
             inkscape:connector-curvature="0"
             style="fill:#ffffff;stroke-width:64.76815796;stroke-linecap:round;stroke-linejoin:round"
             id="path6174"
             d="m 6160.5743,-6893.928 110.1151,-81.6974 101.6449,100.1956 -115.1973,73.9898 z" /><path
             inkscape:connector-curvature="0"
             style="fill:#ffffff;stroke-width:64.76815796;stroke-linecap:round;stroke-linejoin:round"
             id="path6176"
             d="m 4707.0503,-8985.6922 77.9283,-72.449 89.7861,69.365 -83.0096,67.8252 z" /><path
             inkscape:connector-curvature="0"
             style="fill:#ffffff;stroke-width:64.76815796;stroke-linecap:round;stroke-linejoin:round"
             id="path6178"
             d="m 4905.2581,-9008.8152 77.9283,-73.99 89.7862,70.908 -83.0098,66.2824 z" /><path
             inkscape:connector-curvature="0"
             style="fill:#ffffff;stroke-width:64.76815796;stroke-linecap:round;stroke-linejoin:round"
             id="path6180"
             d="m 9065.9262,-8181.0481 -74.54,57.0337 -71.15,-66.2837 77.927,-52.4096 z" /><path
             inkscape:connector-curvature="0"
             style="fill:#ffffff;stroke-width:6.47681618"
             id="path9240"
             d="m 5559.1743,-6135.5284 -8.47,121.776 213.4543,18.4972 171.1024,-117.1509 z" /><path
             inkscape:connector-curvature="0"
             style="fill:#ffffff;stroke-width:16.15972137px"
             id="path9242"
             d="m 7363.3732,-8410.7271 62.6809,-12.3319 -6.7766,158.7709 -38.9633,13.8742 z" /><path
             inkscape:connector-curvature="0"
             style="fill:#ffffff;stroke-width:9.63035393"
             id="path2722"
             d="m 6895.778,-2019.245 c 2404.9092,0 4361.604,-1780.3895 4361.604,-3968.3034 0,-1203.8823 -590.3,-2278.0888 -1519.4558,-3004.2138 557.4738,596.8341 896.3298,1382.596 896.3298,2238.0107 0,1900.1422 -1672.5198,3441.6049 -3738.478,3441.6049 -2066.0536,0 -3738.573,-1541.4627 -3738.573,-3441.6049 0,-855.4147 338.8549,-1641.1766 896.3296,-2238.0107 -929.156,726.125 -1519.4572,1800.3315 -1519.4572,3004.2138 0,2187.9139 1956.7922,3968.3034 4361.7006,3968.3034 z"
             class="fil2" /></g><path
           style="fill:#006233;fill-opacity:1;stroke:#006233;stroke-width:5.75254393px;stroke-linecap:butt;stroke-linejoin:miter;stroke-opacity:1"
           d="m 8333.914,2416.5785 c 287.6273,0 674.6932,-231.9297 694.7422,-267.1226 -216.754,-50.8329 -493.403,-250.6064 -752.2675,-221.8438 -113.5348,33.9853 -57.5254,431.4409 57.5253,488.9664 z"
           id="path4821"
           inkscape:connector-curvature="0"
           sodipodi:nodetypes="cccc" /></g><g
         style="display:inline"
         inkscape:label="1"
         id="g4825"
         inkscape:groupmode="layer"><path
           sodipodi:nodetypes="cccc"
           inkscape:connector-curvature="0"
           id="path4823"
           d="m 5604.9152,4329.0842 c 86.2882,57.5255 115.3072,91.4714 201.5955,120.2341 42.9296,-58.4536 111.3348,-96.6959 169.408,-124.8584 -86.836,-95.83 -325.7608,-52.901 -371.0035,4.6243 z"
           style="fill:#006233;fill-opacity:1;stroke:#006233;stroke-width:5.75254393px;stroke-linecap:butt;stroke-linejoin:miter;stroke-opacity:1" /></g></g></g></svg>