<?xml version="1.0" encoding="UTF-8" standalone="no"?>
<svg
   xmlns:dc="http://purl.org/dc/elements/1.1/"
   xmlns:cc="http://creativecommons.org/ns#"
   xmlns:rdf="http://www.w3.org/1999/02/22-rdf-syntax-ns#"
   xmlns:svg="http://www.w3.org/2000/svg"
   xmlns="http://www.w3.org/2000/svg"
   xmlns:sodipodi="http://sodipodi.sourceforge.net/DTD/sodipodi-0.dtd"
   xmlns:inkscape="http://www.inkscape.org/namespaces/inkscape"
   viewBox="0 0 4000 3000"
   version="1.1"
   id="svg5892"
   sodipodi:docname="ca.svg"
   width="4000"
   height="3000"
   inkscape:version="0.92.4 (5da689c313, 2019-01-14)">
  <metadata
     id="metadata5898">
    <rdf:RDF>
      <cc:Work
         rdf:about="">
        <dc:format>image/svg+xml</dc:format>
        <dc:type
           rdf:resource="http://purl.org/dc/dcmitype/StillImage" />
        <dc:title></dc:title>
      </cc:Work>
    </rdf:RDF>
  </metadata>
  <defs
     id="defs5896" />
  <sodipodi:namedview
     pagecolor="#ffffff"
     bordercolor="#666666"
     borderopacity="1"
     objecttolerance="10"
     gridtolerance="10"
     guidetolerance="10"
     inkscape:pageopacity="0"
     inkscape:pageshadow="2"
     inkscape:window-width="1600"
     inkscape:window-height="877"
     id="namedview5894"
     showgrid="false"
     inkscape:zoom="0.13435029"
     inkscape:cx="1938.5887"
     inkscape:cy="768.64153"
     inkscape:window-x="-8"
     inkscape:window-y="-8"
     inkscape:window-maximized="1"
     inkscape:current-layer="layer8">
    <inkscape:grid
       type="xygrid"
       id="grid5935" />
  </sodipodi:namedview>
  <g
     inkscape:groupmode="layer"
     id="layer9"
     inkscape:label="Layer 2"
     transform="translate(0,2500)">
    <rect
       y="-2500"
       x="0"
       style="fill:#ff0000;stroke-width:4.89897966"
       width="4000"
       height="3000"
       id="rect5886" />
    <rect
       y="-2500"
       style="fill:#ffffff;stroke-width:4.89897966"
       width="2000"
       height="3000"
       x="999.99988"
       id="rect5888" />
  </g>
  <g
     inkscape:groupmode="layer"
     id="layer8"
     inkscape:label="Layer 1"
     transform="translate(0,2500)">
    <path
       inkscape:connector-curvature="0"
       style="fill:#ff0000;stroke-width:3.37003207"
       d="m 1986.8777,-1704.4727 -114.9623,214.4193 c -13.0449,23.3038 -36.4175,21.1423 -59.7901,8.1264 l -83.2296,-43.0979 62.0323,329.3435 c 13.0449,60.1692 -28.809,60.1692 -49.4641,34.153 l -145.252,-162.6073 -23.5814,82.5759 c -2.7193,10.8439 -14.6758,22.2335 -32.6133,19.5213 l -183.6728,-38.6177 48.2429,175.3926 c 10.3274,39.0266 18.3831,55.1852 -10.4261,65.4783 l -65.4669,30.76898 316.1807,256.82482 c 12.5146,9.71075 18.8375,27.18605 14.3822,43.00869 l -27.6725,90.81259 c 108.8656,-12.54899 206.411,-31.42858 315.3319,-43.0562 9.6155,-1.02651 25.7129,14.84196 25.6469,25.98496 l -14.4246,332.70137 h 52.931 l -8.3319,-331.98793 c -0.066,-11.14301 14.5374,-27.72491 24.1529,-26.6984 108.9208,11.62762 206.4663,30.50721 315.3318,43.0562 l -27.6723,-90.81259 c -4.4552,-15.82264 1.8676,-33.29794 14.3822,-43.00869 l 316.1805,-256.82482 -65.4669,-30.76898 c -28.8091,-10.2931 -20.7534,-26.4517 -10.4259,-65.4783 l 48.2426,-175.3926 -183.6728,38.6177 c -17.9373,2.7122 -29.8939,-8.6774 -32.6135,-19.5213 l -23.5811,-82.5759 -145.2519,162.6073 c -20.6552,26.0162 -62.5091,26.0162 -49.4643,-34.153 l 62.0323,-329.3435 -83.2295,43.0979 c -23.3731,13.0159 -46.7451,15.1774 -59.79,-8.1264"
       id="path5890" />
  </g>
</svg>
