<?xml version="1.0" encoding="utf-8"?>
<!-- Generator: Adobe Illustrator 24.0.2, SVG Export Plug-In . SVG Version: 6.00 Build 0)  -->
<svg version="1.1"
	 id="svg5999" inkscape:version="0.92.4 (5da689c313, 2019-01-14)" sodipodi:docname="en.svg" xmlns:cc="http://creativecommons.org/ns#" xmlns:dc="http://purl.org/dc/elements/1.1/" xmlns:inkscape="http://www.inkscape.org/namespaces/inkscape" xmlns:rdf="http://www.w3.org/1999/02/22-rdf-syntax-ns#" xmlns:sodipodi="http://sodipodi.sourceforge.net/DTD/sodipodi-0.dtd" xmlns:svg="http://www.w3.org/2000/svg"
	 xmlns="http://www.w3.org/2000/svg" xmlns:xlink="http://www.w3.org/1999/xlink" x="0px" y="0px" viewBox="0 0 4000 3000"
	 style="enable-background:new 0 0 4000 3000;" xml:space="preserve">
<style type="text/css">
	.st0{fill:#00247D;}
	.st1{fill:#FFFFFF;}
	.st2{fill:#CF142B;}
</style>
<path id="path5989" inkscape:connector-curvature="0" class="st0" d="M0,0v3000h4000V0H0z"/>
<g id="gropu">
	<path id="path5991_1_" inkscape:connector-curvature="0" d="M0,0l4000,3000 M4000,0L0,3000"/>
	<polygon class="st1" points="3853,3196 2000,1806.2 147,3196 -147,2804 1591.8,1500 -147,196 147,-196 2000,1193.8 3853,-196 
		4147,196 2408.2,1500 4147,2804 	"/>
</g>
<g id="layer">
	<g>
		<path id="path5993_2_" inkscape:connector-curvature="0" d="M4000,0L0,3000 M0,0l4000,3000"/>
		<polygon class="st2" points="3910,-120 2000,1312.5 90,-120 -90,120 1750,1500 -90,2880 90,3120 2000,1687.5 3910,3120 4090,2880 
			2250,1500 4090,120 		"/>
	</g>
	<polygon class="st2" points="4090,120 3910,-120 2000,1312.5 90,-120 -90,120 1750,1500 -90,2880 90,3120 2000,1687.5 3910,3120 
		4090,2880 2250,1500 	"/>
</g>
<g id="group_1_">
	<path id="path5995_1_" inkscape:connector-curvature="0" d="M2000,0v3000 M0,1500h4000"/>
	<polygon class="st1" points="2408.2,3000 1591.8,3000 1591.8,1908.2 0,1908.2 0,1091.8 1591.8,1091.8 1591.8,0 2408.2,0 
		2408.2,1091.8 4000,1091.8 4000,1908.2 2408.2,1908.2 	"/>
</g>
<g id="group">
	<path id="path5997_1_" inkscape:connector-curvature="0" d="M2000,0v3000 M0,1500h4000"/>
	<polygon class="st2" points="2244.9,3000 1755.1,3000 1755.1,1744.9 0,1744.9 0,1255.1 1755.1,1255.1 1755.1,0 2244.9,0 
		2244.9,1255.1 4000,1255.1 4000,1744.9 2244.9,1744.9 	"/>
</g>
</svg>
