<?xml version="1.0" encoding="utf-8"?>
<!-- Generator: Adobe Illustrator 24.0.2, SVG Export Plug-In . SVG Version: 6.00 Build 0)  -->
<svg version="1.1"
	 id="svg16660" inkscape:version="0.92.4 (5da689c313, 2019-01-14)" sodipodi:docname="eu.svg" xmlns:cc="http://creativecommons.org/ns#" xmlns:dc="http://purl.org/dc/elements/1.1/" xmlns:inkscape="http://www.inkscape.org/namespaces/inkscape" xmlns:rdf="http://www.w3.org/1999/02/22-rdf-syntax-ns#" xmlns:sodipodi="http://sodipodi.sourceforge.net/DTD/sodipodi-0.dtd" xmlns:svg="http://www.w3.org/2000/svg"
	 xmlns="http://www.w3.org/2000/svg" xmlns:xlink="http://www.w3.org/1999/xlink" x="0px" y="0px" viewBox="0 0 4000 3000"
	 style="enable-background:new 0 0 4000 3000;" xml:space="preserve">
<style type="text/css">
	.st0{fill:#003399;}
	.st1{fill:#FFCC00;}
</style>
<rect id="rect16639" class="st0" width="4000" height="3000"/>
<g id="group">
	<polygon class="st1" points="2025.7,608.2 1992.8,507.1 1992.8,507.1 1992.8,507.1 1960,608.2 1853.6,608.2 1853.6,608.2 
		1853.6,608.2 1939.6,670.8 1906.8,772 1906.8,772 1906.8,772 1992.8,709.4 2078.9,772 2078.9,772 2078.9,772 2046,670.8 
		2132.1,608.2 2132.1,608.2 2132.1,608.2 	"/>
	<polygon class="st1" points="2025.7,2365.3 1992.8,2264.2 1992.8,2264.2 1992.8,2264.2 1960,2365.3 1853.6,2365.3 1853.6,2365.3 
		1853.6,2365.3 1939.6,2427.9 1906.8,2529 1906.8,2529 1906.8,2529 1992.8,2466.5 2078.9,2529 2078.9,2529 2078.9,2529 2046,2427.9 
		2132.1,2365.3 2132.1,2365.3 2132.1,2365.3 	"/>
	<polygon class="st1" points="1114.3,1588 1200.4,1650.5 1200.4,1650.5 1200.4,1650.5 1167.5,1549.3 1253.6,1486.8 1253.5,1486.8 
		1253.5,1486.8 1147.2,1486.8 1114.3,1385.6 1114.3,1385.6 1114.3,1385.6 1081.4,1486.8 975,1486.8 975,1486.8 975,1486.8 
		1061.1,1549.3 1028.2,1650.5 1028.2,1650.5 1028.2,1650.5 	"/>
	<polygon class="st1" points="1692.8,725.9 1586.4,725.9 1553.6,624.8 1553.6,624.8 1553.6,624.8 1520.7,725.9 1414.3,725.9 
		1414.3,725.9 1414.3,725.9 1500.4,788.5 1467.5,889.7 1467.5,889.7 1467.5,889.7 1553.6,827.1 1639.6,889.7 1639.6,889.7 
		1639.6,889.7 1606.8,788.5 1692.8,725.9 1692.8,725.9 	"/>
	<polygon class="st1" points="1264.9,1047.5 1232,946.3 1232,946.3 1232,946.3 1199.1,1047.5 1092.7,1047.5 1092.7,1047.5 
		1092.7,1047.5 1178.8,1110 1145.9,1211.2 1145.9,1211.2 1145.9,1211.2 1232,1148.7 1318.1,1211.2 1318.1,1211.2 1318.1,1211.2 
		1285.2,1110 1371.3,1047.5 1371.3,1047.5 1371.3,1047.5 	"/>
	<polygon class="st1" points="1264.9,1926.1 1232,1824.9 1232,1824.9 1232,1824.9 1199.1,1926.1 1092.7,1926.1 1092.7,1926.1 
		1092.7,1926.1 1178.8,1988.6 1145.9,2089.8 1145.9,2089.8 1145.9,2089.8 1232,2027.2 1318.1,2089.8 1318.1,2089.8 1318.1,2089.8 
		1285.2,1988.6 1371.3,1926.1 1371.3,1926.1 1371.3,1926.1 	"/>
	<polygon class="st1" points="1692.8,2247.6 1692.8,2247.6 1586.4,2247.6 1553.6,2146.5 1553.6,2146.5 1553.6,2146.5 1520.7,2247.6 
		1414.3,2247.6 1414.3,2247.6 1414.3,2247.6 1500.4,2310.2 1467.5,2411.3 1467.5,2411.3 1467.5,2411.3 1553.6,2348.8 1639.6,2411.3 
		1639.6,2411.3 1639.6,2411.3 1606.8,2310.2 1692.8,2247.6 	"/>
	<polygon class="st1" points="2924.6,1549.3 3010.6,1486.8 3010.6,1486.8 3010.6,1486.8 2904.2,1486.8 2871.4,1385.6 2871.4,1385.6 
		2871.4,1385.6 2838.5,1486.8 2732.1,1486.8 2732.1,1486.8 2732.1,1486.8 2818.2,1549.3 2785.3,1650.5 2785.3,1650.5 2785.3,1650.5 
		2871.4,1588 2957.4,1650.5 2957.4,1650.5 2957.4,1650.5 	"/>
	<polygon class="st1" points="2465,725.9 2432.1,624.8 2432.1,624.8 2432.1,624.8 2399.2,725.9 2292.8,725.9 2292.8,725.9 
		2292.8,725.9 2378.9,788.5 2346,889.7 2346,889.7 2346,889.7 2432.1,827.1 2518.2,889.7 2518.2,889.7 2518.2,889.7 2485.3,788.5 
		2571.4,725.9 2571.4,725.9 2571.4,725.9 	"/>
	<polygon class="st1" points="2700.5,1110 2667.6,1211.2 2667.6,1211.2 2667.6,1211.2 2753.7,1148.7 2839.7,1211.2 2839.7,1211.2 
		2839.7,1211.2 2806.9,1110 2892.9,1047.5 2892.9,1047.5 2892.9,1047.5 2786.5,1047.5 2753.7,946.3 2753.7,946.3 2753.7,946.3 
		2720.8,1047.5 2614.4,1047.5 2614.4,1047.5 2614.4,1047.5 	"/>
	<polygon class="st1" points="2892.9,1926.1 2892.9,1926.1 2786.5,1926.1 2753.7,1824.9 2753.7,1824.9 2753.7,1824.9 2720.8,1926.1 
		2614.4,1926.1 2614.4,1926.1 2614.4,1926.1 2700.5,1988.6 2667.6,2089.8 2667.6,2089.8 2667.6,2089.8 2753.7,2027.2 2839.7,2089.8 
		2839.7,2089.8 2839.7,2089.8 2806.9,1988.6 2892.9,1926.1 	"/>
	<polygon class="st1" points="2465,2247.6 2432.1,2146.5 2432.1,2146.5 2432.1,2146.5 2399.2,2247.6 2292.8,2247.6 2292.8,2247.6 
		2292.8,2247.6 2378.9,2310.2 2346,2411.3 2346,2411.3 2346,2411.3 2432.1,2348.8 2518.2,2411.3 2518.2,2411.3 2518.2,2411.3 
		2485.3,2310.2 2571.4,2247.6 2571.4,2247.6 2571.4,2247.6 	"/>
</g>
</svg>
