<?xml version="1.0" encoding="utf-8"?>
<!-- Generator: Adobe Illustrator 24.0.2, SVG Export Plug-In . SVG Version: 6.00 Build 0)  -->
<svg version="1.1"
	 id="svg20017" inkscape:version="0.92.4 (5da689c313, 2019-01-14)" sodipodi:docname="hi.svg" xmlns:cc="http://creativecommons.org/ns#" xmlns:dc="http://purl.org/dc/elements/1.1/" xmlns:inkscape="http://www.inkscape.org/namespaces/inkscape" xmlns:rdf="http://www.w3.org/1999/02/22-rdf-syntax-ns#" xmlns:sodipodi="http://sodipodi.sourceforge.net/DTD/sodipodi-0.dtd" xmlns:svg="http://www.w3.org/2000/svg"
	 xmlns="http://www.w3.org/2000/svg" xmlns:xlink="http://www.w3.org/1999/xlink" x="0px" y="0px" viewBox="0 0 4000 3000"
	 style="enable-background:new 0 0 4000 3000;" xml:space="preserve">
<style type="text/css">
	.st0{fill:#FFFFFF;}
	.st1{fill:#0038B8;}
</style>
<sodipodi:namedview  bordercolor="#666666" borderopacity="1" gridtolerance="10" guidetolerance="10" id="namedview20019" inkscape:current-layer="svg20017" inkscape:cx="2405.0648" inkscape:cy="1209.0271" inkscape:pageopacity="0" inkscape:pageshadow="2" inkscape:window-height="877" inkscape:window-maximized="1" inkscape:window-width="1600" inkscape:window-x="-8" inkscape:window-y="-8" inkscape:zoom="0.17383042" objecttolerance="10" pagecolor="#ffffff" showgrid="false">
	<inkscape:grid  id="grid20023" type="xygrid"></inkscape:grid>
</sodipodi:namedview>
<desc  id="desc20002">Flag of Israel</desc>
<rect id="rect20007" class="st0" width="4000" height="3000"/>
<rect id="rect20009" y="281.3" class="st1" width="4000" height="468.8"/>
<rect id="rect20011" y="2250" class="st1" width="4000" height="468.8"/>
<path id="vv" class="st1" d="M2267.2,1500l144.4-249.3h-288.8L2000,1038.8l-122.7,211.9h-288.8l144.4,249.3l-144.4,249.3h288.8
	l122.7,211.9l122.7-211.9h288.8L2267.2,1500z M2305.8,1307.1l-75.2,129.8l-75.2-129.8H2305.8z M2194.1,1500l-111.7,192.9h-164.7
	L1805.9,1500l111.7-192.9h164.7L2194.1,1500z M2000,1164.9l49.7,85.8h-99.3L2000,1164.9z M1694.2,1307.1h150.4l-75.2,129.8
	L1694.2,1307.1z M1694.2,1692.9l75.2-129.8l75.2,129.8H1694.2z M2000,1835.1l-49.7-85.8h99.3L2000,1835.1z M2230.6,1563.1
	l75.2,129.8h-150.4L2230.6,1563.1z"/>
</svg>
