<?xml version="1.0" encoding="utf-8"?>
<!-- Generator: Adobe Illustrator 24.0.2, SVG Export Plug-In . SVG Version: 6.00 Build 0)  -->
<svg version="1.1"
	 id="svg3" inkscape:version="0.92.4 (5da689c313, 2019-01-14)" sodipodi:docname="ml2.svg" xmlns:cc="http://creativecommons.org/ns#" xmlns:dc="http://purl.org/dc/elements/1.1/" xmlns:inkscape="http://www.inkscape.org/namespaces/inkscape" xmlns:rdf="http://www.w3.org/1999/02/22-rdf-syntax-ns#" xmlns:sodipodi="http://sodipodi.sourceforge.net/DTD/sodipodi-0.dtd" xmlns:svg="http://www.w3.org/2000/svg"
	 xmlns="http://www.w3.org/2000/svg" xmlns:xlink="http://www.w3.org/1999/xlink" x="0px" y="0px" viewBox="0 0 4000 3000"
	 style="enable-background:new 0 0 4000 3000;" xml:space="preserve">
<style type="text/css">
	.st0{fill:#0835B7;stroke:#0836B8;}
	.st1{fill:#FFFFFF;}
	.st2{fill:#0835B7;stroke:#FFFFFF;}
</style>
<sodipodi:namedview  bordercolor="#666666" borderopacity="1" gridtolerance="10" guidetolerance="10" id="namedview5" inkscape:current-layer="layer2" inkscape:cx="1969.7003" inkscape:cy="1471.3937" inkscape:pageopacity="0" inkscape:pageshadow="2" inkscape:window-height="877" inkscape:window-maximized="1" inkscape:window-width="1600" inkscape:window-x="-8" inkscape:window-y="-8" inkscape:zoom="0.15733333" objecttolerance="10" pagecolor="#ffffff" showgrid="false">
	<inkscape:grid  id="grid2769" type="xygrid"></inkscape:grid>
</sodipodi:namedview>
<g id="layer3" inkscape:groupmode="layer" inkscape:label="back2">
	<path id="path2767" inkscape:connector-curvature="0" sodipodi:nodetypes="ccccc" class="st0" d="M0,3000h4000V0H0V3000z"/>
</g>
<g id="g2697" inkscape:groupmode="layer" inkscape:label="shpehe">
	<path id="path2695" inkscape:connector-curvature="0" sodipodi:nodetypes="ccc" class="st1" d="M2020.7,2532.5
		c1251.2-69.1,1378.9-1998.7-42.8-2068.4C612,559.6,729.4,2537.8,2020.7,2532.5z"/>
</g>
<g id="layer2" inkscape:groupmode="layer" inkscape:label="lay1">
	<path id="path1872-6" inkscape:connector-curvature="0" sodipodi:nodetypes="cccc" class="st2" d="M2600.1,852.3
		c-117-145.2-353.3-225.9-457.6-240.7c142.9,166.7,210.2,293.9,239.5,372.9C2444.2,963.1,2556.9,896.1,2600.1,852.3L2600.1,852.3z"
		/>
	<path id="path2691-1" inkscape:connector-curvature="0" sodipodi:nodetypes="cccc" class="st2" d="M2321.1,1006.9
		c-35.2-99.2-163.8-310.2-289.6-407.7c-2.5,154-5.5,376.6-0.9,459.6C2112.8,1061.3,2260.5,1030.1,2321.1,1006.9z"/>
	<path id="path2703-4" inkscape:connector-curvature="0" sodipodi:nodetypes="ccccc" class="st2" d="M2868.3,1459.7
		c1.4-119.8-29-340.6-221.6-558.8c-41.7,40.8-209.3,132-240.1,146.6c30.8,72,76.7,331.8,74,413.7
		C2566.7,1461.4,2801.3,1462.2,2868.3,1459.7L2868.3,1459.7z"/>
	<path id="path2707-8" inkscape:connector-curvature="0" sodipodi:nodetypes="ccccc" class="st2" d="M2416.4,1460.7
		c-3.4-123.8-20.8-246.6-69.6-391.8c-60.4,24-223.4,57.1-318.6,59.3c0.6,105.4,0.1,251.3,0.5,334
		C2114.8,1462.4,2349.3,1463.2,2416.4,1460.7z"/>
</g>
<g id="g2744" inkscape:groupmode="layer" inkscape:label="lay2">
	<path id="path2736" inkscape:connector-curvature="0" sodipodi:nodetypes="cccc" class="st2" d="M1394.7,852.3
		c117-145.2,353.3-225.9,457.6-240.7c-142.9,166.7-210.2,293.9-239.5,372.9C1550.7,963.1,1437.9,896.1,1394.7,852.3z"/>
	<path id="path2738" inkscape:connector-curvature="0" sodipodi:nodetypes="cccc" class="st2" d="M1673.7,1007
		c35.2-99.2,163.8-310.2,289.6-407.7c2.5,154,5.5,376.6,0.9,459.6C1882.1,1061.3,1734.4,1030.1,1673.7,1007L1673.7,1007z"/>
	<path id="path2740" inkscape:connector-curvature="0" sodipodi:nodetypes="ccccc" class="st2" d="M1126.5,1459.8
		c-1.4-119.8,29-340.6,221.6-558.8c41.7,40.8,209.3,132,240.1,146.6c-30.8,72-76.7,331.8-74,413.7
		C1428.1,1461.5,1193.6,1462.2,1126.5,1459.8z"/>
	<path id="path2742" inkscape:connector-curvature="0" sodipodi:nodetypes="ccccc" class="st2" d="M1578.5,1460.7
		c3.4-123.8,20.8-246.6,69.6-391.8c60.4,24,223.4,57.1,318.6,59.3c-0.6,105.4-0.1,251.3-0.5,334
		C1880.1,1462.4,1645.5,1463.2,1578.5,1460.7z"/>
</g>
<g id="g2754" inkscape:groupmode="layer" inkscape:label="lay3">
	<path id="path2746" inkscape:connector-curvature="0" sodipodi:nodetypes="cccc" class="st2" d="M1398.1,2139
		c117,145.2,353.3,225.9,457.6,240.7c-142.9-166.7-210.2-293.9-239.5-372.9C1554,2028.3,1441.3,2095.2,1398.1,2139L1398.1,2139z"/>
	<path id="path2748" inkscape:connector-curvature="0" sodipodi:nodetypes="cccc" class="st2" d="M1677.1,1984.4
		c35.2,99.2,163.8,310.2,289.6,407.7c2.5-154,5.5-376.6,0.9-459.6C1885.4,1930,1737.8,1961.3,1677.1,1984.4L1677.1,1984.4z"/>
	<path id="path2750" inkscape:connector-curvature="0" sodipodi:nodetypes="ccccc" class="st2" d="M1129.9,1531.6
		c-1.4,119.8,29,340.6,221.6,558.8c41.7-40.8,209.3-132,240.1-146.6c-30.8-72-76.7-331.8-74-413.7
		C1431.5,1529.9,1196.9,1529.1,1129.9,1531.6L1129.9,1531.6z"/>
	<path id="path2752" inkscape:connector-curvature="0" sodipodi:nodetypes="ccccc" class="st2" d="M1581.8,1530.6
		c3.4,123.8,20.8,246.6,69.6,391.8c60.4-24,223.4-57.1,318.6-59.3c-0.6-105.4-0.1-251.3-0.5-334
		C1883.4,1528.9,1648.9,1528.1,1581.8,1530.6z"/>
</g>
<g id="g2764" inkscape:groupmode="layer" inkscape:label="lay4">
	<path id="path2756" inkscape:connector-curvature="0" sodipodi:nodetypes="cccc" class="st2" d="M2601.8,2141.3
		c-117,145.2-353.3,225.9-457.6,240.7c142.9-166.7,210.2-293.9,239.5-372.9C2445.8,2030.5,2558.5,2097.5,2601.8,2141.3z"/>
	<path id="path2758" inkscape:connector-curvature="0" sodipodi:nodetypes="cccc" class="st2" d="M2322.8,1986.6
		c-35.2,99.2-163.8,310.2-289.6,407.7c-2.5-154-5.5-376.6-0.9-459.6C2114.4,1932.3,2262.1,1963.5,2322.8,1986.6L2322.8,1986.6z"/>
	<path id="path2760" inkscape:connector-curvature="0" sodipodi:nodetypes="ccccc" class="st2" d="M2870,1533.8
		c1.4,119.8-29,340.6-221.6,558.8c-41.7-40.8-209.3-132-240.1-146.6c30.8-72,76.7-331.8,74-413.7
		C2568.4,1532.2,2802.9,1531.4,2870,1533.8L2870,1533.8z"/>
	<path id="path2762" inkscape:connector-curvature="0" sodipodi:nodetypes="ccccc" class="st2" d="M2418,1532.9
		c-3.4,123.8-20.8,246.6-69.6,391.8c-60.4-24-223.4-57.1-318.6-59.3c0.6-105.4,0.1-251.3,0.5-334
		C2116.4,1531.2,2351,1530.4,2418,1532.9z"/>
</g>
</svg>
