<?xml version="1.0" encoding="utf-8"?>
<!-- Generator: Adobe Illustrator 24.0.2, SVG Export Plug-In . SVG Version: 6.00 Build 0)  -->
<svg version="1.1"
	 id="svg21079" inkscape:version="0.92.4 (5da689c313, 2019-01-14)" sodipodi:docname="zr.svg" xmlns:cc="http://creativecommons.org/ns#" xmlns:dc="http://purl.org/dc/elements/1.1/" xmlns:inkscape="http://www.inkscape.org/namespaces/inkscape" xmlns:rdf="http://www.w3.org/1999/02/22-rdf-syntax-ns#" xmlns:sodipodi="http://sodipodi.sourceforge.net/DTD/sodipodi-0.dtd" xmlns:svg="http://www.w3.org/2000/svg"
	 xmlns="http://www.w3.org/2000/svg" xmlns:xlink="http://www.w3.org/1999/xlink" x="0px" y="0px" viewBox="0 0 4000 3000"
	 style="enable-background:new 0 0 4000 3000;" xml:space="preserve">
<style type="text/css">
	.st0{fill:#DE2910;}
	.st1{fill:#FFDE00;}
</style>
<rect id="rect21067" class="st0" width="4000" height="3000"/>
<g id="group">
	<polygon id="con_3_" class="st1" points="683.9,550.2 579.7,229.3 475.4,550.2 138.1,550.2 411,748.5 306.8,1069.4 579.7,871.1 
		852.6,1069.4 748.4,748.5 1021.3,550.2 	"/>
	<polygon id="con_2_" class="st1" points="1330.5,283.7 1388.3,380.2 1398.2,268.2 1507.8,242.9 1404.3,198.9 1414.2,86.9 
		1340.3,171.7 1236.9,127.7 1294.7,224.1 1220.9,309 	"/>
	<polygon id="cno" class="st1" points="1620.7,580.1 1636.6,691.4 1689.2,592 1800,611.3 1721.7,530.5 1774.3,431.1 1673.3,480.7 
		1595,399.9 1610.9,511.3 1509.9,560.8 	"/>
	<polygon id="con_1_" class="st1" points="1808.6,950.2 1696.2,954.2 1657.6,848.6 1626.7,956.7 1514.4,960.7 1607.6,1023.5 
		1576.8,1131.7 1665.3,1062.3 1758.6,1125.1 1720,1019.5 	"/>
	<polygon id="con" class="st1" points="1408.2,1168 1338,1255.8 1232.7,1216.1 1294.6,1310.1 1224.3,1397.9 1332.8,1368.1 
		1394.6,1462.1 1399.8,1349.8 1508.2,1320 1403,1280.3 	"/>
</g>
</svg>
